<svg width="336" height="157" viewBox="0 0 336 157" fill="none" xmlns="http://www.w3.org/2000/svg">
<path d="M110.969 83.6009V55.0567H120.301C123.398 55.0567 125.725 55.6972 127.28 56.978C128.848 58.2588 129.633 60.1539 129.633 62.6633C129.633 63.9964 129.254 65.1792 128.496 66.2117C127.738 67.2311 126.705 68.0219 125.398 68.5838C126.94 69.0151 128.156 69.8385 129.045 71.054C129.946 72.2564 130.397 73.6941 130.397 75.367C130.397 77.9287 129.567 79.9414 127.907 81.4052C126.248 82.869 123.902 83.6009 120.869 83.6009H110.969ZM114.733 70.2502V80.523H120.948C122.699 80.523 124.078 80.0721 125.084 79.1703C126.104 78.2554 126.614 77.0007 126.614 75.4062C126.614 71.9689 124.745 70.2502 121.007 70.2502H114.733ZM114.733 67.2311H120.419C122.065 67.2311 123.379 66.8194 124.359 65.9961C125.352 65.1727 125.849 64.0552 125.849 62.6437C125.849 61.0753 125.392 59.9383 124.477 59.2325C123.562 58.5137 122.17 58.1543 120.301 58.1543H114.733V67.2311ZM139.768 80.523H153.295V83.6009H135.984V55.0567H139.768V80.523ZM176.625 55.0567V74.4652C176.612 77.1575 175.762 79.3598 174.076 81.0719C172.403 82.784 170.129 83.7447 167.254 83.9538L166.254 83.993C163.13 83.993 160.64 83.15 158.785 81.464C156.929 79.778 155.988 77.4581 155.961 74.5044V55.0567H159.686V74.3868C159.686 76.4518 160.255 78.0594 161.392 79.2095C162.529 80.3465 164.15 80.9151 166.254 80.9151C168.384 80.9151 170.011 80.3465 171.135 79.2095C172.272 78.0724 172.841 76.4714 172.841 74.4064V55.0567H176.625ZM198.699 70.4071H186.329V80.523H200.699V83.6009H182.565V55.0567H200.503V58.1543H186.329V67.3292H198.699V70.4071ZM234.281 58.1543H225.107V83.6009H221.362V58.1543H212.207V55.0567H234.281V58.1543ZM248.985 72.0538H242.28V83.6009H238.496V55.0567H247.946C251.161 55.0567 253.631 55.7887 255.356 57.2525C257.095 58.7163 257.964 60.8466 257.964 63.6435C257.964 65.421 257.48 66.9697 256.513 68.2898C255.559 69.6098 254.226 70.5966 252.514 71.2501L259.218 83.3656V83.6009H255.18L248.985 72.0538ZM242.28 68.9759H248.063C249.932 68.9759 251.416 68.4924 252.514 67.5252C253.625 66.5581 254.18 65.2642 254.18 63.6435C254.18 61.8791 253.651 60.5264 252.592 59.5854C251.546 58.6444 250.03 58.1673 248.044 58.1543H242.28V68.9759ZM279.019 76.1512H267.06L264.374 83.6009H260.493L271.393 55.0567H274.686L285.606 83.6009H281.744L279.019 76.1512ZM268.197 73.0537H277.901L273.04 59.703L268.197 73.0537ZM310.21 74.5436C309.857 77.5627 308.739 79.8956 306.857 81.5424C304.988 83.1761 302.499 83.993 299.388 83.993C296.016 83.993 293.311 82.784 291.272 80.3661C289.246 77.9483 288.233 74.7135 288.233 70.6619V67.9173C288.233 65.2642 288.703 62.9312 289.645 60.9185C290.599 58.9058 291.945 57.3635 293.683 56.2918C295.421 55.2071 297.434 54.6647 299.721 54.6647C302.753 54.6647 305.184 55.5142 307.014 57.2132C308.844 58.8992 309.909 61.2387 310.21 64.2317H306.426C306.099 61.9575 305.387 60.3108 304.289 59.2913C303.204 58.2719 301.682 57.7622 299.721 57.7622C297.316 57.7622 295.428 58.6509 294.056 60.4284C292.696 62.2059 292.017 64.7348 292.017 68.0153V70.7796C292.017 73.8771 292.664 76.3407 293.958 78.1704C295.251 80.0002 297.062 80.9151 299.388 80.9151C301.479 80.9151 303.08 80.4446 304.191 79.5036C305.315 78.5495 306.06 76.8962 306.426 74.5436H310.21ZM331.5 70.4071H319.13V80.523H333.5V83.6009H315.366V55.0567H333.304V58.1543H319.13V67.3292H331.5V70.4071Z" fill="white"/>
<path d="M32.3 26.5V9.39999H53.2C55.8 9.39999 57.9 7.3 57.9 4.7C57.9 2.1 55.8 0 53.2 0H4.70001C2.10001 0 0 2.1 0 4.7C0 7.3 2.10001 9.39999 4.70001 9.39999H22.9V63.8C22.9 64.5 22.9 65.3 22.9 66C22.9 66.7 22.9 67 22.9 67.8V79.5C18.1 81.4 14.8 86 14.8 91.4C14.8 98.5 20.6 104.2 27.6 104.2C34.7 104.2 40.4 98.4 40.4 91.4C40.4 86 37 81.4 32.3 79.5V71.6C41.3 73.7 48.1 81.8 48.1 91.5C48.1 102.8 38.9 112 27.6 112C24.8 112 22.5 114.3 22.5 117.1C22.5 119.9 24.8 122.2 27.6 122.2C44.5 122.2 58.3 108.4 58.3 91.5C58.3 76.2 47 63.5 32.3 61.2V53.5C51.2 55.8 65.9 71.9 65.9 91.5C65.9 112.6 48.7 129.8 27.6 129.8C25 129.8 22.9 131.9 22.9 134.5C22.9 137.1 25 139.2 27.6 139.2C53.9 139.2 75.3 117.8 75.3 91.5C75.3 66.8 56.4 46.4 32.3 44.1V36.1C60.8 38.5 83.3 62.4 83.3 91.5C83.3 122.2 58.3 147.2 27.6 147.2C25 147.2 22.9 149.3 22.9 151.9C22.9 154.5 25 156.6 27.6 156.6C63.5 156.6 92.7 127.4 92.7 91.5C92.7 57 66 28.9 32.3 26.5Z" fill="white"/>
</svg>
