<svg width="192" height="210" viewBox="0 0 192 210" fill="none" xmlns="http://www.w3.org/2000/svg">
<path fill-rule="evenodd" clip-rule="evenodd" d="M191.592 81.0914C191.321 40.3673 158.227 7.43313 117.438 7.43313C105.445 7.42347 93.6294 10.3258 83.006 15.8908C72.3825 21.4558 63.2691 29.5169 56.4488 39.3816C25.1226 40.2995 0 65.992 0 97.5523C0 129.695 26.0559 155.751 58.1984 155.751H116.939C158.171 155.751 191.592 122.324 191.592 81.0914Z" fill="#FDE3E3"/>
<path d="M143.386 178.84C143.38 178.867 143.371 178.893 143.359 178.917C143.341 178.955 143.315 178.988 143.284 179.015C143.253 179.043 143.217 179.063 143.177 179.076C143.138 179.089 143.096 179.094 143.055 179.091C143.014 179.087 142.973 179.075 142.937 179.056C142.472 178.822 96.1938 155.304 83.1797 136.4C83.1562 136.366 83.1397 136.328 83.131 136.288C83.1224 136.247 83.1217 136.206 83.1292 136.165C83.1366 136.124 83.152 136.086 83.1744 136.051C83.1968 136.016 83.2258 135.986 83.2598 135.963C83.2938 135.939 83.332 135.923 83.3724 135.914C83.4128 135.906 83.4545 135.905 83.4951 135.912C83.5357 135.92 83.5745 135.935 83.6091 135.958C83.6438 135.98 83.6737 136.009 83.6972 136.043C96.622 154.817 142.755 178.258 143.232 178.492C143.293 178.524 143.342 178.576 143.37 178.639C143.398 178.703 143.403 178.773 143.386 178.84Z" fill="#639E9A"/>
<path fill-rule="evenodd" clip-rule="evenodd" d="M134.795 162.564C134.795 162.564 127.96 171.383 136.545 175.575L134.795 162.564Z" fill="#639E9A"/>
<path fill-rule="evenodd" clip-rule="evenodd" d="M134.795 162.564C134.795 162.564 143.728 169.267 136.545 175.575L134.795 162.564Z" fill="#639E9A"/>
<path fill-rule="evenodd" clip-rule="evenodd" d="M128.447 157.112C128.447 157.112 119.927 164.317 127.452 170.2L128.447 157.112Z" fill="#639E9A"/>
<path fill-rule="evenodd" clip-rule="evenodd" d="M128.447 157.112C128.447 157.112 135.781 165.521 127.452 170.2L128.447 157.112Z" fill="#639E9A"/>
<path fill-rule="evenodd" clip-rule="evenodd" d="M117.435 152.082C117.435 152.082 110.677 160.959 119.283 165.078L117.435 152.082Z" fill="#639E9A"/>
<path fill-rule="evenodd" clip-rule="evenodd" d="M117.435 152.082C117.435 152.082 126.414 158.708 119.283 165.078L117.435 152.082Z" fill="#639E9A"/>
<path fill-rule="evenodd" clip-rule="evenodd" d="M109.932 146.011C109.932 146.011 101.664 153.502 109.387 159.126L109.932 146.011Z" fill="#639E9A"/>
<path fill-rule="evenodd" clip-rule="evenodd" d="M109.931 146.011C109.931 146.011 117.549 154.164 109.386 159.126L109.931 146.011Z" fill="#639E9A"/>
<path fill-rule="evenodd" clip-rule="evenodd" d="M101.824 140.118C101.824 140.118 93.5538 147.609 101.276 153.231L101.824 140.118Z" fill="#639E9A"/>
<path fill-rule="evenodd" clip-rule="evenodd" d="M101.824 140.118C101.824 140.118 109.439 148.272 101.276 153.231L101.824 140.118Z" fill="#639E9A"/>
<path fill-rule="evenodd" clip-rule="evenodd" d="M90.3872 134.675C90.3872 134.675 85.1754 144.532 94.3515 147.19L90.3872 134.675Z" fill="#639E9A"/>
<path fill-rule="evenodd" clip-rule="evenodd" d="M90.3872 134.675C90.3872 134.675 100.33 139.739 94.3515 147.19L90.3872 134.675Z" fill="#639E9A"/>
<path fill-rule="evenodd" clip-rule="evenodd" d="M72.2446 138.637C72.2446 138.637 80.1855 146.473 85.3696 138.449L72.2446 138.637Z" fill="#639E9A"/>
<path fill-rule="evenodd" clip-rule="evenodd" d="M72.2446 138.637C72.2446 138.637 79.9453 130.576 85.3696 138.449L72.2446 138.637Z" fill="#639E9A"/>
<path fill-rule="evenodd" clip-rule="evenodd" d="M82.2646 149.248C82.2646 149.248 90.4982 156.776 95.3742 148.564L82.2646 149.248Z" fill="#639E9A"/>
<path fill-rule="evenodd" clip-rule="evenodd" d="M82.2646 149.248C82.2646 149.248 89.6573 140.9 95.3742 148.564L82.2646 149.248Z" fill="#639E9A"/>
<path fill-rule="evenodd" clip-rule="evenodd" d="M100.537 165.663C100.537 165.663 110.511 170.665 112.963 161.431L100.537 165.663Z" fill="#639E9A"/>
<path fill-rule="evenodd" clip-rule="evenodd" d="M100.537 165.663C100.537 165.663 105.389 155.615 112.963 161.431L100.537 165.663Z" fill="#639E9A"/>
<path fill-rule="evenodd" clip-rule="evenodd" d="M90.6431 158.862C90.6431 158.862 100.617 163.864 103.069 154.632L90.6431 158.862Z" fill="#639E9A"/>
<path fill-rule="evenodd" clip-rule="evenodd" d="M90.6431 158.862C90.6431 158.862 95.4914 148.814 103.069 154.632L90.6431 158.862Z" fill="#639E9A"/>
<path fill-rule="evenodd" clip-rule="evenodd" d="M122.083 178.449C122.083 178.449 132.057 183.451 134.509 174.22L122.083 178.449Z" fill="#639E9A"/>
<path fill-rule="evenodd" clip-rule="evenodd" d="M122.083 178.449C122.083 178.449 126.935 168.401 134.509 174.22L122.083 178.449Z" fill="#639E9A"/>
<path d="M145.019 179.416C145.001 179.446 144.98 179.474 144.957 179.499C144.922 179.539 144.879 179.571 144.831 179.594C144.783 179.617 144.731 179.63 144.678 179.633C144.625 179.635 144.572 179.627 144.522 179.609C144.472 179.591 144.426 179.563 144.387 179.527C143.891 179.087 94.7427 134.223 85.1292 106.414C85.1036 106.316 85.1161 106.211 85.1642 106.122C85.2123 106.032 85.2923 105.964 85.3884 105.931C85.4845 105.898 85.5895 105.902 85.6825 105.943C85.7755 105.984 85.8496 106.059 85.89 106.152C95.4388 133.764 144.436 178.489 144.929 178.936C144.994 178.996 145.037 179.075 145.053 179.161C145.07 179.248 145.057 179.337 145.019 179.416Z" fill="#84CFC8"/>
<path fill-rule="evenodd" clip-rule="evenodd" d="M139.964 156.379C139.964 156.379 128.506 164.939 137.688 173.052L139.964 156.379Z" fill="#84CFC8"/>
<path fill-rule="evenodd" clip-rule="evenodd" d="M139.964 156.379C139.964 156.379 148.697 167.711 137.688 173.052L139.964 156.379Z" fill="#84CFC8"/>
<path fill-rule="evenodd" clip-rule="evenodd" d="M133.991 147.474C133.991 147.474 121.002 153.465 128.29 163.306L133.991 147.474Z" fill="#84CFC8"/>
<path fill-rule="evenodd" clip-rule="evenodd" d="M133.992 147.474C133.992 147.474 140.18 160.371 128.29 163.306L133.992 147.474Z" fill="#84CFC8"/>
<path fill-rule="evenodd" clip-rule="evenodd" d="M122.089 137.497C122.089 137.497 110.708 146.15 119.952 154.189L122.089 137.497Z" fill="#84CFC8"/>
<path fill-rule="evenodd" clip-rule="evenodd" d="M122.089 137.497C122.089 137.497 130.924 148.749 119.952 154.189L122.089 137.497Z" fill="#84CFC8"/>
<path fill-rule="evenodd" clip-rule="evenodd" d="M114.894 127.434C114.894 127.434 102.12 133.865 109.737 143.451L114.894 127.434Z" fill="#84CFC8"/>
<path fill-rule="evenodd" clip-rule="evenodd" d="M114.894 127.434C114.894 127.434 121.52 140.109 109.738 143.451L114.894 127.434Z" fill="#84CFC8"/>
<path fill-rule="evenodd" clip-rule="evenodd" d="M106.885 117.38C106.885 117.38 94.1084 123.811 101.729 133.397L106.885 117.38Z" fill="#84CFC8"/>
<path fill-rule="evenodd" clip-rule="evenodd" d="M106.885 117.38C106.885 117.38 113.511 130.058 101.729 133.397L106.885 117.38Z" fill="#84CFC8"/>
<path fill-rule="evenodd" clip-rule="evenodd" d="M94.6197 106.75C94.6197 106.75 84.806 117.155 95.2358 123.565L94.6197 106.75Z" fill="#84CFC8"/>
<path fill-rule="evenodd" clip-rule="evenodd" d="M94.6196 106.75C94.6196 106.75 105.173 116.403 95.2357 123.565L94.6196 106.75Z" fill="#84CFC8"/>
<path fill-rule="evenodd" clip-rule="evenodd" d="M77.2838 102.527C77.2838 102.527 76.8094 116.822 88.8748 114.728L77.2838 102.527Z" fill="#84CFC8"/>
<path fill-rule="evenodd" clip-rule="evenodd" d="M77.2837 102.527C77.2837 102.527 91.5853 102.786 88.8747 114.728L77.2837 102.527Z" fill="#84CFC8"/>
<path fill-rule="evenodd" clip-rule="evenodd" d="M79.6035 121.981C79.6035 121.981 87.2056 134.096 96.0336 125.613L79.6035 121.981Z" fill="#84CFC8"/>
<path fill-rule="evenodd" clip-rule="evenodd" d="M79.6035 121.981C79.6035 121.981 91.6165 114.194 96.0336 125.613L79.6035 121.981Z" fill="#84CFC8"/>
<path fill-rule="evenodd" clip-rule="evenodd" d="M96.5757 148.506C96.5757 148.506 107.19 158.091 113.372 147.523L96.5757 148.506Z" fill="#84CFC8"/>
<path fill-rule="evenodd" clip-rule="evenodd" d="M96.5757 148.506C96.5757 148.506 106.001 137.747 113.372 147.523L96.5757 148.506Z" fill="#84CFC8"/>
<path fill-rule="evenodd" clip-rule="evenodd" d="M86.6694 136.721C86.6694 136.721 97.284 146.31 103.469 135.738L86.6694 136.721Z" fill="#84CFC8"/>
<path fill-rule="evenodd" clip-rule="evenodd" d="M86.6694 136.721C86.6694 136.721 96.095 125.961 103.469 135.738L86.6694 136.721Z" fill="#84CFC8"/>
<path fill-rule="evenodd" clip-rule="evenodd" d="M118.831 171.666C118.831 171.666 129.445 181.252 135.627 170.684L118.831 171.666Z" fill="#84CFC8"/>
<path fill-rule="evenodd" clip-rule="evenodd" d="M118.831 171.666C118.831 171.666 128.256 160.907 135.627 170.683L118.831 171.666Z" fill="#84CFC8"/>
<path d="M42.6743 153.508L50.3442 197.309H58.014C58.014 197.309 52.9932 146.3 53.9481 137.922C54.903 129.543 58.014 103.885 58.014 103.885L41.1034 96.8311C41.1034 96.8311 35.3125 106.965 35.3125 109.399L42.6743 153.508Z" fill="#F1F1F1"/>
<path d="M55.6729 106.842C55.6729 106.842 63.1887 136.967 63.1887 145.468C63.1887 153.97 64.4516 197.309 64.4516 197.309H71.8134C71.8134 197.309 73.6924 150.15 73.6924 138.661C73.6924 127.172 70.5382 101.821 70.5382 101.821L55.6913 96.061L55.6729 106.842Z" fill="#F1F1F1"/>
<path opacity="0.2" fill-rule="evenodd" clip-rule="evenodd" d="M37.0371 97.1083L40.8566 99.4124L44.707 104.193V112.362L43.6443 114.894L43.5703 116.095C43.5703 116.095 43.826 121.159 48.1568 123.426C50.3521 124.611 52.6148 125.666 54.9334 126.586L55.4725 124.942L57.1081 98.4513L43.7952 94.6226L37.0371 97.1083Z" fill="#231F20"/>
<path d="M101.137 50.689L95.439 50.9354C95.439 50.9354 101.415 72.0352 99.2893 74.1605L104.464 75.7315L101.137 50.689Z" fill="#70ADA6"/>
<path d="M91.1265 70.1253C91.1265 70.1253 93.9911 75.0537 95.8085 78.8733C97.6258 82.6928 101.415 84.5409 101.415 84.5409L103.54 74.3453C103.54 74.3453 96.9174 71.3266 96.0549 69.6633C95.1924 67.9999 91.1265 70.1253 91.1265 70.1253Z" fill="#F3BF8B"/>
<path d="M90.6953 184.834C91.2805 185.42 86.6602 196.262 86.6602 196.262L93.1287 198.018L96.3322 185.297L90.6953 184.834Z" fill="#473E3F"/>
<path d="M106.004 90.2701L102.308 95.6298C102.308 95.6298 97.3488 139.554 96.1475 144.483C94.9462 149.411 88.3853 191.179 88.3853 191.179L95.1926 193.551C95.1926 193.551 108.13 158.991 107.483 154.401C106.836 149.812 122.237 107.212 122.237 107.212L106.836 90.1777L106.004 90.2701Z" fill="#444152"/>
<path d="M108.9 92.9195L104.957 93.8127L107.914 109.491C107.914 109.491 117.617 142.08 118.295 153.077C118.972 164.073 112.627 194.509 112.627 194.509L123.808 194.91C123.808 194.91 133.48 163.953 131.232 154.99C128.983 146.026 132.248 106.814 132.248 106.814L128.398 92.0601L108.9 92.9195Z" fill="#444152"/>
<path d="M121.868 193.613C121.868 193.613 121.652 197.556 121.498 200.236C121.344 202.916 122.638 205.103 118.664 205.503C114.691 205.903 110.594 204.794 110.255 203.039C109.916 201.283 114.044 197.34 114.136 195.615C114.229 193.89 115.399 193.213 116.015 193.798C116.631 194.383 121.868 193.613 121.868 193.613Z" fill="#231F20"/>
<path d="M121.251 204.366C120.543 204.982 119.557 205.044 118.479 205.044C116.2 205.044 111.21 204.766 110.255 203.042C110.162 203.504 110.471 203.996 110.809 204.366C113.52 206.95 120.789 206.55 121.251 204.366Z" fill="#231F20"/>
<path d="M114.69 197.802C114.629 199.466 117.309 200.975 118.325 199.497C118.325 199.466 119.711 195.8 119.835 194.691C119.896 194.014 120.451 192.874 118.633 192.535C116.816 192.196 115.491 192.782 115.461 193.398C115.43 193.829 114.814 195.307 114.69 197.802Z" fill="#231F20"/>
<path d="M118.756 198.85C118.756 198.85 118.88 193.983 119.711 193.798C120.423 193.675 121.145 193.614 121.867 193.613C121.867 193.613 121.159 198.511 120.142 199.312C119.126 200.113 118.756 198.85 118.756 198.85Z" fill="#231F20"/>
<path d="M114.259 195.125C114.259 195.157 114.267 195.188 114.283 195.216C114.3 195.243 114.323 195.265 114.352 195.279C116.631 196.85 119.958 195.495 120.081 195.433C120.105 195.425 120.128 195.413 120.147 195.396C120.167 195.379 120.182 195.359 120.194 195.336C120.205 195.313 120.212 195.288 120.214 195.262C120.216 195.237 120.212 195.211 120.204 195.187V195.156C120.173 195.105 120.125 195.068 120.068 195.051C120.011 195.034 119.95 195.038 119.896 195.064C119.865 195.064 116.693 196.357 114.66 194.94C114.608 194.908 114.546 194.893 114.485 194.899C114.424 194.904 114.366 194.93 114.321 194.971C114.292 195.019 114.271 195.071 114.259 195.125Z" fill="#231F20"/>
<path d="M114.013 197.094C114.012 197.125 114.02 197.157 114.037 197.184C114.053 197.211 114.077 197.233 114.105 197.248C115.491 198.264 119.496 197.402 119.65 197.34C119.702 197.335 119.751 197.31 119.786 197.27C119.82 197.23 119.838 197.177 119.834 197.124V197.094C119.813 197.04 119.774 196.995 119.723 196.967C119.673 196.939 119.614 196.929 119.557 196.94C118.479 197.186 115.43 197.648 114.444 196.909C114.392 196.876 114.331 196.861 114.269 196.867C114.208 196.872 114.15 196.898 114.105 196.94C114.044 197.001 114.013 197.032 114.013 197.094Z" fill="#231F20"/>
<path d="M113.797 198.48C113.797 198.541 113.828 198.572 113.859 198.634C114.968 199.65 119.188 199.003 119.681 198.911C119.804 198.911 119.865 198.819 119.865 198.695V198.665C119.858 198.636 119.844 198.609 119.826 198.586C119.808 198.563 119.785 198.544 119.759 198.529C119.733 198.515 119.705 198.506 119.676 198.503C119.646 198.499 119.617 198.502 119.588 198.511C118.356 198.726 114.999 199.065 114.198 198.357C114.153 198.312 114.092 198.287 114.028 198.287C113.965 198.287 113.904 198.312 113.859 198.357C113.84 198.371 113.825 198.39 113.814 198.411C113.804 198.432 113.798 198.456 113.797 198.48Z" fill="#231F20"/>
<path d="M85.9824 197.155C84.3807 198.08 83.0254 196.601 83.0562 196.57C84.6579 194.291 85.5512 192.196 85.9208 191.703C86.3521 191.149 86.9373 190.41 88.4158 191.149C89.8944 191.888 91.1265 193.521 90.572 193.86C90.1716 194.106 88.4035 195.769 85.9824 197.155Z" fill="#231F20"/>
<path d="M96.1476 201.653L89.5558 201.714C86.8452 201.745 82.502 202.053 81.1467 202.084C79.7914 202.115 74.8322 199.466 75.1402 198.572C75.4482 197.679 79.9146 197.864 82.2248 196.848C84.535 195.831 87.5845 192.812 88.6317 192.874C89.4942 192.905 93.9914 193.736 94.7615 194.414C95.5315 195.092 96.8252 201.067 96.1476 201.653Z" fill="#231F20"/>
<path d="M76.2799 198.018C77.3272 198.264 79.1445 200.02 81.8552 200.605C83.9497 201.067 92.5437 200.112 96.2708 199.681C96.394 200.667 96.3632 201.437 96.1476 201.652L89.5558 201.714C86.8452 201.745 82.502 202.053 81.1467 202.084C79.7914 202.114 74.8322 199.465 75.1402 198.572C75.2018 198.295 75.633 198.141 76.2799 198.018Z" fill="#231F20"/>
<path d="M84.8121 198.11C84.8429 198.079 84.8429 198.049 84.8429 197.987C84.5348 196.508 82.3787 196.447 82.2863 196.447C82.247 196.448 82.2089 196.46 82.1762 196.482C82.1435 196.504 82.1176 196.534 82.1014 196.57C82.0706 196.632 82.1014 196.693 82.163 196.693H82.1938C82.2246 196.693 84.2884 196.755 84.5348 198.079C84.5405 198.094 84.5491 198.107 84.5601 198.118C84.571 198.129 84.5841 198.138 84.5985 198.143C84.613 198.149 84.6284 198.152 84.644 198.151C84.6595 198.151 84.6748 198.147 84.6889 198.141H84.7197C84.7813 198.141 84.8121 198.141 84.8121 198.11Z" fill="#231F20"/>
<path d="M85.8596 197.032C85.8904 197.001 85.8904 196.97 85.8904 196.909C85.7364 195.954 83.4878 195.461 83.3954 195.43C83.3588 195.426 83.3218 195.432 83.2888 195.448C83.2559 195.465 83.2286 195.491 83.2105 195.523C83.1991 195.548 83.1958 195.577 83.2014 195.605C83.2069 195.632 83.2209 195.657 83.2413 195.677H83.2721C83.8882 195.8 85.4899 196.293 85.6131 196.97C85.6131 197.032 85.7056 197.063 85.7672 197.032C85.8288 197.063 85.8596 197.063 85.8596 197.032Z" fill="#231F20"/>
<path d="M86.6603 196.262C86.6719 196.25 86.6807 196.235 86.686 196.219C86.6914 196.203 86.6931 196.186 86.6911 196.17C86.6603 195.276 84.4117 194.599 84.1652 194.537C84.1287 194.532 84.0916 194.539 84.0587 194.555C84.0258 194.572 83.9985 194.598 83.9804 194.63C83.9719 194.642 83.9659 194.655 83.9628 194.67C83.9598 194.684 83.9597 194.699 83.9625 194.713C83.9654 194.728 83.9712 194.741 83.9796 194.753C83.988 194.766 83.9987 194.776 84.0112 194.784C84.0153 194.784 84.0193 194.784 84.023 194.786C84.0268 194.787 84.0301 194.79 84.033 194.793C84.0359 194.795 84.0381 194.799 84.0397 194.803C84.0412 194.806 84.042 194.81 84.042 194.814C84.6889 194.999 86.4138 195.646 86.4446 196.262C86.4455 196.28 86.4506 196.297 86.4598 196.312C86.4689 196.328 86.4816 196.34 86.4969 196.35C86.5121 196.359 86.5294 196.364 86.5471 196.365C86.5649 196.366 86.5826 196.362 86.5987 196.355C86.5987 196.324 86.6295 196.293 86.6603 196.262Z" fill="#231F20"/>
<path d="M119.619 200.821C119.619 200.821 120.482 203.377 119.866 203.839C119.249 204.301 111.764 203.901 111.826 202.823C111.888 201.745 113.705 199.65 114.383 199.496C115.06 199.342 119.619 200.821 119.619 200.821Z" fill="#231F20"/>
<path d="M105.388 44.5594C105.388 44.5594 96.979 50.0423 96.979 53.2458C96.979 56.4492 101.199 67.569 101.199 73.3291C101.199 79.0891 99.628 99.3265 99.628 99.3265C107.245 99.594 114.87 99.2127 122.422 98.1868C129.045 97.2935 130.985 98.0944 130.985 98.0944C130.985 98.0944 129.445 74.4072 127.443 63.2566C125.441 52.1061 127.905 44.4978 126.241 42.8037C124.578 41.1096 112.38 40.8631 105.388 44.5594Z" fill="#609B91"/>
<path d="M97.5952 42.5263C97.5952 42.5263 105.604 41.325 110.502 41.325C115.399 41.325 123.593 44.2821 124.424 43.9125L117.524 38.8608H107.852L97.5952 42.5263Z" fill="#381520"/>
<path d="M119.342 46.0411C115.461 49.9222 118.572 55.7747 115.153 62.7053C111.734 69.6359 114.537 71.9461 114.537 73.5478C114.537 75.1496 107.236 76.1353 107.236 74.6875C107.236 73.2398 109.423 61.2268 109.423 59.1322C109.423 57.3765 110.378 50.6307 110.655 47.6428C110.717 47.0884 110.748 46.6264 110.748 46.4107C110.789 44.639 110.923 42.8706 111.148 41.1127C111.395 38.9257 111.703 37.0776 111.703 37.0776L119.989 36.3999C119.989 36.4276 123.254 42.1261 119.342 46.0411Z" fill="#45423E"/>
<path d="M102.4 38.7376C102.4 38.7376 92.9131 46.3766 92.1122 49.4877C91.3113 52.5987 91.3729 65.6282 89.0319 67.9384C86.6909 70.2486 83.3026 70.7723 84.3499 71.8195C85.3972 72.8668 95.8701 72.374 96.9482 71.2651C98.0263 70.1562 95.6853 66.5215 96.2089 64.3653C96.7326 62.2091 99.9361 51.3358 99.9361 49.5801C99.9361 47.8243 116.015 37.8135 116.015 37.8135L102.4 38.7376Z" fill="#45423E"/>
<path d="M126.211 42.7728C126.211 42.7728 125.903 54.8474 127.166 61.8088C128.429 68.7702 128.983 70.5567 128.983 70.5567L137.669 77.5181C137.688 77.5181 136.148 41.6639 126.211 42.7728Z" fill="#F3BF8B"/>
<path d="M138.563 70.4949C137.608 59.8988 133.942 42.1257 126.211 42.7725C119.681 43.327 124.178 68.0307 124.455 69.3552C127.104 69.2628 135.944 70.1561 138.563 70.4949Z" fill="#609B91"/>
<path d="M134.281 68.7084C131.509 67.3839 119.65 66.8603 118.202 65.4125C116.754 63.9648 117.709 62.0551 115.646 61.3774C113.582 60.6997 108.253 59.6525 108.253 61.3774C108.253 63.1023 108.653 62.9175 108.253 63.8416C107.946 64.5839 107.789 65.3795 107.791 66.1826C107.791 66.7679 107.483 66.9219 107.483 67.9076C107.489 68.5164 107.659 69.1122 107.976 69.6325C107.976 69.6325 109.762 68.4004 110.81 68.4004C111.857 68.4004 112.658 68.2156 113.489 69.6325C114.321 71.0494 133.357 78.4728 134.866 78.8425C136.376 79.2121 137.731 78.3496 137.7 77.3023C137.669 76.2551 137.947 70.4642 134.281 68.7084Z" fill="#F3BF8B"/>
<path d="M88.5085 62.2709C88.5085 62.2709 88.6626 60.7307 89.1862 60.2071C89.7099 59.6835 91.866 59.3446 93.6526 60.4227C95.4391 61.5008 96.4864 61.2852 95.5315 62.2709C94.5767 63.2566 91.9276 61.5008 91.9276 61.5008C91.9276 61.5008 95.8088 63.2258 95.2543 64.3655C94.6999 65.5051 92.0817 63.1641 91.4656 63.7802C90.8495 64.3963 95.1311 65.4435 94.3918 66.1828C93.6526 66.9221 90.1719 64.6119 90.1719 65.4743C90.1719 66.3368 93.8066 66.5524 92.8517 67.5381C91.8968 68.5238 89.3094 67.5381 88.5085 67.9385C87.7077 68.339 86.6604 67.4765 87.2456 66.8913C87.2456 66.8913 86.5064 65.0123 87.0916 65.0123C87.0916 65.0123 86.9068 63.6262 87.2764 63.2566C87.653 62.8875 88.0658 62.5573 88.5085 62.2709Z" fill="#F6C07A"/>
<path d="M102.185 15.0503C102.185 15.0503 102.709 15.5123 107.699 18.1306C112.689 20.7488 124.424 43.9431 124.424 43.9431C124.424 43.9431 115.091 44.2512 111.179 41.1401C105.851 36.8893 97.5954 42.557 97.5954 42.557C97.5954 42.557 102.893 39.754 102.893 36.9817C102.893 34.2095 91.7737 27.1249 92.975 22.8125C94.1763 18.5002 102.185 15.0503 102.185 15.0503Z" fill="#F8BA5E"/>
<path d="M102.062 36.2424C101.878 35.6961 101.662 35.1612 101.415 34.6407C98.8275 29.3426 94.3303 19.8554 84.1963 29.6506C84.1963 29.6506 84.6275 35.6571 86.3525 38.4294C88.139 41.294 91.1577 45.7604 91.1577 45.7604L92.2666 44.7747C92.2666 44.7747 95.162 46.1916 96.4557 47.6702C97.7494 49.1487 99.2896 46.1608 100.645 44.9595C100.825 44.8003 100.99 44.625 101.138 44.4359L101.169 44.4667C101.538 44.8055 101.969 45.206 102.401 45.5756C104.064 47.0849 105.512 49.9188 108.746 50.196C109.116 50.2268 109.947 49.0871 110.687 47.6394C110.748 47.0849 110.779 46.6229 110.779 46.4073C110.82 44.7378 110.954 43.0719 111.179 41.4172L102.062 36.2424Z" fill="#F3BF8B"/>
<path d="M78.1895 30.2976C78.2511 30.6364 79.9453 36.8586 85.0893 35.2876C90.2333 33.7167 89.0629 30.4824 91.3422 31.0985C93.6216 31.7145 93.8989 35.7497 95.901 36.3965L97.3488 35.534C97.3488 35.534 96.9483 34.5792 97.4412 34.1479C97.934 33.7167 101.353 37.3206 102.154 36.6429C102.955 35.9653 101.692 31.4065 101.137 29.2811C100.583 27.1557 97.7184 20.7796 93.7448 21.9809C89.7713 23.1822 89.4017 25.246 88.3236 24.0139C87.2455 22.7818 87.1531 25.1536 87.1531 25.1536C87.1531 25.1536 85.6438 24.8147 85.1509 23.3978C84.6581 21.9809 80.8694 24.6299 81.9166 27.433C82.9639 30.236 77.5427 26.8169 78.1895 30.2976Z" fill="#231F20"/>
<path d="M95.2236 33.7199C95.2236 33.7199 97.3182 36.2149 97.9035 35.6912C98.4887 35.1676 98.5503 32.6726 97.041 31.3789C95.5317 30.0852 93.9915 31.7762 95.2236 33.7199Z" fill="#F6C07A"/>
<path d="M91.0957 38.8917C91.1855 39.0306 91.2166 39.1995 91.1819 39.3612C91.1472 39.5229 91.0497 39.6643 90.9109 39.7542C90.772 39.844 90.6031 39.875 90.4413 39.8404C90.2796 39.8057 90.1383 39.7082 90.0484 39.5693C89.9686 39.4435 89.9371 39.2931 89.9598 39.1458C89.9825 38.9986 90.0577 38.8645 90.1716 38.7685C90.3116 38.6654 90.4862 38.6206 90.6585 38.6436C90.8309 38.6666 90.9876 38.7555 91.0957 38.8917Z" fill="#231F20"/>
<path d="M102.092 27.5254C102.678 29.0655 103.263 30.1744 103.509 31.1601C103.971 32.885 107.236 34.5484 107.791 33.1931C108.286 31.949 108.657 30.6594 108.9 29.3427C106.62 28.6651 104.31 28.0798 102.092 27.5254Z" fill="#F8CB9F"/>
<path d="M82.0093 17.1143C82.0093 17.1143 86.2908 17.1759 85.2435 13.2948C84.1963 9.41366 81.9785 7.28828 83.2106 5.28611C84.4427 3.28394 86.4141 1.09696 89.1247 0.511711C89.7099 0.388501 104.434 8.11995 104.434 8.11995C104.434 8.11995 96.8561 9.96811 98.1498 12.0319C99.4436 14.0957 94.8232 18.1 93.6527 19.1781C92.4822 20.2562 88.1082 21.6423 88.1082 21.6423L86.9069 20.2254C86.9069 20.2254 88.2622 19.8557 88.4162 19.3937C88.4162 19.3937 86.8761 20.0406 85.5208 19.9481C84.1655 19.8557 82.0093 17.1143 82.0093 17.1143Z" fill="#231F20"/>
<path d="M90.9419 16.0362C90.9419 16.0362 94.1762 19.5785 93.5601 21.4574C92.9441 23.3364 99.2278 20.7798 97.6261 17.6995C97.0408 16.5906 93.8373 12.3398 93.8373 12.3398L90.9419 16.0362Z" fill="#F8CB9F"/>
<path d="M84.8739 4.76524C84.3195 5.72012 83.611 7.99951 84.3811 9.20081C85.1512 10.4021 84.9972 12.5891 86.7221 14.9917C88.447 17.3943 91.7922 17.3943 92.4083 16.9292C95.1189 14.8962 95.6733 12.6784 95.8581 10.3374C96.043 7.99643 98.5688 6.54871 93.4863 3.46845C88.4039 0.388187 85.9397 2.85239 84.8739 4.76524Z" fill="#F8CB9F"/>
<path d="M88.6934 6.79515C88.9089 6.68868 89.1461 6.6333 89.3865 6.6333C89.6268 6.6333 89.864 6.68868 90.0795 6.79515C89.0938 6.70275 88.755 7.01077 88.5086 7.53442C88.2622 8.05806 88.293 8.30448 88.0773 8.21207C87.7878 8.11967 88.2006 7.16479 88.6934 6.79515Z" fill="#020202"/>
<path d="M85.4592 9.01298C85.2436 9.10539 85.0896 9.38261 84.9048 9.62903C84.9972 8.73576 85.5208 8.39693 86.3525 8.95138C86.5065 9.04379 86.3833 9.2594 86.2601 9.1978C86.0007 9.10712 85.7321 9.04515 85.4592 9.01298Z" fill="#020202"/>
<path d="M87.5229 2.3012C87.9522 2.5837 88.3637 2.8923 88.7551 3.22528C90.6956 4.79621 94.2995 8.36931 94.7308 13.1745C94.9464 15.6695 94.3611 19.8587 94.3611 19.8587C94.3611 19.8587 100.029 17.0556 101.415 16.7784L99.2895 11.3264L102.616 15.9159C102.616 15.9159 103.972 15.7003 106.405 12.5893C108.838 9.47821 106.713 5.75109 106.713 5.75109C106.713 5.75109 100.984 7.41443 98.5503 4.11855C96.1169 0.822676 89.7407 -2.26066 87.5229 2.3012Z" fill="#231F20"/>
<path d="M75.6021 202.053C72.8298 201.283 70.2732 197.894 69.7496 195.061L66.3921 195.122C67.2854 195.985 66.0225 201.437 66.0225 201.437L66.7617 204.425L75.6021 202.053Z" fill="#231F20"/>
<path d="M77.6041 202.731C76.9573 202.454 76.3104 201.93 75.6328 202.053C66.5152 203.655 66.0532 201.437 66.0532 201.437C66.0532 201.437 65.2215 203.87 65.2523 204.425C65.2831 204.979 65.8067 204.949 68.5482 204.887C71.2896 204.825 75.602 205.503 77.8814 204.795C80.1608 204.086 80.2532 203.901 77.6041 202.731Z" fill="#231F20"/>
<path d="M53.5782 198.822C53.609 200.331 53.0854 202.118 52.5925 203.75C52.1613 205.229 52.9622 206.06 52.993 207.015C53.0238 209.017 58.1062 208.278 58.1062 208.278C58.1062 208.278 59.2767 205.321 58.5991 203.011C58.0754 201.132 57.5826 199.007 57.5518 197.62C57.5829 197.032 57.6446 196.446 57.7366 195.865L53.609 195.957C53.6398 196.909 53.6398 197.864 53.5782 198.822Z" fill="#231F20"/>
<path d="M58.599 203.008C58.599 203.039 58.4141 207.69 55.8575 206.92C54.2558 206.427 53.1777 204.887 52.5925 203.778C52.1612 205.256 51.73 206.612 51.73 207.567C51.7608 209.569 59.5538 210 59.5538 210C59.5538 210 59.2766 205.349 58.599 203.008Z" fill="#231F20"/>
<path d="M38.3003 63.506L38.5775 55.2817H44.7072L45.7853 62.8592L38.3003 63.506Z" fill="#F8CB9F"/>
<path d="M39.3474 40.5552C39.3474 40.5552 42.8589 42.3725 43.3825 43.081C43.9061 43.7894 43.9677 44.9907 44.9534 45.6068C45.6538 45.9717 46.453 46.1013 47.2328 45.9764C47.302 46.1971 47.3213 46.4304 47.2894 46.6595C47.2574 46.8885 47.175 47.1076 47.048 47.3009C46.6168 47.917 47.5408 48.6563 47.7257 48.7179C47.8489 48.7487 46.1239 49.7343 46.1239 49.7343C46.1239 49.7343 47.1404 50.72 48.0953 50.1656C48.0953 50.1656 48.2493 50.2272 48.0645 50.7508C47.8797 51.2745 48.7421 53.4615 47.3252 54.4471C45.9083 55.4328 39.7786 57.9894 35.7435 56.6341C31.7083 55.2788 27.5192 51.6133 29.5213 47.3317C31.5235 43.0502 39.3474 40.5552 39.3474 40.5552Z" fill="#F8CB9F"/>
<path d="M43.5057 46.4996C43.6598 46.8384 43.937 47.0233 44.091 46.9309C44.245 46.8384 44.2758 46.4996 44.1218 46.1916C43.9678 45.8836 43.6906 45.6679 43.5057 45.7604C43.3209 45.8528 43.3517 46.1608 43.5057 46.4996Z" fill="#231F20"/>
<path d="M31.616 41.3248C31.616 41.3248 36.2364 37.0432 39.2242 36.8892C42.2121 36.7352 43.8754 39.9079 43.8754 39.9079C43.8754 39.9079 41.0724 38.7374 40.2099 39.6307C40.2099 39.6307 43.1669 40.5855 43.8754 42.9573C43.8754 42.9573 40.2715 42.0641 39.409 43.0189C38.5466 43.9738 40.3331 46.3148 39.9943 47.7317C39.6554 49.1487 38.3001 49.5491 38.3617 50.7812C38.4233 52.0133 41.7808 55.2784 40.1791 57.0957C38.5774 58.9131 34.4806 57.7426 32.8481 56.2333C31.2155 54.7239 27.3652 51.3664 27.242 48.9022C27.1188 46.438 27.9197 45.4215 29.0286 44.1586L31.616 41.3248Z" fill="#231F20"/>
<path d="M39.2241 49.6415C39.2241 49.6415 37.5916 47.3929 36.5751 48.779C35.5586 50.1651 38.8545 52.9682 39.871 52.0749C40.8875 51.1816 39.2241 49.6415 39.2241 49.6415Z" fill="#F8CB9F"/>
<path d="M69.534 35.5343C69.534 35.5343 63.127 35.1954 60.9092 41.1712C58.6914 47.1469 58.9687 59.5295 61.9873 63.0102C65.006 66.4909 64.5131 75.4544 67.1622 78.1035C69.8112 80.7525 76.5569 81.9538 76.5569 75.7317C76.5569 75.7317 73.2611 76.5017 72.4294 72.6206C72.4294 72.6206 77.1422 75.6393 79.4524 71.0497C81.7626 66.4601 76.8034 66.0288 76.8034 66.0288C76.8034 66.0288 79.206 69.1707 76.2797 68.4931C73.3535 67.8154 71.6901 65.1972 71.6901 61.8397C71.6901 58.4822 76.6186 60.6384 76.0949 54.4779C75.5713 48.3174 71.7209 35.3187 69.534 35.5343Z" fill="#231F20"/>
<path d="M55.5187 61.1343L43.2593 73.2397L46.8632 77.398L53.4241 81.0944L62.0797 74.1638L55.5187 61.1343Z" fill="#9F585B"/>
<path d="M68.3325 60.0531C68.3325 60.0531 58.9378 61.1312 55.4879 61.1312C55.4879 61.1312 57.8289 80.5676 51.1139 84.1407C44.3989 87.7138 37.0371 97.1086 37.0371 97.1086C37.0371 97.1086 57.3668 110.662 73.3534 108.198C73.3534 108.198 70.8584 96.3385 72.5833 89.5311C74.3083 82.7238 84.7811 67.6921 83.703 63.5646C82.625 59.437 68.3325 60.0531 68.3325 60.0531Z" fill="#3C7CA4"/>
<path d="M29.6446 77.1514C29.6446 77.3978 29.6138 77.6442 29.6138 77.8598C29.6138 83.2503 36.7292 83.4659 36.7292 83.4659L35.9591 78.3527C33.8337 77.9492 31.7083 77.5487 29.6446 77.1514Z" fill="#F8CB9F"/>
<path d="M33.5567 62.4556C33.5567 62.4556 28.3202 71.6347 28.0122 77.1176C30.1068 77.518 33.8339 77.9185 35.9593 78.3189L33.5567 62.4556Z" fill="#90343A"/>
<path d="M47.3252 91.2867L49.697 94.4902L48.5265 100.743L53.4549 101.051C53.4549 101.051 58.1061 91.4099 57.7365 91.4099C57.3668 91.4099 47.9104 89.377 47.9104 89.377L47.3252 91.2867Z" fill="#363030"/>
<path d="M50.1283 98.4639C50.1283 98.4639 48.4034 101.421 48.4034 106.288C48.4034 111.155 49.5739 112.325 48.4034 114.912C47.2329 117.5 46.3088 118.516 47.3253 119.533C48.3418 120.549 51.268 122.059 52.5001 123.291C53.7323 124.523 58.1986 123.999 58.1986 122.829C58.1986 121.658 53.455 121.135 54.2251 115.529C54.9952 109.922 58.1986 98.4947 58.1986 98.4947L50.1283 98.4639Z" fill="#F1C39E"/>
<path d="M54.2558 101.051C54.2558 101.051 52.5308 104.008 52.5308 108.875C52.5308 113.742 53.7013 114.912 52.5308 117.5C51.3603 120.087 50.4363 121.104 51.4528 122.12C52.4692 123.137 55.3955 124.646 56.6276 125.878C57.8597 127.11 62.3569 126.587 62.3569 125.416C62.3569 124.246 57.6133 123.722 58.3833 118.116C59.1534 112.51 62.3569 101.082 62.3569 101.082H54.2558V101.051Z" fill="#F8CB9F"/>
<path d="M55.8887 83.4629C55.8887 83.4629 61.6488 85.2186 63.4045 86.9744C65.1603 88.7301 63.4045 104.193 63.4045 104.193C63.4045 104.193 51.9152 103.793 51.9152 102.314C51.9152 100.836 53.7941 94.2438 53.3937 92.7037C52.9933 91.1635 43.9681 94.3054 42.736 90.7939C41.5039 87.2824 55.8887 83.4629 55.8887 83.4629Z" fill="#473E3F"/>
<path d="M34.4499 88.2681C34.4499 88.2681 33.5874 88.3605 33.5874 90.1162C33.5874 91.872 34.2959 95.8147 36.2364 96.8004C38.177 97.7861 45.0152 99.0798 46.3397 98.6177C47.6642 98.1557 47.7566 95.2295 48.4035 94.6134C49.0503 93.9974 49.2659 92.5188 47.3562 92.026C45.4464 91.5331 41.3497 90.1778 39.6555 89.8698C37.9614 89.5618 34.4499 88.2681 34.4499 88.2681Z" fill="#363030"/>
<path d="M84.9045 88.1757C84.9045 88.1757 83.1179 94.0898 77.635 97.1085C72.1522 100.127 60.6012 98.4946 56.6277 100.712C52.6541 102.93 50.2207 102.098 48.8654 102.345C47.5101 102.591 47.3561 102.407 46.6476 101.698C45.9392 100.99 45.1691 100.805 45.6003 99.5111C46.0316 98.2174 45.4155 98.3406 45.4155 97.4165C45.4155 96.4924 48.465 94.8599 48.465 94.2746C48.465 93.6894 45.7852 95.784 45.7852 95.2295C45.7852 94.6751 46.8632 93.0733 48.3418 92.5497C50.1591 91.9028 52.6849 93.4738 54.0403 94.4286C55.3956 95.3835 55.5804 95.2295 58.6298 95.2295C61.6793 95.2295 72.3986 91.41 73.6615 90.1471C74.9244 88.8842 78.3435 84.541 78.3435 84.541L84.9045 88.1757Z" fill="#F3BF8B"/>
<path d="M35.3122 60.6692C35.3122 60.6692 43.5981 56.4493 47.1404 56.9113C47.1404 56.9113 46.9864 70.2797 50.0359 75.1465C53.0853 80.0133 59.6463 82.8163 59.6463 82.8163C59.6463 82.8163 56.0424 88.8536 50.0359 90.7018C44.0294 92.5499 36.3287 90.2397 34.9426 88.8228C33.5565 87.4059 28.7513 64.1191 35.3122 60.6692Z" fill="#90343A"/>
<path d="M68.7642 39.6309L77.8201 44.6209C77.8201 44.6209 79.6991 44.6517 79.6991 42.588C79.6991 40.5242 77.3889 38.4604 75.0479 37.2591C73.3594 36.4687 71.58 35.8893 69.7498 35.5342L68.7642 39.6309Z" fill="#231F20"/>
<path d="M80.3767 47.3316C79.7035 47.1085 79.0989 46.716 78.621 46.1919C77.6969 45.2678 77.4197 41.2943 76.4956 39.6309C75.5715 37.9676 72.06 37.3823 72.06 37.3823C72.06 37.3823 69.565 37.5055 66.9776 40.093C64.9138 42.1567 66.4232 46.9619 67.3164 49.8266L63.2505 62.3016C63.6817 65.7515 69.0722 66.8604 69.9347 65.9979C70.0579 65.8747 71.5056 58.5437 72.6761 55.217C72.7685 54.9398 72.8609 54.6934 72.9225 54.4778C74.1238 54.8474 75.0479 55.063 75.0479 55.063C79.6375 55.9563 80.3459 53.9233 80.0379 53.2457C79.8516 52.7967 79.7573 52.3148 79.7607 51.8287L79.6683 48.2248C80.6232 47.7628 80.3767 47.3316 80.3767 47.3316Z" fill="#F3BF8B"/>
<path d="M68.7332 35.4416C68.7332 35.4416 69.9653 34.7024 74.216 35.9345C78.4668 37.1666 79.5141 41.5713 79.5141 41.5713C79.5141 41.5713 76.7726 39.7232 75.0477 39.7232C73.3227 39.7232 69.4108 39.0763 68.764 38.4295C68.1171 37.7826 68.7332 35.4416 68.7332 35.4416Z" fill="#231F20"/>
<path d="M69.3799 35.2598C69.9651 35.2598 73.8463 39.3257 72.8298 42.5292C71.8133 45.7326 69.3799 44.3157 67.8397 45.1474C66.2996 45.9791 68.1478 49.9526 67.8705 51.5543C67.5933 53.1561 63.281 62.3044 63.281 62.3044C63.281 62.3044 59.6463 42.9604 61.864 39.3873C64.0818 35.8142 69.3799 35.2598 69.3799 35.2598Z" fill="#231F20"/>
<path d="M67.655 48.3479C67.655 48.3479 70.7044 49.5184 68.2402 56.1717C65.2216 64.2728 57.2129 67.1067 61.1248 71.0186C65.0368 74.9305 64.5131 91.4407 50.4979 87.6212C50.4979 87.6212 58.0754 86.8203 56.412 82.3231C54.7487 77.826 48.3726 82.662 48.3726 77.5487C48.3726 72.4355 51.3296 74.8689 52.4693 69.0472C53.609 63.2255 50.3439 65.9054 51.2064 59.8989C52.0689 53.8923 61.8333 39.3535 61.8333 39.3535L67.655 48.3479Z" fill="#231F20"/>
<path d="M68.2712 45.5449C68.2712 45.5449 67.0391 43.7892 66.4539 44.3436C65.8686 44.8981 65.5914 47.9783 67.6244 48.3479C69.6573 48.7176 68.2712 45.5449 68.2712 45.5449Z" fill="#F6C07A"/>
<path d="M44.707 58.3281L47.5101 72.2509C47.5101 72.2509 49.0194 76.3168 51.884 77.4873C54.7487 78.6578 59.3999 76.4709 60.8784 74.9923C62.3569 73.5138 65.3756 73.2366 66.5461 71.2344C67.7166 69.2322 63.6814 72.2201 63.6814 71.4192C63.6814 70.6184 66.2689 70.526 66.7617 68.955C67.2545 67.3841 62.9114 70.4643 62.9114 70.0639C62.9114 69.6635 66.2072 67.9385 65.776 66.8912C65.3448 65.844 63.435 68.647 61.9565 69.0166C60.478 69.3863 63.9587 67.4457 63.1886 66.6756C62.4185 65.9056 60.1083 69.0782 59.6155 69.0782C59.1226 69.0782 61.1556 67.0761 59.6155 67.5381C58.0754 68.0001 58.3834 70.2179 57.4285 71.1728C56.4736 72.1277 52.9621 69.4171 51.73 67.0145C50.4979 64.6119 44.707 58.3281 44.707 58.3281Z" fill="#F8CB9F"/>
<path d="M46.3702 74.1608C46.3702 74.1608 56.3811 72.405 55.6726 69.3556C55.5494 68.8935 55.5494 68.8935 53.9785 64.3963C52.7156 60.7924 52.2535 56.9729 47.7871 56.6341C46.5242 56.5417 45.6002 56.7265 44.9841 57.1577C42.9203 58.513 43.7828 62.0861 44.06 64.3347" fill="#90343A"/>
<path d="M81.1158 61.3775C81.1158 61.3775 82.2863 61.1311 84.8121 64.3037C87.5843 67.8152 86.6911 90.6092 86.6911 90.6092L75.5405 85.4343C75.5405 85.4343 77.7583 77.21 77.7583 71.8196C77.7583 66.4291 81.1158 61.3775 81.1158 61.3775Z" fill="#3C7CA4"/>
<path d="M76.4339 46.0071C76.5571 46.3767 76.8035 46.6231 77.0191 46.5615C77.2348 46.4999 77.2964 46.1303 77.1732 45.7607C77.0499 45.391 76.8035 45.1446 76.5879 45.2062C76.3723 45.2678 76.3107 45.6374 76.4339 46.0071Z" fill="#231F20"/>
<path d="M89.4868 9.85346C89.7399 9.7534 89.8234 9.36448 89.6733 8.98479C89.5232 8.6051 89.1963 8.37841 88.9432 8.47848C88.6901 8.57855 88.6065 8.96747 88.7566 9.34716C88.9067 9.72685 89.2336 9.95353 89.4868 9.85346Z" fill="#020202"/>
<path d="M86.8245 11.1337C87.0386 11.0295 87.0855 10.6846 86.9292 10.3634C86.7729 10.0422 86.4725 9.86626 86.2584 9.97047C86.0442 10.0747 85.9973 10.4196 86.1537 10.7408C86.31 11.062 86.6103 11.238 86.8245 11.1337Z" fill="#020202"/>
<path d="M87.9541 10.769L88.1389 12.4324C88.2361 12.4924 88.3481 12.5241 88.4623 12.5241C88.5766 12.5241 88.6885 12.4924 88.7858 12.4324" stroke="#020202" stroke-linecap="round" stroke-linejoin="round"/>
<path d="M87.5229 13.8489C87.5229 13.8489 88.4162 13.6949 88.9707 13.5409C89.5251 13.3869 90.2028 12.8017 90.7264 12.586C91.2501 12.3704 91.7121 14.0338 90.5108 14.7114C89.3095 15.3891 88.293 15.1735 87.5229 13.8489Z" fill="#231F20"/>
<path opacity="0.2" d="M108.653 18.8081C108.653 18.8081 111.773 22.0239 111.733 22.9788C111.693 23.9337 111.117 32.044 110.193 32.044L108.903 32.9373L107.239 34.1108L108.653 18.8081Z" fill="#231F20"/>
<path d="M88.5698 38.9222C88.5698 38.9222 89.0627 36.6736 91.4037 36.7044" stroke="#231F20" stroke-miterlimit="10" stroke-linecap="round"/>
<path d="M76.8958 44.2202C76.8958 44.2202 75.1093 44.2202 74.4316 45.8528" stroke="#231F20" stroke-miterlimit="10" stroke-linecap="round"/>
<path d="M78.8363 51.2435C78.8363 51.2435 77.8198 51.8288 76.3413 50.9663" stroke="#231F20" stroke-miterlimit="10" stroke-linecap="round"/>
<path d="M95.1309 45.4832C95.1309 45.4832 96.825 44.3127 96.209 42.6802" stroke="#231F20" stroke-miterlimit="10" stroke-linecap="round"/>
<path d="M43.2594 44.7749C43.2594 44.7749 42.0273 44.9597 41.7192 46.5615" stroke="#231F20" stroke-miterlimit="10" stroke-linecap="round"/>
<path d="M85.0585 7.53763L84.4733 6.61356L85.1509 7.22961L88.5084 5.56627L87.7691 3.96453L89.0629 5.68948L92.9132 4.48818L87.2763 1.62354L83.6416 5.75108L83.9188 8.95455L85.0585 7.53763Z" fill="#231F20"/>
<path d="M123.146 46.9648C123.146 46.9648 121.76 49.7186 122.591 58.3372" stroke="white" stroke-width="0.5" stroke-miterlimit="10"/>
<path d="M93.9192 40.9403C94.3008 40.4185 94.2983 39.7675 93.9138 39.4864C93.5293 39.2053 92.9083 39.4004 92.5267 39.9223C92.1452 40.4441 92.1477 41.0951 92.5322 41.3762C92.9167 41.6573 93.5377 41.4622 93.9192 40.9403Z" fill="#010101" fill-opacity="0.15"/>
<path d="M91.9695 11.0634C92.3511 10.5415 92.3486 9.89056 91.9641 9.60943C91.5796 9.32831 90.9586 9.52347 90.577 10.0453C90.1955 10.5672 90.198 11.2181 90.5825 11.4993C90.967 11.7804 91.588 11.5852 91.9695 11.0634Z" fill="#010101" fill-opacity="0.15"/>
<path d="M76.4939 48.3218C76.4983 47.8455 75.9778 47.4545 75.3314 47.4486C74.685 47.4426 74.1574 47.8239 74.153 48.3002C74.1486 48.7765 74.669 49.1674 75.3155 49.1734C75.9619 49.1794 76.4895 48.7981 76.4939 48.3218Z" fill="#010101" fill-opacity="0.15"/>
<path d="M44.1151 49.4613C44.617 49.0539 44.7804 48.4238 44.4802 48.054C44.18 47.6842 43.5298 47.7147 43.0279 48.1221C42.526 48.5296 42.3625 49.1597 42.6627 49.5295C42.9629 49.8993 43.6132 49.8688 44.1151 49.4613Z" fill="#010101" fill-opacity="0.15"/>
<path d="M78.8365 71.1113C78.8365 71.1113 80.4999 78.0666 76.6465 80.2505" stroke="white" stroke-width="0.5" stroke-miterlimit="10"/>
<path opacity="0.2" d="M76.896 86.0659L82.9764 92.0601L84.3687 89.5343L76.896 86.0659Z" fill="#231F20"/>
<path d="M108.469 18.3463C106.528 16.4057 101.507 12.3398 100.429 17.5146C100.429 17.5146 100.183 18.9931 100.922 23.2131C101.174 24.6945 101.566 26.1487 102.092 27.5562C104.31 28.1107 107.791 29.1888 110.07 29.8972C110.89 25.6157 109.885 19.794 108.469 18.3463Z" fill="#F8BA5E"/>
<path d="M89.1862 27.0326C89.1862 27.0326 88.447 24.4452 90.7263 22.8434C93.0057 21.2417 94.053 21.7037 95.4699 21.981C96.8869 22.2582 103.017 24.322 105.08 26.3857C107.144 28.4495 108.222 32.269 107.822 33.2239C107.298 34.4252 106.744 34.61 104.68 34.61C102.616 34.61 97.3489 26.4165 95.9012 25.8929C94.4535 25.3693 94.053 26.0469 92.9133 26.6938C91.7736 27.3406 89.1862 27.0326 89.1862 27.0326Z" fill="#F8CB9F"/>
<path d="M102.093 17.2188C102.093 17.2188 101.144 20.8504 102.093 24.442" stroke="white" stroke-width="0.5" stroke-miterlimit="10"/>
<path d="M72.3123 39.4891C72.3123 39.4891 69.4169 37.8073 66.4321 37.4346" stroke="white" stroke-width="0.2" stroke-miterlimit="10"/>
<path d="M69.374 38.1956C69.374 38.1956 69.5958 36.3012 73.8989 36.7417" stroke="white" stroke-width="0.2" stroke-miterlimit="10"/>
<path d="M73.0024 38.6481C73.0024 38.6481 75.7408 38.4232 76.6988 39.1163C77.6567 39.8094 78.2389 41.254 77.9586 43.1576" stroke="white" stroke-width="0.2" stroke-miterlimit="10"/>
<path d="M67.9044 37.7949C67.9044 37.7949 65.5973 38.8792 64.4022 40.8752C63.207 42.8712 60.8137 54.4653 54.9365 57.795" stroke="white" stroke-width="0.2" stroke-miterlimit="10"/>
<path d="M70.4398 40.5552C70.4398 40.5552 71.0313 44.1098 67.4551 44.6211" stroke="white" stroke-width="0.2" stroke-miterlimit="10"/>
<path d="M68.4682 41.4019C68.4682 41.4019 67.9291 43.7737 66.8418 44.2141" stroke="white" stroke-width="0.2" stroke-miterlimit="10"/>
<path d="M66.799 48.3047C66.799 48.3047 68.8135 50.2422 65.5669 55.8328C62.3203 61.4235 58.3622 61.9934 57.0962 67.5779" stroke="white" stroke-width="0.2" stroke-miterlimit="10"/>
<path d="M80.0654 30.2359C80.0654 30.2359 82.3048 33.8029 86.4231 32.1826C90.5414 30.5624 90.5784 28.1506 92.2479 28.1568" stroke="white" stroke-width="0.25" stroke-miterlimit="10"/>
<path d="M83.0193 26.4595C83.0193 26.4595 82.8314 29.8847 86.3306 28.859C89.8298 27.8333 91.8751 27.476 93.2212 27.5252" stroke="white" stroke-width="0.25" stroke-miterlimit="10"/>
<path d="M91.4038 2.4458C91.4038 2.4458 96.4246 6.81361 96.9791 13.3715" stroke="white" stroke-width="0.25" stroke-miterlimit="10"/>
<path d="M93.8496 2.99414C93.8496 2.99414 97.74 4.14924 98.9074 7.69154C100.075 11.2338 105.992 11.163 105.992 11.163" stroke="white" stroke-width="0.25" stroke-miterlimit="10"/>
<path d="M29.7769 46.1212C29.7769 46.1212 33.9906 40.3642 39.5413 41.4485" stroke="white" stroke-width="0.25" stroke-miterlimit="10"/>
<path d="M33.3687 42.8346C33.3687 42.8346 36.0362 38.1526 39.0825 38.2789" stroke="white" stroke-width="0.25" stroke-miterlimit="10"/>
<path d="M30.418 45.354C30.418 45.354 31.6501 51.2065 36.3814 54.0927" stroke="white" stroke-width="0.25" stroke-miterlimit="10"/>
<path opacity="0.2" d="M179.16 73.2025C179.081 70.3525 178.183 67.5857 176.573 65.2326C174.963 62.8794 172.71 61.0395 170.083 59.9327C150.72 51.8717 130.963 51.4897 130.963 51.4897C130.963 51.4897 111.219 51.8717 91.8441 59.9327C89.2165 61.0397 86.963 62.8795 85.3528 65.2326C83.7426 67.5856 82.8437 70.3524 82.7635 73.2025C82.0673 94.9768 85.1445 148.361 130.951 154.94C176.779 148.37 179.859 94.9768 179.16 73.2025Z" fill="#231F20"/>
<path d="M134.299 55.1553C134.299 55.1553 115.14 55.5249 96.3504 63.3488C93.8005 64.423 91.6138 66.2087 90.0516 68.4925C88.4894 70.7762 87.6178 73.4615 87.5408 76.2273C86.8632 97.3579 89.851 149.168 134.299 155.544V55.1553Z" fill="#F16566"/>
<path d="M134.299 55.1553C134.299 55.1553 153.459 55.5249 172.248 63.3488C174.798 64.423 176.985 66.2087 178.547 68.4925C180.109 70.7762 180.981 73.4615 181.058 76.2273C181.735 97.3579 178.747 149.168 134.299 155.544V55.1553Z" fill="#D25759"/>
</svg>
