<svg width="200" height="200" viewBox="0 0 200 200" fill="none" xmlns="http://www.w3.org/2000/svg">
<mask id="mask0" mask-type="alpha" maskUnits="userSpaceOnUse" x="0" y="0" width="200" height="200">
<path fill-rule="evenodd" clip-rule="evenodd" d="M100 200C155.228 200 200 155.228 200 100C200 78.706 193.344 58.9665 182 42.7483V2.5H122.319C115.143 0.863997 107.672 0 100 0C92.3278 0 84.8575 0.863997 77.6809 2.5H17.9999V42.7487C6.65554 58.9668 0 78.7062 0 100C0 155.228 44.7715 200 100 200Z" fill="#C4C4C4"/>
</mask>
<g mask="url(#mask0)">
<circle cx="100" cy="100" r="100" fill="url(#paint0_linear)" fill-opacity="0.2"/>
<rect x="19" y="8" width="161" height="195" rx="20" fill="#28599D"/>
<rect x="29" y="34" width="141" height="169" rx="12" fill="#E0E0E0"/>
<rect x="91.8984" y="17.3057" width="26.3673" height="5.42857" rx="2.71429" fill="white"/>
<circle cx="82.9799" cy="20.0199" r="2.71429" fill="white"/>
<rect x="37" y="55" width="35" height="35" rx="4" fill="white"/>
<path d="M63.7324 65.6904C64.7238 66.2448 65.3556 67.3117 65.3886 68.487C65.409 69.1713 65.4122 69.9988 65.3776 70.9151L65.5836 70.9957C66.6308 71.4108 67.8074 70.9165 68.2889 69.8589C68.8003 68.7441 68.3509 67.4068 67.285 66.8718C67.2387 66.8486 67.1916 66.8271 67.1439 66.8074C66.0292 66.3638 64.89 65.9908 63.7324 65.6904Z" fill="#CA3F3C"/>
<path d="M45.2676 65.6904C44.2763 66.2448 43.6444 67.3117 43.6115 68.487C43.591 69.1713 43.5879 69.9988 43.6225 70.9151L43.4164 70.9957C42.3693 71.4108 41.1927 70.9165 40.7112 69.8589C40.1997 68.7441 40.6492 67.4068 41.715 66.8718C41.7613 66.8486 41.8084 66.8271 41.8562 66.8074C42.9709 66.3638 44.1101 65.9908 45.2676 65.6904Z" fill="#F16566"/>
<path d="M46.889 63.7316C47.9322 63.7316 48.7779 62.8471 48.7779 61.756C48.7779 60.6648 47.9322 59.7803 46.889 59.7803C45.8457 59.7803 45 60.6648 45 61.756C45 62.8471 45.8457 63.7316 46.889 63.7316Z" fill="#F16566"/>
<path d="M63.8748 62.3302C64.2047 61.295 63.6698 60.1761 62.68 59.8311C61.6903 59.486 60.6205 60.0455 60.2907 61.0807C59.9608 62.1159 60.4957 63.2348 61.4854 63.5798C62.4752 63.9248 63.5449 63.3653 63.8748 62.3302Z" fill="#F16566"/>
<path d="M54.4905 62.4504C55.5338 62.4504 56.3795 61.5659 56.3795 60.4747C56.3795 59.3836 55.5338 58.499 54.4905 58.499C53.4473 58.499 52.6016 59.3836 52.6016 60.4747C52.6016 61.5659 53.4473 62.4504 54.4905 62.4504Z" fill="#F16566"/>
<path d="M54.4863 68.8309V79.1815C54.7791 79.1815 55.0164 79.4297 55.0164 79.7359V86.497C55.7146 86.3638 56.3993 86.1616 57.061 85.8932L57.6414 69.1468C56.6048 68.915 55.5461 68.809 54.4863 68.8309Z" fill="#CA3F3C"/>
<path d="M64.6703 68.5323C64.6337 67.2459 63.8834 66.0999 62.7499 65.5992C58.6606 63.8144 54.4863 63.7305 54.4863 63.7305V67.695C56.6336 67.6305 58.7658 68.089 60.7147 69.0341C60.9785 69.175 61.0831 69.5128 60.9484 69.7888C60.8193 70.0533 60.5155 70.1667 60.2554 70.0474C59.7496 69.8004 59.227 69.5925 58.692 69.4256L58.1431 85.3643C58.8535 84.9659 59.5139 84.4769 60.1091 83.9085L60.6187 77.7001C60.6439 77.3949 60.901 77.1687 61.1928 77.1951C61.4847 77.2215 61.7009 77.4903 61.6757 77.7955L61.2825 82.5809C64.4989 78.294 64.7694 71.7994 64.6703 68.5323Z" fill="#CA3F3C"/>
<path d="M48.7051 70.0523C48.6363 70.0845 48.5618 70.1013 48.4865 70.1017C48.1903 70.1018 47.9501 69.8508 47.9499 69.541C47.9498 69.3201 48.0737 69.1197 48.2663 69.0291C50.2435 68.1893 52.3516 67.7371 54.4852 67.695V63.7305C54.4852 63.7305 50.311 63.8144 46.2216 65.5992C45.0881 66.0999 44.3378 67.2459 44.3012 68.5323C44.2021 71.7994 44.4727 78.294 47.6891 82.5793L47.2959 77.7939C47.2595 77.4901 47.4654 77.2129 47.7559 77.1749C48.0464 77.1368 48.3113 77.3522 48.3477 77.656C48.3494 77.6701 48.3506 77.6843 48.3512 77.6985L48.8624 83.9085C49.4574 84.4772 50.1179 84.9662 50.8284 85.3643L50.2811 69.4881C49.7447 69.6405 49.2183 69.8289 48.7051 70.0523Z" fill="#F16566"/>
<path d="M51.3359 69.2219L51.9116 85.896C52.5734 86.1643 53.258 86.3665 53.9563 86.4997V79.7386C53.9563 79.4324 54.1936 79.1842 54.4863 79.1842V68.832C53.4267 68.856 52.3717 68.9865 51.3359 69.2219Z" fill="#F16566"/>
<path d="M64.671 70.4756C62.961 73.7108 60.8341 76.6849 58.3498 79.3144L58.1406 85.3648C58.851 84.9664 59.5114 84.4773 60.1066 83.9089L60.6162 77.7006C60.6414 77.3953 60.8984 77.1692 61.1903 77.1956C61.4822 77.2219 61.6984 77.4907 61.6732 77.796L61.28 82.5814C63.9427 79.0281 64.586 73.9663 64.671 70.4756Z" fill="#962D2D"/>
<path d="M55.0195 82.4492V86.4976C55.7178 86.3644 56.4024 86.1622 57.0642 85.8939L57.2529 80.4258C56.5347 81.131 55.7902 81.8054 55.0195 82.4492Z" fill="#962D2D"/>
<path d="M51.8398 83.6477L51.9169 85.8932C52.5787 86.1616 53.2633 86.3637 53.9616 86.497V83.1904C53.2653 83.3769 52.5581 83.5293 51.8398 83.6477Z" fill="#BC5055"/>
<path d="M48.8984 83.9384C49.4834 84.4947 50.1316 84.9737 50.8283 85.3646L50.7732 83.7969C50.1556 83.8693 49.5307 83.9164 48.8984 83.9384Z" fill="#BC5055"/>
<rect x="37" y="111" width="68" height="90" fill="#F2F2F2"/>
<rect x="113" y="111" width="57" height="90" fill="#F2F2F2"/>
<path d="M87.267 58.6641H84.6069V66H83.1362V58.6641H80.4995V57.4688H87.267V58.6641ZM91.427 60.9609C91.2395 60.9297 91.0461 60.9141 90.8469 60.9141C90.1945 60.9141 89.7551 61.1641 89.5285 61.6641V66H88.1047V59.6602H89.4641L89.4992 60.3691C89.843 59.8184 90.3195 59.543 90.9289 59.543C91.132 59.543 91.3 59.5703 91.4328 59.625L91.427 60.9609ZM96.1787 66C96.1162 65.8789 96.0615 65.6816 96.0146 65.4082C95.5615 65.8809 95.0068 66.1172 94.3505 66.1172C93.7138 66.1172 93.1943 65.9355 92.792 65.5723C92.3896 65.209 92.1884 64.7598 92.1884 64.2246C92.1884 63.5488 92.4384 63.0312 92.9384 62.6719C93.4423 62.3086 94.1611 62.127 95.0947 62.127H95.9677V61.7109C95.9677 61.3828 95.8759 61.1211 95.6923 60.9258C95.5088 60.7266 95.2295 60.627 94.8545 60.627C94.5302 60.627 94.2646 60.709 94.0576 60.873C93.8505 61.0332 93.747 61.2383 93.747 61.4883H92.3232C92.3232 61.1406 92.4384 60.8164 92.6689 60.5156C92.8994 60.2109 93.2119 59.9727 93.6064 59.8008C94.0048 59.6289 94.4482 59.543 94.9365 59.543C95.6787 59.543 96.2705 59.7305 96.7119 60.1055C97.1533 60.4766 97.3798 61 97.3916 61.6758V64.5352C97.3916 65.1055 97.4716 65.5605 97.6318 65.9004V66H96.1787ZM94.6142 64.9746C94.8955 64.9746 95.1591 64.9062 95.4052 64.7695C95.6552 64.6328 95.8427 64.4492 95.9677 64.2188V63.0234H95.2002C94.6728 63.0234 94.2763 63.1152 94.0107 63.2988C93.7451 63.4824 93.6123 63.7422 93.6123 64.0781C93.6123 64.3516 93.7021 64.5703 93.8818 64.7344C94.0654 64.8945 94.3095 64.9746 94.6142 64.9746ZM101.727 64.9805C102.083 64.9805 102.378 64.877 102.612 64.6699C102.846 64.4629 102.971 64.207 102.987 63.9023H104.329C104.313 64.2969 104.19 64.666 103.96 65.0098C103.729 65.3496 103.417 65.6191 103.022 65.8184C102.628 66.0176 102.202 66.1172 101.745 66.1172C100.858 66.1172 100.155 65.8301 99.6355 65.2559C99.1159 64.6816 98.8562 63.8887 98.8562 62.877V62.7305C98.8562 61.7656 99.114 60.9941 99.6296 60.416C100.145 59.834 100.848 59.543 101.739 59.543C102.493 59.543 103.106 59.7637 103.579 60.2051C104.055 60.6426 104.305 61.2188 104.329 61.9336H102.987C102.971 61.5703 102.846 61.2715 102.612 61.0371C102.382 60.8027 102.087 60.6855 101.727 60.6855C101.266 60.6855 100.911 60.8535 100.661 61.1895C100.411 61.5215 100.284 62.0273 100.28 62.707V62.9355C100.28 63.623 100.403 64.1367 100.649 64.4766C100.899 64.8125 101.259 64.9805 101.727 64.9805ZM108.436 66.1172C107.534 66.1172 106.801 65.834 106.239 65.2676C105.68 64.6973 105.401 63.9395 105.401 62.9941V62.8184C105.401 62.1855 105.522 61.6211 105.764 61.125C106.01 60.625 106.354 60.2363 106.795 59.959C107.237 59.6816 107.729 59.543 108.272 59.543C109.135 59.543 109.801 59.8184 110.27 60.3691C110.743 60.9199 110.979 61.6992 110.979 62.707V63.2812H106.836C106.879 63.8047 107.053 64.2188 107.358 64.5234C107.666 64.8281 108.053 64.9805 108.518 64.9805C109.17 64.9805 109.702 64.7168 110.112 64.1895L110.879 64.9219C110.625 65.3008 110.286 65.5957 109.86 65.8066C109.438 66.0137 108.963 66.1172 108.436 66.1172ZM108.266 60.6855C107.875 60.6855 107.559 60.8223 107.317 61.0957C107.079 61.3691 106.926 61.75 106.86 62.2383H109.573V62.1328C109.541 61.6562 109.415 61.2969 109.192 61.0547C108.969 60.8086 108.661 60.6855 108.266 60.6855ZM118.631 58.6641H115.971V66H114.5V58.6641H111.864V57.4688H118.631V58.6641ZM118.373 62.7715C118.373 62.1504 118.496 61.5918 118.742 61.0957C118.988 60.5957 119.334 60.2129 119.779 59.9473C120.225 59.6777 120.736 59.543 121.314 59.543C122.17 59.543 122.863 59.8184 123.395 60.3691C123.93 60.9199 124.219 61.6504 124.262 62.5605L124.268 62.8945C124.268 63.5195 124.146 64.0781 123.904 64.5703C123.666 65.0625 123.322 65.4434 122.873 65.7129C122.428 65.9824 121.912 66.1172 121.326 66.1172C120.432 66.1172 119.715 65.8203 119.176 65.2266C118.641 64.6289 118.373 63.834 118.373 62.8418V62.7715ZM119.797 62.8945C119.797 63.5469 119.932 64.0586 120.201 64.4297C120.471 64.7969 120.846 64.9805 121.326 64.9805C121.807 64.9805 122.18 64.793 122.445 64.418C122.715 64.043 122.85 63.4941 122.85 62.7715C122.85 62.1309 122.711 61.623 122.434 61.248C122.16 60.873 121.787 60.6855 121.314 60.6855C120.85 60.6855 120.48 60.8711 120.207 61.2422C119.934 61.6094 119.797 62.1602 119.797 62.8945ZM125.463 62.7832C125.463 61.7988 125.693 61.0137 126.154 60.4277C126.619 59.8379 127.234 59.543 128 59.543C128.722 59.543 129.291 59.7949 129.705 60.2988L129.769 59.6602H131.053V65.8066C131.053 66.6387 130.793 67.2949 130.273 67.7754C129.758 68.2559 129.06 68.4961 128.181 68.4961C127.717 68.4961 127.261 68.3984 126.816 68.2031C126.375 68.0117 126.039 67.7598 125.808 67.4473L126.482 66.5918C126.92 67.1113 127.459 67.3711 128.099 67.3711C128.572 67.3711 128.945 67.2422 129.219 66.9844C129.492 66.7305 129.629 66.3555 129.629 65.8594V65.4316C129.219 65.8887 128.672 66.1172 127.988 66.1172C127.246 66.1172 126.638 65.8223 126.166 65.2324C125.697 64.6426 125.463 63.8262 125.463 62.7832ZM126.881 62.9062C126.881 63.543 127.01 64.0449 127.267 64.4121C127.529 64.7754 127.89 64.957 128.351 64.957C128.926 64.957 129.351 64.7109 129.629 64.2188V61.4297C129.359 60.9492 128.937 60.709 128.363 60.709C127.894 60.709 127.529 60.8945 127.267 61.2656C127.01 61.6367 126.881 62.1836 126.881 62.9062ZM135.552 66.1172C134.65 66.1172 133.917 65.834 133.355 65.2676C132.796 64.6973 132.517 63.9395 132.517 62.9941V62.8184C132.517 62.1855 132.638 61.6211 132.88 61.125C133.126 60.625 133.47 60.2363 133.912 59.959C134.353 59.6816 134.845 59.543 135.388 59.543C136.251 59.543 136.917 59.8184 137.386 60.3691C137.859 60.9199 138.095 61.6992 138.095 62.707V63.2812H133.953C133.996 63.8047 134.169 64.2188 134.474 64.5234C134.783 64.8281 135.169 64.9805 135.634 64.9805C136.287 64.9805 136.818 64.7168 137.228 64.1895L137.996 64.9219C137.742 65.3008 137.402 65.5957 136.976 65.8066C136.554 66.0137 136.08 66.1172 135.552 66.1172ZM135.382 60.6855C134.992 60.6855 134.675 60.8223 134.433 61.0957C134.195 61.3691 134.042 61.75 133.976 62.2383H136.689V62.1328C136.658 61.6562 136.531 61.2969 136.308 61.0547C136.085 60.8086 135.777 60.6855 135.382 60.6855ZM141.23 58.1191V59.6602H142.349V60.7148H141.23V64.2539C141.23 64.4961 141.277 64.6719 141.37 64.7812C141.468 64.8867 141.64 64.9395 141.886 64.9395C142.05 64.9395 142.216 64.9199 142.384 64.8809V65.9824C142.06 66.0723 141.747 66.1172 141.447 66.1172C140.353 66.1172 139.806 65.5137 139.806 64.3066V60.7148H138.763V59.6602H139.806V58.1191H141.23ZM145.085 60.3516C145.55 59.8125 146.138 59.543 146.849 59.543C148.2 59.543 148.886 60.3145 148.905 61.8574V66H147.481V61.9102C147.481 61.4727 147.386 61.1641 147.194 60.9844C147.007 60.8008 146.73 60.709 146.362 60.709C145.792 60.709 145.366 60.9629 145.085 61.4707V66H143.661V57H145.085V60.3516ZM153.382 66.1172C152.479 66.1172 151.747 65.834 151.184 65.2676C150.626 64.6973 150.346 63.9395 150.346 62.9941V62.8184C150.346 62.1855 150.468 61.6211 150.71 61.125C150.956 60.625 151.3 60.2363 151.741 59.959C152.182 59.6816 152.675 59.543 153.218 59.543C154.081 59.543 154.747 59.8184 155.216 60.3691C155.688 60.9199 155.925 61.6992 155.925 62.707V63.2812H151.782C151.825 63.8047 151.999 64.2188 152.304 64.5234C152.612 64.8281 152.999 64.9805 153.464 64.9805C154.116 64.9805 154.647 64.7168 155.057 64.1895L155.825 64.9219C155.571 65.3008 155.231 65.5957 154.805 65.8066C154.384 66.0137 153.909 66.1172 153.382 66.1172ZM153.212 60.6855C152.821 60.6855 152.505 60.8223 152.262 61.0957C152.024 61.3691 151.872 61.75 151.805 62.2383H154.518V62.1328C154.487 61.6562 154.36 61.2969 154.137 61.0547C153.915 60.8086 153.606 60.6855 153.212 60.6855ZM160.594 60.9609C160.407 60.9297 160.213 60.9141 160.014 60.9141C159.362 60.9141 158.922 61.1641 158.696 61.6641V66H157.272V59.6602H158.631L158.667 60.3691C159.01 59.8184 159.487 59.543 160.096 59.543C160.299 59.543 160.467 59.5703 160.6 59.625L160.594 60.9609Z" fill="black"/>
<rect x="80" y="73" width="59" height="18" rx="9" fill="#FF6565"/>
<path d="M94.7644 86H93.2878V77.4688H94.7644V86ZM98.0102 79.6602L98.0513 80.3926C98.52 79.8262 99.1352 79.543 99.897 79.543C101.217 79.543 101.889 80.2988 101.913 81.8105V86H100.489V81.8926C100.489 81.4902 100.401 81.1934 100.225 81.002C100.053 80.8066 99.77 80.709 99.3755 80.709C98.8013 80.709 98.3735 80.9688 98.0923 81.4883V86H96.6684V79.6602H98.0102ZM107.162 84.2773C107.162 84.0234 107.057 83.8301 106.846 83.6973C106.639 83.5645 106.293 83.4473 105.809 83.3457C105.324 83.2441 104.92 83.1152 104.596 82.959C103.885 82.6152 103.53 82.1172 103.53 81.4648C103.53 80.918 103.76 80.4609 104.221 80.0938C104.682 79.7266 105.268 79.543 105.979 79.543C106.737 79.543 107.348 79.7305 107.813 80.1055C108.281 80.4805 108.516 80.9668 108.516 81.5645H107.092C107.092 81.291 106.99 81.0645 106.787 80.8848C106.584 80.7012 106.315 80.6094 105.979 80.6094C105.666 80.6094 105.41 80.6816 105.211 80.8262C105.016 80.9707 104.918 81.1641 104.918 81.4062C104.918 81.625 105.01 81.7949 105.194 81.916C105.377 82.0371 105.748 82.1602 106.307 82.2852C106.865 82.4062 107.303 82.5527 107.619 82.7246C107.94 82.8926 108.176 83.0957 108.328 83.334C108.485 83.5723 108.563 83.8613 108.563 84.2012C108.563 84.7715 108.326 85.2344 107.854 85.5898C107.381 85.9414 106.762 86.1172 105.996 86.1172C105.477 86.1172 105.014 86.0234 104.608 85.8359C104.201 85.6484 103.885 85.3906 103.658 85.0625C103.432 84.7344 103.319 84.3809 103.319 84.002H104.701C104.721 84.3379 104.848 84.5977 105.082 84.7812C105.317 84.9609 105.627 85.0508 106.014 85.0508C106.389 85.0508 106.674 84.9805 106.869 84.8398C107.065 84.6953 107.162 84.5078 107.162 84.2773ZM111.832 78.1191V79.6602H112.951V80.7148H111.832V84.2539C111.832 84.4961 111.879 84.6719 111.973 84.7812C112.07 84.8867 112.242 84.9395 112.488 84.9395C112.652 84.9395 112.818 84.9199 112.986 84.8809V85.9824C112.662 86.0723 112.35 86.1172 112.049 86.1172C110.955 86.1172 110.408 85.5137 110.408 84.3066V80.7148H109.365V79.6602H110.408V78.1191H111.832ZM118.072 86C118.01 85.8789 117.955 85.6816 117.908 85.4082C117.455 85.8809 116.9 86.1172 116.244 86.1172C115.607 86.1172 115.088 85.9355 114.685 85.5723C114.283 85.209 114.082 84.7598 114.082 84.2246C114.082 83.5488 114.332 83.0312 114.832 82.6719C115.336 82.3086 116.054 82.127 116.988 82.127H117.861V81.7109C117.861 81.3828 117.769 81.1211 117.586 80.9258C117.402 80.7266 117.123 80.627 116.748 80.627C116.424 80.627 116.158 80.709 115.951 80.873C115.744 81.0332 115.64 81.2383 115.64 81.4883H114.217C114.217 81.1406 114.332 80.8164 114.562 80.5156C114.793 80.2109 115.105 79.9727 115.5 79.8008C115.898 79.6289 116.342 79.543 116.83 79.543C117.572 79.543 118.164 79.7305 118.605 80.1055C119.047 80.4766 119.273 81 119.285 81.6758V84.5352C119.285 85.1055 119.365 85.5605 119.525 85.9004V86H118.072ZM116.508 84.9746C116.789 84.9746 117.052 84.9062 117.299 84.7695C117.549 84.6328 117.736 84.4492 117.861 84.2188V83.0234H117.094C116.566 83.0234 116.17 83.1152 115.904 83.2988C115.638 83.4824 115.506 83.7422 115.506 84.0781C115.506 84.3516 115.595 84.5703 115.775 84.7344C115.959 84.8945 116.203 84.9746 116.508 84.9746ZM122.531 86H121.107V77H122.531V86ZM125.841 86H124.417V77H125.841V86Z" fill="white"/>
</g>
<defs>
<linearGradient id="paint0_linear" x1="14.3056" y1="23.1155" x2="253.674" y2="40.0322" gradientUnits="userSpaceOnUse">
<stop stop-color="#C94C4C"/>
<stop offset="1" stop-color="#F99170"/>
</linearGradient>
</defs>
</svg>
