<svg xmlns="http://www.w3.org/2000/svg" xmlns:xlink="http://www.w3.org/1999/xlink" viewBox="0 0 182.1 239.23"><defs><style>.cls-1{fill:none;}.cls-2{clip-path:url(#clip-path);}.cls-3{fill:#fff;}</style><clipPath id="clip-path" transform="translate(0 -0.16)"><rect class="cls-1" width="182.1" height="239.39"/></clipPath></defs><title>Asset 1</title><g id="Layer_2" data-name="Layer 2"><g id="Layer_1-2" data-name="Layer 1"><g class="cls-2"><path class="cls-3" d="M15.36,189.3a14.94,14.94,0,0,1,6.07,1.23l1.45-2.19a15.4,15.4,0,0,0-8.5-2.68A14.25,14.25,0,0,0,0,200.09c0,8.18,6,14.47,14.93,14.47,3.25,0,8-.74,8-4.32V200.09H18.65V209c0,1.7-2.11,1.85-3.41,1.85C10,210.8,4.7,207.42,4.7,200.09S10,189.3,15.36,189.3m25.81-3.61a14.44,14.44,0,0,0,0,28.87,14.44,14.44,0,0,0,0-28.87m0,25c-5,0-9.59-3.68-9.59-10.52s4.57-10.53,9.59-10.53,9.64,3.64,9.64,10.53-4.62,10.52-9.64,10.52m37.54-24.77-9.38,21.5-9-21.5H55.57L67.1,213.11a2.33,2.33,0,0,0,2.23,1.26,2.38,2.38,0,0,0,2.2-1.26l11.94-27.23Z" transform="translate(0 -0.16)"/><path class="cls-3" d="M111.57,190.64v18.94c0,4.39,4.32,4.79,6.84,4.79H129.5v-3.75H119.27c-2.16,0-3.24-.26-3.24-2.72V202h12.65v-3.76H116v-5.88c0-2.45,1.08-2.71,3.24-2.71H129.5v-3.76H118.41c-2.52,0-6.84.37-6.84,4.76m-24.94-1h8.26v24.73h4.46V189.64h8.26v-3.76h-21Zm91-3.76v12.27H163.87V185.88h-4.46v28.49h4.46V202.06h13.77v12.31h4.46V185.88Zm-30,3.42a13.61,13.61,0,0,1,5.77,1.23l1.37-2.19a14.17,14.17,0,0,0-8.07-2.68c-8.22,0-13.65,7-13.65,14.43,0,8.18,6,14.47,13.65,14.47a13.89,13.89,0,0,0,8.07-2.72l-1.41-2.19a12.63,12.63,0,0,1-5.73,1.23c-5,0-10.12-3.46-10.12-10.79s5.06-10.79,10.12-10.79" transform="translate(0 -0.16)"/><path class="cls-3" d="M74.18,234.13h2.48v3.38l-.11,0a6.35,6.35,0,0,1-1.67.16,4.5,4.5,0,0,1,.09-9,5.39,5.39,0,0,1,3.17.79l.16.1.15-2-.08,0a8.76,8.76,0,0,0-3.49-.6,6,6,0,0,0-6.33,6.14c0,3.8,2.48,6.25,6.32,6.25a11,11,0,0,0,3.62-.53l.08,0v-6.31H74.18ZM119.32,227c-3.45,0-5.77,2.49-5.77,6.2s2.26,6.19,5.77,6.19,5.77-2.43,5.77-6.19-2.32-6.2-5.77-6.2m0,10.69c-2.78,0-3.77-2.42-3.77-4.49,0-2.24,1.16-4.5,3.74-4.5h.06c2.58,0,3.74,2.26,3.74,4.5,0,2.07-1,4.49-3.77,4.49m-74.51,1.5h1.9v-12h-1.9Zm-9-7.17c-1.05-.51-2-1-2-1.86,0-1.32,1.36-1.46,2-1.46a5.12,5.12,0,0,1,2.16.48l.13,0,.27-1.77-.08,0a8,8,0,0,0-2.55-.43c-2.36,0-3.89,1.3-3.89,3.31s1.55,2.78,2.91,3.42c1.15.54,2.15,1,2.15,2.15,0,1.33-1.32,1.81-2.2,1.81a7,7,0,0,1-2.4-.57l-.14-.05-.19,1.8.08,0a8.4,8.4,0,0,0,2.45.49c2.8,0,4.41-1.32,4.41-3.62s-1.72-3.09-3.1-3.75M61,236.42l-5-9.16,0-.06H53.44v12h1.9v-9.43l5.16,9.37,0,.06h2.33v-12H61Zm29.67-9.22H88.71l-5,11.84-.06.15h2l1.2-3h5.62l1.2,3h2.07l-5-11.92Zm-3.2,7.42,2.18-5.43,2.18,5.43Zm16.66-7.42h-3.2v12h1.91v-4.7h1.54c2.67,0,4.27-1.37,4.27-3.66s-1.56-3.63-4.52-3.63m.27,5.58H102.8V228.9h1.32c1,0,2.49.52,2.49,1.92a2,2,0,0,1-2.25,2m32,.45a2.81,2.81,0,0,0,2.25-2.73c0-2.9-2.37-3.3-4.68-3.3h-3v12h1.9V234h.9c.89,0,1.38,0,1.88,1.08l1.83,4.15h2.16l-2.3-4.85a2.15,2.15,0,0,0-1-1.11m-2.19-1h-1.33V228.9h1.51c1.43,0,2.25.6,2.25,1.63s-.91,1.73-2.43,1.73m17.68-3.36v-1.7h-6.81v12h6.81v-1.7H147v-3.66h4.46v-1.7H147V228.9Z" transform="translate(0 -0.16)"/><path class="cls-3" d="M123.81,155.84a1.08,1.08,0,0,1,.08-1.54,1.09,1.09,0,1,1,1.46,1.63,1.05,1.05,0,0,1-.73.27,1.11,1.11,0,0,1-.81-.36m-3.67-1.24h0a1.06,1.06,0,0,1-.06-1.54,1.09,1.09,0,0,1,1.54-.06,1.1,1.1,0,0,1,.06,1.55,1.12,1.12,0,0,1-.82.35,1.06,1.06,0,0,1-.72-.3m6.22-2.27a1.07,1.07,0,0,1-.69-1.38h0a1.1,1.1,0,1,1,2.08.7,1.09,1.09,0,0,1-1,.74.82.82,0,0,1-.34-.06m-9.31-1a1.09,1.09,0,1,1,1.54.1,1.18,1.18,0,0,1-.73.27,1.1,1.1,0,0,1-.81-.37M114.21,148h0a1.08,1.08,0,0,1,.13-1.54,1.1,1.1,0,0,1,1.54.14,1.09,1.09,0,0,1-.14,1.53,1.07,1.07,0,0,1-.7.26,1,1,0,0,1-.83-.39m13.37.17a1.12,1.12,0,1,1,.23,0,1,1,0,0,1-.23,0m-16.2-3.53a1.1,1.1,0,0,1,.13-1.53,1.09,1.09,0,1,1,1.42,1.66,1.13,1.13,0,0,1-.7.26,1.1,1.1,0,0,1-.85-.39m17-.78a1.09,1.09,0,1,1,.31-2.15,1.06,1.06,0,0,1,.92,1.22,1.08,1.08,0,0,1-1.08,1l-.15,0m-19.85-2.53a1.08,1.08,0,0,1,.12-1.54,1.07,1.07,0,0,1,1.53.1,1.09,1.09,0,0,1-.11,1.54,1.06,1.06,0,0,1-.71.26,1.08,1.08,0,0,1-.83-.36M129,139.47a1.09,1.09,0,0,1,.22-2.17,1.09,1.09,0,0,1-.1,2.18H129M105.64,138h0a1.11,1.11,0,0,1,.07-1.55,1.09,1.09,0,1,1,1.47,1.62,1,1,0,0,1-.72.28,1.12,1.12,0,0,1-.82-.35m-3-3.19h0a1.1,1.1,0,1,1,1.58-1.52,1.08,1.08,0,0,1-.05,1.54,1,1,0,0,1-.74.31,1.17,1.17,0,0,1-.8-.33m26.7.27a1.09,1.09,0,1,1,.18-2.18,1.09,1.09,0,0,1-.09,2.18Zm-29.74-3.38h0a1.1,1.1,0,0,1,1.54-1.56,1.11,1.11,0,0,1,0,1.55,1.1,1.1,0,0,1-1.54,0m30.06-1a1.09,1.09,0,1,1,1.15-1,1.1,1.1,0,0,1-1.09,1Zm-33.2-2h0a1.11,1.11,0,0,1-.06-1.54,1.1,1.1,0,0,1,1.61,1.5,1.13,1.13,0,0,1-.81.33,1,1,0,0,1-.74-.29m33.42-2.34a1.08,1.08,0,0,1-1-1.14,1.1,1.1,0,0,1,1.12-1,1.11,1.11,0,0,1,1.06,1.14,1.09,1.09,0,0,1-1.09,1Zm-36.64-.57a1.1,1.1,0,0,1,1.45-1.65,1.11,1.11,0,0,1,.1,1.55,1.13,1.13,0,0,1-1.55.1M90,123a1.11,1.11,0,1,1,.7.25A1,1,0,0,1,90,123m40.1-1a1.09,1.09,0,0,1-1.06-1.1,1.1,1.1,0,1,1,2.19,0,1.09,1.09,0,0,1-1.1,1.06Zm-43.49-1.72a1.09,1.09,0,0,1-.21-1.53,1.1,1.1,0,1,1,1.74,1.33,1.08,1.08,0,0,1-.86.44,1,1,0,0,1-.67-.24m-3.48-2.59h0a1.07,1.07,0,0,1-.27-1.51,1.09,1.09,0,1,1,1.78,1.26,1.05,1.05,0,0,1-.89.45,1,1,0,0,1-.62-.2m47.06-.06a1.1,1.1,0,0,1-1.07-1.1,1.09,1.09,0,0,1,2.18,0,1.09,1.09,0,0,1-1.09,1.09Zm-50.65-2.4a1.11,1.11,0,0,1-.3-1.52,1.09,1.09,0,1,1,.92,1.69,1.14,1.14,0,0,1-.62-.17m49.61-3.09a1.07,1.07,0,0,1,1.09-1.08,1.09,1.09,0,0,1,1.09,1.1,1.11,1.11,0,0,1-1.09,1.09,1.09,1.09,0,0,1-1.09-1.11m-53.26.74h0a1.09,1.09,0,1,1,1.5-.36,1.11,1.11,0,0,1-.94.52,1,1,0,0,1-.56-.16m-3.73-2.21a1.09,1.09,0,1,1,1.07-1.89h0a1.08,1.08,0,0,1-.54,2,1,1,0,0,1-.52-.14m57-2.9a1.09,1.09,0,0,1,2.18,0,1.11,1.11,0,0,1-1.09,1.1h0a1.08,1.08,0,0,1-1.08-1.09m-60.79.83a1.06,1.06,0,0,1-.46-1.47,1.09,1.09,0,1,1,1.93,1,1.1,1.1,0,0,1-1,.6,1,1,0,0,1-.5-.13m-3.9-1.94h0a1.09,1.09,0,0,1,.94-2,1.07,1.07,0,0,1,.51,1.45,1.05,1.05,0,0,1-1,.63,1.07,1.07,0,0,1-.48-.12m-4-1.82a1.09,1.09,0,1,1,1.44-.55,1.07,1.07,0,0,1-1,.65.92.92,0,0,1-.45-.1M129,103.37a1.07,1.07,0,0,1,1.07-1.11,1.09,1.09,0,0,1,1.11,1.07,1.08,1.08,0,0,1-1.06,1.11h0a1.08,1.08,0,0,1-1.09-1.07m-72.56-.26h0a1.1,1.1,0,1,1,.83-2,1.12,1.12,0,0,1,.6,1.43,1.11,1.11,0,0,1-1,.67,1,1,0,0,1-.41-.07m-4.05-1.59a1.09,1.09,0,1,1,.77-2,1.11,1.11,0,0,1,.63,1.41,1.07,1.07,0,0,1-1,.7,1.26,1.26,0,0,1-.38-.06m-4.1-1.47a1.12,1.12,0,0,1-.68-1.4A1.08,1.08,0,0,1,49,98h0a1.08,1.08,0,0,1,.67,1.38,1.09,1.09,0,0,1-1.39.69m80.61-1a1.09,1.09,0,1,1,2.18-.07,1.09,1.09,0,0,1-1.06,1.12h0a1.08,1.08,0,0,1-1.09-1m-84.74-.31a1.08,1.08,0,0,1-.73-1.35,1.1,1.1,0,1,1,1.05,1.41.73.73,0,0,1-.32-.06M40,97.47a1.1,1.1,0,1,1,.3,0,1,1,0,0,1-.3,0m-4.21-1.09a1.1,1.1,0,1,1,.26,0l-.26,0m93-1.76a1.09,1.09,0,1,1,1.12,1h0a1.07,1.07,0,0,1-1.08-1m-97.23.77a1.1,1.1,0,0,1-.83-1.31A1.09,1.09,0,0,1,32,93.25a1.1,1.1,0,0,1,.83,1.31,1.09,1.09,0,0,1-1.06.84h-.25m-4.27-.9a1.13,1.13,0,0,1-.85-1.3,1.09,1.09,0,0,1,1.29-.86,1.12,1.12,0,0,1,.86,1.3,1.1,1.1,0,0,1-1.08.87h-.22M23,93.63h0a1.1,1.1,0,0,1-.86-1.29,1.07,1.07,0,0,1,1.28-.86,1.09,1.09,0,0,1-.22,2.16H23m-4.33-.91A1.09,1.09,0,1,1,20,91.89a1.1,1.1,0,0,1-1.06.86.72.72,0,0,1-.25,0m-4.33-1.13a1.11,1.11,0,0,1-.7-1.39,1.09,1.09,0,1,1,2.07.69,1.07,1.07,0,0,1-1,.74,1.22,1.22,0,0,1-.34,0M128.6,90.24a1.07,1.07,0,0,1,1-1.13,1.09,1.09,0,0,1,1.14,1,1.08,1.08,0,0,1-1,1.14h-.06a1.07,1.07,0,0,1-1.08-1M10.09,89.53a1.09,1.09,0,1,1,.65.22,1.06,1.06,0,0,1-.65-.22m118.29-3.66a1.09,1.09,0,0,1,2.18-.11,1.1,1.1,0,0,1-1,1.15h-.06a1.09,1.09,0,0,1-1.09-1m-119.84.3a1.11,1.11,0,0,1-1.1-1.11,1.1,1.1,0,1,1,1.1,1.11m1.4-4a1.09,1.09,0,0,1,1.61-1.47,1.1,1.1,0,0,1-.07,1.54,1.13,1.13,0,0,1-.74.29,1.09,1.09,0,0,1-.8-.36m118.19-.7a1.09,1.09,0,0,1,1-1.15,1.09,1.09,0,1,1,.15,2.18h-.08a1.12,1.12,0,0,1-1.09-1M13.3,79.41a1.1,1.1,0,0,1,.29-1.52,1.09,1.09,0,1,1,1.24,1.79,1.07,1.07,0,0,1-1.53-.27m114.56-2.29A1.09,1.09,0,0,1,130,77a1.11,1.11,0,0,1-1,1.17H129a1.09,1.09,0,0,1-1.09-1M16.94,77a1.09,1.09,0,0,1,.35-1.5,1.09,1.09,0,0,1,1.17,1.84,1.06,1.06,0,0,1-.59.17,1.12,1.12,0,0,1-.93-.51m3.71-2.33a1.11,1.11,0,0,1,.37-1.5,1.09,1.09,0,0,1,1.5.37,1.08,1.08,0,0,1-.36,1.5,1.17,1.17,0,0,1-.57.16,1.11,1.11,0,0,1-.94-.53m106.88-1.89a1.1,1.1,0,1,1,1.19,1h-.09a1.11,1.11,0,0,1-1.1-1M24.4,72.36a1.08,1.08,0,0,1,.36-1.5h0a1.09,1.09,0,1,1,1.15,1.86,1,1,0,0,1-.57.16,1.08,1.08,0,0,1-.93-.52m3.73-2.29a1.1,1.1,0,0,1,.36-1.5,1.09,1.09,0,0,1,1.14,1.86,1,1,0,0,1-.57.17,1.09,1.09,0,0,1-.93-.53m99.06-1.68a1.1,1.1,0,0,1,1-1.18,1.11,1.11,0,0,1,1.18,1,1.09,1.09,0,0,1-1,1.19h-.09a1.11,1.11,0,0,1-1.09-1m-95.33-.61a1.1,1.1,0,0,1,.36-1.51,1.09,1.09,0,0,1,1.15,1.86,1,1,0,0,1-.58.16,1.09,1.09,0,0,1-.93-.51m3.73-2.31a1.09,1.09,0,1,1,1.85-1.17,1.09,1.09,0,0,1-.35,1.5,1,1,0,0,1-.58.18,1.09,1.09,0,0,1-.92-.51M126.81,64a1.09,1.09,0,0,1,1-1.2A1.1,1.1,0,0,1,128,65h-.1a1.07,1.07,0,0,1-1.09-1m-87.52-.92a1.1,1.1,0,0,1,.33-1.51,1.09,1.09,0,0,1,1.17,1.85,1.08,1.08,0,0,1-1.5-.34M43,60.76a1.1,1.1,0,1,1,1.52.32,1.13,1.13,0,0,1-.6.18,1.1,1.1,0,0,1-.92-.5m83.42-1.08a1.09,1.09,0,1,1,1.19,1h-.12a1.08,1.08,0,0,1-1.07-1M46.64,58.36A1.12,1.12,0,0,1,47,56.84a1.1,1.1,0,1,1-.31,1.52m3.66-2.42a1.1,1.1,0,0,1,.29-1.51,1.09,1.09,0,0,1,1.52.3,1.11,1.11,0,0,1-.3,1.52,1.19,1.19,0,0,1-.61.17,1,1,0,0,1-.9-.48m75.62-.61a1.09,1.09,0,1,1,2.17-.25,1.11,1.11,0,0,1-1,1.21H127a1.09,1.09,0,0,1-1.09-1m-72-1.84a1.09,1.09,0,1,1,1.53.29,1.11,1.11,0,0,1-.63.19,1.07,1.07,0,0,1-.9-.48M125.41,51a1.1,1.1,0,0,1,1-1.23,1.09,1.09,0,0,1,.26,2.17h-.13a1.08,1.08,0,0,1-1.09-.94M57.55,51a1.1,1.1,0,1,1,.89.47,1.08,1.08,0,0,1-.89-.47m3.6-2.51A1.07,1.07,0,0,1,61.42,47a1.09,1.09,0,1,1,1.25,1.78A1,1,0,0,1,62,49a1.08,1.08,0,0,1-.89-.47m63.7-1.89a1.1,1.1,0,1,1,1.24.95H126a1.13,1.13,0,0,1-1.1-1M64.74,46A1.1,1.1,0,0,1,65,44.48a1.08,1.08,0,0,1,1.53.26,1.07,1.07,0,0,1-.26,1.51,1,1,0,0,1-.63.21,1,1,0,0,1-.88-.46m3.57-2.54a1.08,1.08,0,0,1,.24-1.53l.09-.06.09-.08A1.09,1.09,0,1,1,70,43.56h0a.33.33,0,0,1-.1.06l-.09.07a1.07,1.07,0,0,1-.64.21,1.05,1.05,0,0,1-.87-.45m56-1.16a1.08,1.08,0,0,1,.92-1.23,1.12,1.12,0,0,1,1.25.91v0a1.13,1.13,0,0,1-.93,1.24h-.16a1.1,1.1,0,0,1-1.08-.94M72,40.73a1.09,1.09,0,1,1,1.53.22,1.05,1.05,0,0,1-.66.22,1.08,1.08,0,0,1-.87-.44M123.6,38h0a1.09,1.09,0,1,1,1.25.92h-.17A1.11,1.11,0,0,1,123.6,38m-48.1.1a1.09,1.09,0,0,1,.19-1.53,1.07,1.07,0,0,1,1.53.18,1.09,1.09,0,0,1-.17,1.53,1.14,1.14,0,0,1-.69.23,1.08,1.08,0,0,1-.86-.41m3.42-2.74a1.09,1.09,0,0,1,1.68-1.4,1.11,1.11,0,0,1-.13,1.55,1.15,1.15,0,0,1-.7.25,1.11,1.11,0,0,1-.85-.4m44-1.67a1.08,1.08,0,0,1,.87-1.27,1.1,1.1,0,0,1,1.27.89h0a1.08,1.08,0,0,1-.9,1.26.52.52,0,0,1-.17,0,1.08,1.08,0,0,1-1.08-.9M82.27,32.51A1.09,1.09,0,0,1,82.36,31a1.1,1.1,0,0,1,1.46,1.65,1.2,1.2,0,0,1-.73.27,1.09,1.09,0,0,1-.82-.38m39.82-3.13a1.1,1.1,0,1,1,1.28.86.78.78,0,0,1-.21,0,1.11,1.11,0,0,1-1.07-.88m-36.55.22a1.08,1.08,0,0,1,0-1.54,1.09,1.09,0,1,1,1.5,1.59,1.09,1.09,0,0,1-.74.29,1.1,1.1,0,0,1-.8-.34m3.16-3A1.09,1.09,0,1,1,90.24,25a1.07,1.07,0,0,1,0,1.54,1,1,0,0,1-.77.32,1.07,1.07,0,0,1-.77-.32m32.51-1.47a1.11,1.11,0,0,1,.83-1.3,1.09,1.09,0,1,1,.47,2.13.85.85,0,0,1-.23,0,1.11,1.11,0,0,1-1.07-.86M91.76,23.44a1.09,1.09,0,1,1,1.54-.06,1.11,1.11,0,0,1-.8.35,1.13,1.13,0,0,1-.74-.29m28.46-2.58a1.1,1.1,0,1,1,1.33.79.82.82,0,0,1-.26,0,1.1,1.1,0,0,1-1.07-.83m-25.54-.67a1.11,1.11,0,0,1-.13-1.54,1.09,1.09,0,0,1,1.55-.13,1.09,1.09,0,0,1-.72,1.92,1.06,1.06,0,0,1-.7-.25m24.42-3.54a1.1,1.1,0,0,1,.76-1.35,1.1,1.1,0,0,1,.6,2.11,1.15,1.15,0,0,1-.31,0,1.12,1.12,0,0,1-1.05-.8m-21.63.16a1.1,1.1,0,1,1,1.33-1.75,1.1,1.1,0,0,1-.68,2,1,1,0,0,1-.65-.22m2.61-3.52a1.1,1.1,0,0,1-.3-1.52,1.08,1.08,0,0,1,1.52-.29,1.09,1.09,0,0,1,.29,1.51,1.11,1.11,0,0,1-.9.49,1,1,0,0,1-.61-.19m17.72-.76a1.09,1.09,0,1,1,1.39.67,1.07,1.07,0,0,1-.35.06,1.1,1.1,0,0,1-1-.73m-15.3-2.9a1.07,1.07,0,0,1-.37-1.5,1.1,1.1,0,0,1,1.5-.36,1.11,1.11,0,0,1,.37,1.5,1.09,1.09,0,0,1-.94.52.94.94,0,0,1-.56-.16m13.73-1.11a1.09,1.09,0,0,1,2-.89,1.11,1.11,0,0,1-.54,1.45,1.08,1.08,0,0,1-.45.1,1.11,1.11,0,0,1-1-.66M104.74,5.89a1.13,1.13,0,0,1-.37-1.52,1.1,1.1,0,0,1,1.5-.36,1.09,1.09,0,0,1,.38,1.5,1.1,1.1,0,0,1-1,.52,1.19,1.19,0,0,1-.56-.14m9.51-1h0a1.09,1.09,0,1,1,1.8-1.24,1.11,1.11,0,0,1-.28,1.53,1.17,1.17,0,0,1-.62.18,1.06,1.06,0,0,1-.9-.47m-7.17-2.69a1.08,1.08,0,0,1,.19-1.53,1.08,1.08,0,0,1,1.53.19,1.08,1.08,0,0,1-.19,1.53,1,1,0,0,1-.67.23,1.12,1.12,0,0,1-.86-.42m4.5.08h0a1.1,1.1,0,0,1,.94-2A1.09,1.09,0,0,1,113,1.72a1.11,1.11,0,0,1-1,.63,1.45,1.45,0,0,1-.47-.11" transform="translate(0 -0.16)"/><path class="cls-3" d="M110.08,156.63h0a1.11,1.11,0,1,1,.47.1,1.12,1.12,0,0,1-.47-.11m3.7-.67a1.09,1.09,0,1,1,1.53.19h0a1.11,1.11,0,0,1-1.53-.2m-7.42-2.22a1.09,1.09,0,0,1,1.55-1.54,1.12,1.12,0,0,1,0,1.56,1.15,1.15,0,0,1-.77.3,1,1,0,0,1-.77-.32M117,153a1.08,1.08,0,0,1-.22-1.53h0a1.09,1.09,0,0,1,1.53-.23,1.07,1.07,0,0,1,.23,1.53,1,1,0,0,1-.87.43,1.18,1.18,0,0,1-.65-.2m-13.58-2.64v0a1.11,1.11,0,0,1,.16-1.55,1.09,1.09,0,0,1,1.53.17,1.08,1.08,0,0,1-.16,1.52,1,1,0,0,1-.69.25,1,1,0,0,1-.84-.41m16-1a1.08,1.08,0,1,1,.51.13,1,1,0,0,1-.51-.13m-18.73-2.46,0,0a1.09,1.09,0,1,1,1.55.22,1.14,1.14,0,0,1-.67.22,1.09,1.09,0,0,1-.86-.42m20.67-1.46a1.09,1.09,0,1,1,1.43-.58,1.08,1.08,0,0,1-1,.67,1.1,1.1,0,0,1-.42-.09m-23.31-2.07a1.09,1.09,0,1,1,1.75-1.29,1.09,1.09,0,1,1-1.75,1.29m24.93-2a1.11,1.11,0,0,1-.69-1.39h0a1.09,1.09,0,0,1,1.4-.68,1.07,1.07,0,0,1,.67,1.38,1.11,1.11,0,0,1-1,.75,1,1,0,0,1-.35-.07m-27.55-1.49h0a1.1,1.1,0,0,1,.22-1.53A1.09,1.09,0,1,1,97,140.09a1.07,1.07,0,0,1-.66.22,1.13,1.13,0,0,1-.87-.43m28.92-2.67a1.08,1.08,0,0,1-.75-1.35h0a1.09,1.09,0,0,1,1.35-.75,1.09,1.09,0,0,1-.3,2.14.92.92,0,0,1-.29,0m-31.56-.82a1.09,1.09,0,0,1,.19-1.53,1.12,1.12,0,0,1,1.55.21,1.1,1.1,0,0,1-.21,1.53,1.17,1.17,0,0,1-.67.22,1.08,1.08,0,0,1-.86-.43M90.1,133a1.12,1.12,0,1,1,.86.4,1.1,1.1,0,0,1-.86-.4m35.41,0a1.1,1.1,0,0,1-.79-1.33h0a1.09,1.09,0,1,1,2.12.53h0a1.12,1.12,0,0,1-1.08.83,1.38,1.38,0,0,1-.26,0m-38.15-3.41a1.1,1.1,0,1,1,1.69-1.4,1.1,1.1,0,0,1-.15,1.54,1.13,1.13,0,0,1-.7.25,1.11,1.11,0,0,1-.84-.39m39.18-.85a1.1,1.1,0,0,1-.84-1.3h0a1.08,1.08,0,0,1,1.29-.84,1.1,1.1,0,0,1-.23,2.17,1.05,1.05,0,0,1-.24,0m-42-2.49a1.08,1.08,0,0,1,.11-1.53,1.09,1.09,0,1,1-.11,1.53m42.9-1.79a1.1,1.1,0,0,1-.88-1.28,1.09,1.09,0,1,1,2.15.41h0a1.1,1.1,0,0,1-1.08.88h-.2M81.68,123a1.08,1.08,0,0,1,.07-1.54,1.09,1.09,0,1,1,1.47,1.61,1.12,1.12,0,0,1-.74.28,1,1,0,0,1-.8-.35m46.55-2.85a1.1,1.1,0,1,1,1.27-.91,1.1,1.1,0,0,1-1.08.92h-.19m-49.52-.34a1.09,1.09,0,1,1,1.54,0,1,1,0,0,1-.74.31,1.14,1.14,0,0,1-.8-.34m-3-3.12a1.08,1.08,0,0,1,0-1.54,1.1,1.1,0,0,1,1.54,0,1.08,1.08,0,0,1,0,1.54,1.11,1.11,0,0,1-.79.33,1,1,0,0,1-.75-.33m53.25-.87a1.09,1.09,0,0,1-.91-1.24,1.07,1.07,0,0,1,1.23-.91,1.09,1.09,0,0,1,.94,1.23,1.12,1.12,0,0,1-1.1.93h-.16m-56.39-2.14a1.1,1.1,0,0,1,0-1.55,1.09,1.09,0,0,1,1.54,0,1.1,1.1,0,0,1,0,1.55,1.17,1.17,0,0,1-.8.33,1.07,1.07,0,0,1-.75-.29m57-2.2a1.09,1.09,0,1,1,1.22-.93,1.08,1.08,0,0,1-1.08.94h-.14m-60.22-.73a1.08,1.08,0,0,1-.09-1.54,1.06,1.06,0,0,1,1.53-.09,1.09,1.09,0,0,1,.1,1.54,1.12,1.12,0,0,1-.83.37,1.1,1.1,0,0,1-.71-.28m-3.29-2.84a1.09,1.09,0,1,1,1.53-.13,1.11,1.11,0,0,1-.83.39,1,1,0,0,1-.7-.26m64.05-.77a1.07,1.07,0,1,1,.13,0h-.13m-67.43-1.95h0A1.09,1.09,0,0,1,64,103.46,1.08,1.08,0,0,1,64.2,105a1.1,1.1,0,0,1-.86.42,1,1,0,0,1-.67-.23m67.91-2.41a1.09,1.09,0,1,1,1.19-1,1.1,1.1,0,0,1-1.09,1l-.1,0m-71.38-.2h0A1.09,1.09,0,0,1,59,101a1.11,1.11,0,0,1,1.53-.25,1.1,1.1,0,0,1,.25,1.53,1.12,1.12,0,0,1-.89.45,1.08,1.08,0,0,1-.64-.2m-3.55-2.49a1.09,1.09,0,1,1,1.51-.29,1.08,1.08,0,0,1-1.51.29M131,98.42a1.09,1.09,0,0,1-1-1.18,1.09,1.09,0,1,1,2.18.17v0a1.11,1.11,0,0,1-1.09,1Zm-79-.7a1.09,1.09,0,0,1-.35-1.5,1.1,1.1,0,0,1,1.51-.35,1.1,1.1,0,0,1-.57,2,1,1,0,0,1-.59-.17m-3.71-2.23h0a1.12,1.12,0,0,1-.41-1.5,1.1,1.1,0,0,1,1.5-.4,1.1,1.1,0,0,1-.55,2,1.14,1.14,0,0,1-.54-.14m83.06-1.44a1.1,1.1,0,0,1-1-1.17,1.09,1.09,0,0,1,1.18-1,1.08,1.08,0,0,1,1,1.16,1.11,1.11,0,0,1-1.09,1Zm-86.86-.69a1.08,1.08,0,0,1-.44-1.47,1.09,1.09,0,1,1,1,1.6,1.11,1.11,0,0,1-.52-.13m-3.85-2a1.09,1.09,0,0,1-.49-1.46,1.12,1.12,0,0,1,1.47-.49,1.09,1.09,0,0,1-.5,2.07,1,1,0,0,1-.48-.12m91-1.67a1.1,1.1,0,1,1,1.17-1,1.12,1.12,0,0,1-1.09,1Zm-94.92-.22h0a1.11,1.11,0,1,1,.47.1,1.1,1.1,0,0,1-.47-.1m-4-1.81a1.09,1.09,0,1,1,1.44-.55,1.06,1.06,0,0,1-1,.64,1.17,1.17,0,0,1-.45-.09m-4-1.75h0a1.06,1.06,0,0,1-.58-1.42,1.09,1.09,0,1,1,1,1.51,1,1,0,0,1-.42-.09m103.12-.59a1.11,1.11,0,0,1-1-1.15h0a1.09,1.09,0,1,1,2.17.1,1.1,1.1,0,0,1-1.1,1ZM24.74,84.2a1.11,1.11,0,0,1-.59-1.44,1.09,1.09,0,0,1,1.44-.57,1.1,1.1,0,0,1-.43,2.1,1.1,1.1,0,0,1-.42-.09m-4-1.76A1.11,1.11,0,0,1,20.16,81a1.09,1.09,0,0,1,2,.9,1.05,1.05,0,0,1-1,.64,1.19,1.19,0,0,1-.45-.08m111.38-1.52A1.08,1.08,0,0,1,131,79.8h0a1.09,1.09,0,1,1,1.08,1.12ZM16.69,80.44a1.09,1.09,0,0,1,1.07-1.91,1.09,1.09,0,1,1-1.07,1.91m-3.78-2.75a1.09,1.09,0,1,1,1.58-1.5,1.08,1.08,0,0,1,0,1.54,1,1,0,0,1-.74.31,1.08,1.08,0,0,1-.8-.35m119.3-1.14a1.09,1.09,0,1,1,1.12-1.06,1.08,1.08,0,0,1-1.12,1.06Zm-120-2.62a1.11,1.11,0,0,1-.09-1.54,1.09,1.09,0,0,1,1.64,1.45,1.14,1.14,0,0,1-.82.37,1.12,1.12,0,0,1-.73-.28M132.3,72.17a1.09,1.09,0,0,1-1.09-1.09,1.11,1.11,0,0,1,1.1-1.1,1.1,1.1,0,0,1,0,2.19M15.69,71.35a1.09,1.09,0,1,1,2-.83A1.11,1.11,0,0,1,17.12,72a1.06,1.06,0,0,1-.43.08,1.09,1.09,0,0,1-1-.68m4.08-1.59A1.09,1.09,0,0,1,21.82,69a1.1,1.1,0,0,1-.65,1.4,1.31,1.31,0,0,1-.38.06,1.08,1.08,0,0,1-1-.72m4.12-1.47a1.09,1.09,0,1,1,1.38.67.85.85,0,0,1-.36.06,1.09,1.09,0,0,1-1-.73m107.33-1.58a1.11,1.11,0,0,1,1.09-1.1,1.08,1.08,0,0,1,1.1,1.08,1.09,1.09,0,0,1-1.08,1.11,1.11,1.11,0,0,1-1.11-1.09M28,66.82a1.09,1.09,0,1,1,2-.76,1.1,1.1,0,0,1-.64,1.4,1.05,1.05,0,0,1-1.4-.64m4.09-1.53a1.09,1.09,0,1,1,1.42.63.92.92,0,0,1-.4.07,1.1,1.1,0,0,1-1-.7m4.08-1.59a1.09,1.09,0,1,1,1.42.61,1.15,1.15,0,0,1-.41.08,1.11,1.11,0,0,1-1-.69m95-1.37a1.11,1.11,0,0,1,1.08-1.1,1.06,1.06,0,0,1,1.1,1.07,1.08,1.08,0,0,1-1.06,1.11h0a1.09,1.09,0,0,1-1.1-1.08m-91-.29a1.09,1.09,0,1,1,1.43.59,1.2,1.2,0,0,1-.42.08,1.1,1.1,0,0,1-1-.67m4-1.72a1.09,1.09,0,1,1,1.44.56,1.17,1.17,0,0,1-.44.08,1.07,1.07,0,0,1-1-.64m4-1.79a1.09,1.09,0,0,1,.52-1.46,1.11,1.11,0,0,1,1.46.54,1.1,1.1,0,0,1-.54,1.45,1.08,1.08,0,0,1-.45.1,1.11,1.11,0,0,1-1-.63M131.09,58a1.07,1.07,0,0,1,1-1.12,1.08,1.08,0,0,1,1.13,1A1.1,1.1,0,0,1,132.21,59h0A1.09,1.09,0,0,1,131.09,58M52.21,56.67a1.09,1.09,0,1,1,2-1,1.09,1.09,0,0,1-.51,1.46,1.2,1.2,0,0,1-.48.11,1.09,1.09,0,0,1-1-.62m3.93-1.93a1.07,1.07,0,0,1,.48-1.45,1.09,1.09,0,0,1,1.47.48,1.1,1.1,0,0,1-.49,1.47,1.17,1.17,0,0,1-.48.12,1.07,1.07,0,0,1-1-.62m74.79-1.13a1.09,1.09,0,0,1,1-1.14,1.07,1.07,0,0,1,1.13,1.05,1.09,1.09,0,0,1-1,1.14H132a1.1,1.1,0,0,1-1.08-1m-70.88-.85a1.07,1.07,0,0,1,.45-1.47,1.1,1.1,0,0,1,1,1.94,1,1,0,0,1-.51.13,1.07,1.07,0,0,1-1-.6m3.87-2a1.09,1.09,0,1,1,1.47.44,1.14,1.14,0,0,1-.51.13,1.09,1.09,0,0,1-1-.57m66.78-1.49h0a1.09,1.09,0,0,1,2.18-.13,1.11,1.11,0,0,1-1,1.17h-.08a1.09,1.09,0,0,1-1.07-1m-62.95-.61a1.1,1.1,0,0,1,.44-1.49,1.08,1.08,0,0,1,1.47.43,1.1,1.1,0,0,1-1,1.63,1.12,1.12,0,0,1-1-.57m3.82-2.14A1.11,1.11,0,0,1,72,45a1.12,1.12,0,0,1,1.51.41,1.1,1.1,0,0,1-.41,1.49,1.12,1.12,0,0,1-.55.14,1.1,1.1,0,0,1-1-.55m58.82-1.59a1.1,1.1,0,1,1,1.18,1h-.08a1.09,1.09,0,0,1-1.1-1m-55-.59a1.09,1.09,0,0,1,.38-1.51,1.1,1.1,0,0,1,1.11,1.9,1.14,1.14,0,0,1-.56.14,1.09,1.09,0,0,1-.93-.53m3.76-2.25a1.08,1.08,0,0,1,.36-1.5,1.1,1.1,0,1,1,.57,2,1.07,1.07,0,0,1-.93-.53M130,40.57a1.09,1.09,0,0,1,2.17-.22,1.1,1.1,0,0,1-1,1.2h-.12a1.08,1.08,0,0,1-1.08-1m-47.17-.79a1.09,1.09,0,1,1,1.52.34,1.11,1.11,0,0,1-.59.17,1.14,1.14,0,0,1-.93-.51m3.69-2.36a1.08,1.08,0,0,1,.32-1.51,1.09,1.09,0,0,1,1.51.32,1.08,1.08,0,0,1-.32,1.5,1,1,0,0,1-.59.19,1.13,1.13,0,0,1-.92-.5m43-1.18h0a1.09,1.09,0,1,1,1.21.95.3.3,0,0,1-.13,0,1.09,1.09,0,0,1-1.08-1M90.17,35A1.1,1.1,0,1,1,92,33.77a1.09,1.09,0,0,1-.28,1.51,1.16,1.16,0,0,1-.63.19,1.1,1.1,0,0,1-.9-.46m3.58-2.51a1.1,1.1,0,1,1,1.78-1.28,1.09,1.09,0,0,1-.25,1.53,1.08,1.08,0,0,1-.64.2,1.13,1.13,0,0,1-.89-.45M128.93,32a1.09,1.09,0,0,1,.91-1.26,1.12,1.12,0,0,1,1.25.91,1.09,1.09,0,0,1-.92,1.25.44.44,0,0,1-.16,0,1.08,1.08,0,0,1-1.08-.92m-31.64-2a1.09,1.09,0,1,1,1.53.21,1.12,1.12,0,0,1-.65.21,1.1,1.1,0,0,1-.88-.42m30.9-2.26h0a1.09,1.09,0,0,1,.86-1.28,1.1,1.1,0,0,1,1.28.88,1.07,1.07,0,0,1-.86,1.26.78.78,0,0,1-.22,0,1.09,1.09,0,0,1-1.06-.89m-27.43-.4a1.11,1.11,0,0,1,.16-1.55,1.1,1.1,0,1,1,.69,1.94,1.09,1.09,0,0,1-.85-.39m3.38-2.77a1.11,1.11,0,0,1,.12-1.55,1.1,1.1,0,0,1,1.54.12,1.11,1.11,0,0,1-.11,1.55,1.16,1.16,0,0,1-.72.26,1.11,1.11,0,0,1-.83-.38m23.1-1a1.09,1.09,0,0,1,.79-1.32,1.11,1.11,0,0,1,1.34.79,1.1,1.1,0,0,1-.8,1.32.82.82,0,0,1-.26,0,1.12,1.12,0,0,1-1.07-.83m-19.79-1.83a1.1,1.1,0,0,1,.06-1.55A1.09,1.09,0,1,1,109,21.68a1.13,1.13,0,0,1-.74.29,1.08,1.08,0,0,1-.8-.35M126,19.36h0a1.1,1.1,0,1,1,1.4.67,1.21,1.21,0,0,1-.37.07,1.11,1.11,0,0,1-1-.73m-15.37-.73a1.09,1.09,0,1,1,1.57-1.51,1.1,1.1,0,0,1,0,1.54,1.16,1.16,0,0,1-.76.31,1.08,1.08,0,0,1-.79-.34m13.68-3.09a1.07,1.07,0,0,1,.39-1.48,1.09,1.09,0,1,1,1.11,1.88,1.07,1.07,0,0,1-.55.14,1.09,1.09,0,0,1-1-.54m-10.55.05a1.11,1.11,0,1,1,.79.33,1.09,1.09,0,0,1-.79-.33m3.21-3a1.09,1.09,0,1,1,1.48.39,1.07,1.07,0,0,1-.53.15,1.09,1.09,0,0,1-1-.54m4.88.3-.09,0a.32.32,0,0,0-.09,0,1.1,1.1,0,0,1,.83-2l.09,0,.12,0a1.1,1.1,0,0,1-.44,2.1,1,1,0,0,1-.42-.09" transform="translate(0 -0.16)"/><path class="cls-3" d="M98.44,157.75a1.09,1.09,0,1,1,1.39-.67,1.11,1.11,0,0,1-1,.74,1.15,1.15,0,0,1-.35-.07m3.59-.85a1.09,1.09,0,1,1,1.44.54.91.91,0,0,1-.45.11,1.1,1.1,0,0,1-1-.65M94.48,155h0a1.09,1.09,0,0,1,0-1.54,1.07,1.07,0,0,1,1.54,0,1.09,1.09,0,0,1,0,1.54,1.06,1.06,0,0,1-.76.31,1.09,1.09,0,0,1-.79-.32m11.26-.38a1.07,1.07,0,0,1,.12-1.53,1.09,1.09,0,1,1,1.41,1.65h0a1.18,1.18,0,0,1-.72.26,1.08,1.08,0,0,1-.83-.38m3.21-2.93a1.09,1.09,0,1,1,1.48-1.6,1.09,1.09,0,0,1-.74,1.89,1.13,1.13,0,0,1-.74-.29m-17.32-.19a1.09,1.09,0,1,1,1.77-1.26,1.07,1.07,0,0,1-.26,1.51,1,1,0,0,1-.63.21,1.06,1.06,0,0,1-.88-.46m20.2-3.07a1.09,1.09,0,1,1,1.53-.2,1.12,1.12,0,0,1-.86.42,1.1,1.1,0,0,1-.67-.22m-22.64-.62a1.1,1.1,0,0,1,1.87-1.16,1.11,1.11,0,0,1-.37,1.5,1,1,0,0,1-.56.16,1.1,1.1,0,0,1-.94-.5M114.43,145a1.08,1.08,0,0,1-.31-1.52,1.07,1.07,0,0,1,1.51-.31,1.09,1.09,0,0,1,.31,1.52,1.11,1.11,0,0,1-.92.48,1.18,1.18,0,0,1-.59-.17M87,144.06a1.09,1.09,0,0,1,1.9-1.08,1.08,1.08,0,0,1-.4,1.48,1,1,0,0,1-.54.15,1.09,1.09,0,0,1-1-.55m29.82-2.76a1.1,1.1,0,0,1,1.11-1.89,1.1,1.1,0,0,1,.39,1.5v0a1.08,1.08,0,0,1-1,.56,1.19,1.19,0,0,1-.55-.15m-32-1a1.08,1.08,0,0,1,.41-1.49,1.11,1.11,0,0,1,1.5.41,1.1,1.1,0,0,1-.43,1.49,1,1,0,0,1-.53.14,1.08,1.08,0,0,1-1-.55m34.1-2.77a1.09,1.09,0,1,1,1.47-.46,1.09,1.09,0,0,1-1,.59,1,1,0,0,1-.5-.13m-36.23-1.05a1.09,1.09,0,1,1,1.49.43,1.09,1.09,0,0,1-1.49-.43m38.19-2.84a1.06,1.06,0,1,1,.46.11.92.92,0,0,1-.46-.11m-40.31-.94a1.09,1.09,0,1,1,1.89-1.08,1.07,1.07,0,0,1-.41,1.48,1,1,0,0,1-.54.15,1.1,1.1,0,0,1-.94-.55m42.11-3a1.07,1.07,0,0,1-.58-1.43,1.09,1.09,0,0,1,1.43-.59,1.09,1.09,0,0,1-.43,2.1,1.2,1.2,0,0,1-.42-.08m-44.27-.75h0a1.09,1.09,0,1,1,1.89-1.09,1.07,1.07,0,0,1-.4,1.48.94.94,0,0,1-.54.15,1.09,1.09,0,0,1-.95-.54m45.92-3.27a1.09,1.09,0,1,1,.39.07,1.34,1.34,0,0,1-.39-.07m-48.11-.49a1.09,1.09,0,1,1,1.88-1.1,1.08,1.08,0,0,1-.37,1.48,1,1,0,0,1-.57.16,1.09,1.09,0,0,1-.94-.54M74,121.42a1.1,1.1,0,0,1,.37-1.5,1.09,1.09,0,1,1,1.13,1.86,1,1,0,0,1-.57.16,1.11,1.11,0,0,1-.93-.52m51.88.1a1.07,1.07,0,0,1-.67-1.38,1.09,1.09,0,0,1,2.06.71v0a1.11,1.11,0,0,1-1,.72,1.1,1.1,0,0,1-.36-.07m-54.16-3.79a1.07,1.07,0,0,1,.33-1.5,1.1,1.1,0,0,1,1.52.34,1.09,1.09,0,0,1-.36,1.5,1,1,0,0,1-.58.17,1,1,0,0,1-.91-.51m55.57-.33a1.09,1.09,0,1,1,1.38-.7,1.1,1.1,0,0,1-1,.76,1.05,1.05,0,0,1-.33-.06m-57.93-3.31h0a1.09,1.09,0,0,1,.32-1.51,1.08,1.08,0,0,1,1.51.32,1.07,1.07,0,0,1-.32,1.5,1,1,0,0,1-.6.19,1.1,1.1,0,0,1-.91-.5m59.24-.84a1.1,1.1,0,1,1,1.37-.75v0a1.09,1.09,0,0,1-1.05.77,1.17,1.17,0,0,1-.32,0m-61.65-2.76a1.09,1.09,0,1,1,1.52.28,1.12,1.12,0,0,1-.63.2,1.08,1.08,0,0,1-.89-.48m62.88-1.42a1.11,1.11,0,1,1,.29,0,2.16,2.16,0,0,1-.29,0m-65.37-2.13a1.09,1.09,0,1,1,1.53.26,1.22,1.22,0,0,1-.64.21,1.11,1.11,0,0,1-.89-.47m66.48-2.08a1.09,1.09,0,0,1-.78-1.33,1.07,1.07,0,0,1,1.32-.8,1.09,1.09,0,0,1,.79,1.33,1.11,1.11,0,0,1-1.06.83,2.48,2.48,0,0,1-.27,0M61.85,103.5A1.11,1.11,0,0,1,62,102a1.09,1.09,0,1,1,1.34,1.72,1,1,0,0,1-.67.23,1.14,1.14,0,0,1-.86-.41M132,100.6a1.09,1.09,0,0,1-.83-1.31,1.1,1.1,0,1,1,1.07,1.34.66.66,0,0,1-.24,0m-72.85-.42h0a1.09,1.09,0,1,1,1.65-1.43,1.11,1.11,0,0,1-.1,1.55,1.19,1.19,0,0,1-.73.26,1.11,1.11,0,0,1-.82-.38M56.21,97h0a1.1,1.1,0,0,1,0-1.55,1.12,1.12,0,0,1,1.56,0,1.1,1.1,0,0,1,0,1.54,1.07,1.07,0,0,1-.76.31,1.09,1.09,0,0,1-.79-.35m76.71-.64a1.09,1.09,0,1,1,1.3-.85,1.1,1.1,0,0,1-1.08.88l-.22,0M53.17,94a1.1,1.1,0,1,1,1.54,0,1.05,1.05,0,0,1-.78.33,1.13,1.13,0,0,1-.76-.3m80.63-1.87a1,1,0,1,1,.22,0,1.46,1.46,0,0,1-.22,0M50,91a1.09,1.09,0,1,1,1.54-.09A1.11,1.11,0,0,1,50,91m-3.28-2.81a1.1,1.1,0,0,1-.14-1.55,1.11,1.11,0,0,1,1.54-.14,1.09,1.09,0,0,1,.14,1.54,1.08,1.08,0,0,1-.84.39,1.06,1.06,0,0,1-.7-.24m87.88-.4a1.09,1.09,0,1,1,1.27-.89,1.1,1.1,0,0,1-1.08.91.65.65,0,0,1-.19,0m-91.26-2.3a1.09,1.09,0,1,1,1.53-.2,1.09,1.09,0,0,1-.86.42,1.12,1.12,0,0,1-.67-.22m92-2a1.1,1.1,0,0,1-.9-1.26,1.08,1.08,0,0,1,1.25-.9,1.1,1.1,0,0,1,.91,1.24,1.11,1.11,0,0,1-1.08.93h-.18m-95.46-.6a1.11,1.11,0,0,1-.23-1.53,1.09,1.09,0,0,1,1.53-.23,1.06,1.06,0,0,1,.23,1.51,1,1,0,0,1-.89.45,1.14,1.14,0,0,1-.64-.2m-3.52-2.49a1.1,1.1,0,0,1,1.24-1.81,1.11,1.11,0,0,1,.28,1.52,1.09,1.09,0,0,1-.91.48,1,1,0,0,1-.61-.19M136,79.2a1.09,1.09,0,1,1,.31-2.15,1.06,1.06,0,0,1,.92,1.22h0a1.11,1.11,0,0,1-1.09,1,.41.41,0,0,1-.15,0M32.76,78A1.09,1.09,0,0,1,34,76.17a1.1,1.1,0,0,1,.32,1.52,1.12,1.12,0,0,1-.92.49,1,1,0,0,1-.6-.19m-3.64-2.37a1.1,1.1,0,0,1-.34-1.5,1.11,1.11,0,0,1,1.52-.34,1.1,1.1,0,0,1,.33,1.52,1.12,1.12,0,0,1-.93.5,1,1,0,0,1-.58-.18m107.48-.73a1.11,1.11,0,0,1-.95-1.22,1.1,1.1,0,0,1,1.22-1,1.08,1.08,0,0,1,.95,1.21,1.1,1.1,0,0,1-1.09,1ZM25.45,73.26a1.07,1.07,0,0,1-.32-1.5,1.09,1.09,0,0,1,1.51-.33,1.09,1.09,0,0,1-.6,2,1,1,0,0,1-.59-.17m-3.66-2.42a1.09,1.09,0,1,1,1.52-.28,1.05,1.05,0,0,1-1.52.28m115.33-.29a1.09,1.09,0,0,1-1-1.19,1.1,1.1,0,0,1,1.21-1,1.09,1.09,0,0,1-.11,2.18h-.12M18.21,68.18a1.11,1.11,0,0,1-.13-1.55A1.09,1.09,0,0,1,19.75,68a1.06,1.06,0,0,1-.84.4,1.08,1.08,0,0,1-.7-.26m119.35-2a1.14,1.14,0,1,1,.09,0Zm-122.32-2a1.07,1.07,0,0,1,.81-1.3A1.09,1.09,0,1,1,16.53,65l-.23,0a1.07,1.07,0,0,1-1.06-.86m3-2.27a1.09,1.09,0,1,1,2.15-.37,1.1,1.1,0,0,1-.9,1.27h-.18a1.08,1.08,0,0,1-1.07-.91m4.31-.6a1.07,1.07,0,0,1,1-1.2,1.1,1.1,0,0,1,.22,2.18h-.11a1.06,1.06,0,0,1-1.08-1m115.34.54a1.08,1.08,0,0,1-1-1.17,1.1,1.1,0,0,1,2.19.16,1.12,1.12,0,0,1-1.1,1h-.07m-111-1a1.1,1.1,0,1,1,2.18-.23,1.07,1.07,0,0,1-1,1.19l-.13,0a1.1,1.1,0,0,1-1.08-1m4.33-.49a1.11,1.11,0,0,1,.95-1.23h0a1.09,1.09,0,0,1,.27,2.17h-.14a1.09,1.09,0,0,1-1.08-.94m4.31-.61a1.09,1.09,0,1,1,2.16-.34,1.08,1.08,0,0,1-.9,1.24h-.18a1.1,1.1,0,0,1-1.08-.91m4.3-.72a1.1,1.1,0,0,1,.87-1.28,1.09,1.09,0,0,1,1.27.87,1.07,1.07,0,0,1-.86,1.27l-.21,0a1.08,1.08,0,0,1-1.07-.89m4.27-.84a1.1,1.1,0,1,1,2.14-.47,1.11,1.11,0,0,1-.85,1.3,1.43,1.43,0,0,1-.23,0,1.1,1.1,0,0,1-1.06-.86m4.24-1a1.11,1.11,0,0,1,.8-1.32,1.09,1.09,0,1,1,.53,2.11.83.83,0,0,1-.27,0,1.1,1.1,0,0,1-1.06-.82m89.85.27a1.1,1.1,0,1,1,.1-2.19,1.1,1.1,0,0,1-.06,2.19ZM52.57,56.19a1.11,1.11,0,0,1,.76-1.36A1.1,1.1,0,1,1,53.91,57a1.35,1.35,0,0,1-.29,0,1.09,1.09,0,0,1-1-.8m4.2-1.2a1.09,1.09,0,0,1,.71-1.37,1.11,1.11,0,0,1,1.37.73,1.09,1.09,0,0,1-.73,1.37,1.08,1.08,0,0,1-.32,0,1.07,1.07,0,0,1-1-.77m4.15-1.29a1.11,1.11,0,0,1,.68-1.39,1.1,1.1,0,0,1,.7,2.09,1.34,1.34,0,0,1-.35,0,1.09,1.09,0,0,1-1-.74m77.45-.53a1.09,1.09,0,1,1,.06-2.18,1.1,1.1,0,0,1,1.07,1.12,1.12,1.12,0,0,1-1.1,1.06ZM65,52.3a1.09,1.09,0,0,1,.66-1.4,1.11,1.11,0,0,1,1.4.67,1.1,1.1,0,0,1-.66,1.4,1.18,1.18,0,0,1-.36.06,1.1,1.1,0,0,1-1-.73m4.1-1.49a1.09,1.09,0,0,1,.62-1.41,1.09,1.09,0,0,1,.79,2,.9.9,0,0,1-.39.07,1.07,1.07,0,0,1-1-.7m4.06-1.57a1.09,1.09,0,1,1,2-.83,1.1,1.1,0,0,1-.6,1.43,1.12,1.12,0,0,1-.4.07,1.06,1.06,0,0,1-1-.67m64.15-1.52a1.1,1.1,0,0,1,2.19,0,1.1,1.1,0,1,1-2.19,0m-60.13-.16a1.08,1.08,0,0,1,2-.86,1.1,1.1,0,0,1-.56,1.45,1.12,1.12,0,0,1-.43.08,1.07,1.07,0,0,1-1-.67m4-1.73a1.1,1.1,0,0,1,.54-1.46,1.1,1.1,0,0,1,.9,2,1.18,1.18,0,0,1-.45.1,1.1,1.1,0,0,1-1-.64m4-1.82a1.09,1.09,0,0,1,.52-1.44v0a1.11,1.11,0,0,1,1.46.54,1.08,1.08,0,0,1-.52,1.44,1,1,0,0,1-.47.11,1.11,1.11,0,0,1-1-.63m52.11-.61a1.1,1.1,0,0,1,1.06-1.13,1.07,1.07,0,0,1,1.12,1,1.09,1.09,0,0,1-1,1.13h0a1.09,1.09,0,0,1-1.09-1.06M89.11,42.16a1.1,1.1,0,0,1,.51-1.46,1.1,1.1,0,0,1,.94,2,1,1,0,0,1-.46.11,1.1,1.1,0,0,1-1-.63M93,40.28a1.09,1.09,0,1,1,2-1,1.1,1.1,0,0,1-.51,1.46,1,1,0,0,1-.48.11,1.08,1.08,0,0,1-1-.61m44-1.18h0a1.1,1.1,0,0,1,1-1.18,1.12,1.12,0,0,1,1.18,1,1.11,1.11,0,0,1-1,1.19h-.09a1.11,1.11,0,0,1-1.09-1m-40.1-.74a1.09,1.09,0,1,1,1.95-1,1.09,1.09,0,0,1-.48,1.47,1.21,1.21,0,0,1-.5.1,1.08,1.08,0,0,1-1-.59m3.89-2a1.09,1.09,0,1,1,1.47.48,1.27,1.27,0,0,1-.51.12,1.08,1.08,0,0,1-1-.6m35.78-1.56a1.08,1.08,0,1,1,2.15-.29,1.07,1.07,0,0,1-.93,1.22l-.14,0a1.1,1.1,0,0,1-1.08-1m-31.92-.44a1.1,1.1,0,1,1,1.47.46h0a1.2,1.2,0,0,1-.5.13,1.12,1.12,0,0,1-1-.59m3.84-2a1.09,1.09,0,1,1,1.49.44h0a1.11,1.11,0,0,1-.52.13,1.1,1.1,0,0,1-1-.58m27.33-1.7a1.09,1.09,0,0,1,.83-1.31,1.09,1.09,0,0,1,.48,2.12.66.66,0,0,1-.24,0,1.09,1.09,0,0,1-1.07-.84m-23.51-.38a1.09,1.09,0,1,1,1.49.42,1.07,1.07,0,0,1-.53.15,1.11,1.11,0,0,1-1-.57m3.8-2.13a1.09,1.09,0,0,1,1.9-1.08,1.11,1.11,0,0,1-.41,1.5,1.17,1.17,0,0,1-.54.14,1.08,1.08,0,0,1-1-.56m18.49-1.47h0a1.1,1.1,0,0,1,.58-1.43,1.09,1.09,0,0,1,.86,2,1.12,1.12,0,0,1-.44.09,1.08,1.08,0,0,1-1-.67M119.93,26a1.09,1.09,0,1,1,1.49.42,1.07,1.07,0,0,1-1.49-.42m3.82-2.1a1.06,1.06,0,0,1,.49-1.45,1.08,1.08,0,0,1,1.46.49,1.1,1.1,0,0,1-.5,1.47,1.17,1.17,0,0,1-.48.12,1.08,1.08,0,0,1-1-.63m8.77-.16h0a.11.11,0,0,1-.05,0,.09.09,0,0,1-.06,0h0a1.09,1.09,0,0,1-.39-1.49,1.12,1.12,0,0,1,1.5-.41v0a.11.11,0,0,1,.06,0l.08.06a1.07,1.07,0,0,1,.37,1.5,1.1,1.1,0,0,1-.93.52,1.23,1.23,0,0,1-.57-.16m-4.81-1.63a1.08,1.08,0,0,1,.89-1.25h0a1.08,1.08,0,0,1,1.27.87A1.09,1.09,0,0,1,129,23h-.21a1.07,1.07,0,0,1-1.06-.9" transform="translate(0 -0.16)"/><path class="cls-3" d="M87.61,158.32a1.09,1.09,0,1,1,2.18-.15,1.1,1.1,0,0,1-1,1.17H88.7a1.09,1.09,0,0,1-1.09-1M84,157.81h0a1.09,1.09,0,0,1,1.35-1.72A1.09,1.09,0,0,1,84,157.81m7.87-.42a1.11,1.11,0,1,1,1,.55,1.07,1.07,0,0,1-1-.55m3.68-2.33a1.11,1.11,0,0,1,.22-1.54,1.1,1.1,0,0,1,1.53.22,1.08,1.08,0,0,1-.22,1.53,1.05,1.05,0,0,1-.66.22,1.1,1.1,0,0,1-.87-.43m-14.59-.85a1.09,1.09,0,1,1,1.51.35,1,1,0,0,1-.58.16,1.09,1.09,0,0,1-.93-.51m18-1.84a1.09,1.09,0,0,1,1.67-1.41A1.09,1.09,0,0,1,99,152.37M78.87,150.2a1.09,1.09,0,0,1,.55-1.44,1.09,1.09,0,0,1,.89,2,1.17,1.17,0,0,1-.45.09,1.07,1.07,0,0,1-1-.65m23.41-.7a1.09,1.09,0,0,1,1.58-1.51,1.09,1.09,0,0,1,0,1.54,1.07,1.07,0,0,1-.76.31,1.09,1.09,0,0,1-.78-.34m-25.1-3.39a1.1,1.1,0,0,1,.64-1.41,1.08,1.08,0,0,1,1.41.62,1.11,1.11,0,0,1-.64,1.42,1.33,1.33,0,0,1-.38.07,1.12,1.12,0,0,1-1-.7m28.23.34a1.1,1.1,0,1,1,.75.3,1.07,1.07,0,0,1-.75-.3m3-3.19a1.11,1.11,0,0,1-.1-1.55,1.07,1.07,0,0,1,1.54-.11,1.1,1.1,0,0,1-.73,1.92,1.11,1.11,0,0,1-.71-.26M75.69,142h0a1.09,1.09,0,0,1,.67-1.39,1.09,1.09,0,1,1,.71,2.07,1.35,1.35,0,0,1-.34.06,1.11,1.11,0,0,1-1-.74m35.53-2a1.08,1.08,0,0,1-.17-1.53,1.09,1.09,0,0,1,1.7,1.35,1.1,1.1,0,0,1-.86.43,1.07,1.07,0,0,1-.67-.25m-36.93-2.11a1.09,1.09,0,1,1,1.37.7,1.75,1.75,0,0,1-.33,0,1.09,1.09,0,0,1-1-.74m39.63-1.33a1.09,1.09,0,1,1,1.29-1.76,1.1,1.1,0,0,1,.23,1.53,1.08,1.08,0,0,1-.88.43,1,1,0,0,1-.64-.2m-41-2.84v0a1.11,1.11,0,0,1,.72-1.39A1.08,1.08,0,0,1,75,133a1.09,1.09,0,0,1-.69,1.38,1.47,1.47,0,0,1-.34.05,1.11,1.11,0,0,1-1-.76m43.56-.7a1.09,1.09,0,0,1-.29-1.51v0a1.11,1.11,0,0,1,1.53-.27,1.1,1.1,0,0,1-.63,2,1.09,1.09,0,0,1-.61-.19m-44.9-3.45a1.08,1.08,0,0,1,.7-1.37,1.09,1.09,0,0,1,.67,2.07.92.92,0,0,1-.33.06,1.08,1.08,0,0,1-1-.76m47.35-.18a1.1,1.1,0,0,1-.34-1.51,1.09,1.09,0,1,1,1.83,1.18,1.06,1.06,0,0,1-.91.51,1,1,0,0,1-.58-.18m-48.7-4a1.06,1.06,0,0,1,.7-1.37,1.08,1.08,0,0,1,1.37.7v0a1.1,1.1,0,0,1-.69,1.39,1.06,1.06,0,0,1-.35,0,1.08,1.08,0,0,1-1-.75m51,.27a1.11,1.11,0,0,1-.38-1.5,1.09,1.09,0,0,1,1.5-.37,1.07,1.07,0,0,1,.38,1.49,1.11,1.11,0,0,1-1.5.38m2.22-3.77a1.07,1.07,0,0,1-.41-1.48,1.09,1.09,0,1,1,1.91,1.06,1.14,1.14,0,0,1-1,.57,1.07,1.07,0,0,1-.53-.15m-54.62-.64a1.1,1.1,0,0,1,2.09-.7,1.08,1.08,0,0,1-.7,1.38.89.89,0,0,1-.35.06,1.12,1.12,0,0,1-1-.74M125.58,118a1.09,1.09,0,1,1,1-1.94,1.09,1.09,0,0,1-.51,2.06,1.31,1.31,0,0,1-.5-.12m-58.13-.93h0a1.09,1.09,0,1,1,2.06-.72,1.11,1.11,0,0,1-.68,1.39,1.07,1.07,0,0,1-.35.06,1.09,1.09,0,0,1-1-.73m60.13-3a1.08,1.08,0,1,1,.48.12,1.21,1.21,0,0,1-.48-.12M66,113a1.1,1.1,0,1,1,1.4.66.91.91,0,0,1-.36.06,1.1,1.1,0,0,1-1-.72m63.49-2.77a1.13,1.13,0,0,1-.53-1.46,1.09,1.09,0,1,1,.53,1.46m-65-1.33a1.1,1.1,0,1,1,2.06-.75,1.09,1.09,0,0,1-.66,1.39,1,1,0,0,1-.38.08,1.1,1.1,0,0,1-1-.72m66.78-2.65a1.11,1.11,0,0,1-.57-1.44,1.09,1.09,0,0,1,1.44-.55,1.08,1.08,0,0,1-.43,2.08,1.12,1.12,0,0,1-.44-.09M63,104.8a1.09,1.09,0,1,1,1.43.61,1.47,1.47,0,0,1-.41.07,1.11,1.11,0,0,1-1-.68m70-2.61a1.08,1.08,0,0,1-.6-1.41v0a1.12,1.12,0,0,1,1.43-.6,1.1,1.1,0,0,1,.6,1.43,1.12,1.12,0,0,1-1,.69,1,1,0,0,1-.42-.09m-71.76-1.32a1.09,1.09,0,1,1,1.46.5,1,1,0,0,1-.47.12,1.1,1.1,0,0,1-1-.62m73.4-2.73a1.11,1.11,0,0,1-.64-1.41,1.09,1.09,0,1,1,2,.79,1.06,1.06,0,0,1-1,.69,1.34,1.34,0,0,1-.4-.07M59.29,97.05h0a1.08,1.08,0,0,1,.41-1.49,1.09,1.09,0,0,1,1.48.42,1.08,1.08,0,0,1-.41,1.49,1,1,0,0,1-.54.15,1.08,1.08,0,0,1-.94-.57m76.93-3a1.08,1.08,0,0,1-.66-1.4,1.09,1.09,0,1,1,1,1.45,1.12,1.12,0,0,1-.36,0m-79.15-.7a1.09,1.09,0,0,1,1.84-1.17,1.1,1.1,0,0,1-.34,1.52,1.18,1.18,0,0,1-.58.16,1.09,1.09,0,0,1-.92-.51m-2.42-3.57a1.1,1.1,0,0,1,.27-1.53,1.08,1.08,0,0,1,1.51.26A1.09,1.09,0,0,1,56.19,90a1.17,1.17,0,0,1-.65.19,1.08,1.08,0,0,1-.89-.45m83,.14a1.1,1.1,0,0,1-.68-1.38,1.09,1.09,0,0,1,2.07.7,1.11,1.11,0,0,1-1,.74.89.89,0,0,1-.35-.06M52.06,86.33a1.14,1.14,0,0,1,.19-1.55,1.1,1.1,0,1,1,.69,2,1.15,1.15,0,0,1-.88-.41m87-.56a1.1,1.1,0,0,1-.71-1.37,1.09,1.09,0,1,1,2.08.66,1.06,1.06,0,0,1-1,.76,1.33,1.33,0,0,1-.34,0M49.32,83h0a1.1,1.1,0,1,1,1.55.11,1.12,1.12,0,0,1-.72.26,1.07,1.07,0,0,1-.83-.37m91-1.39a1.06,1.06,0,1,1,.3,0,1,1,0,0,1-.3,0M46.44,79.74A1.09,1.09,0,1,1,48,79.8a1.05,1.05,0,0,1-.74.29,1.11,1.11,0,0,1-.8-.35m95.08-2.36a1.09,1.09,0,1,1,.57-2.11,1.1,1.1,0,0,1-.29,2.16,1,1,0,0,1-.28-.05m-98.08-.76a1.1,1.1,0,0,1,0-1.55A1.09,1.09,0,0,1,45,76.62a1.06,1.06,0,0,1-.77.33,1.12,1.12,0,0,1-.77-.33m-3.1-3A1.09,1.09,0,0,1,40.29,72a1.1,1.1,0,1,1,1.59,1.51,1.13,1.13,0,0,1-.79.34,1.08,1.08,0,0,1-.75-.31m102.29-.44a1.07,1.07,0,0,1-.82-1.31,1.11,1.11,0,0,1,1.33-.81,1.09,1.09,0,0,1-.27,2.15.63.63,0,0,1-.24,0M37.15,70.62a1.09,1.09,0,0,1-.08-1.54,1.09,1.09,0,1,1,1.62,1.47,1.13,1.13,0,0,1-.82.36,1,1,0,0,1-.72-.29m106.47-1.73a1.1,1.1,0,0,1-.85-1.3h0a1.08,1.08,0,1,1,1.06,1.33l-.23,0M33.88,67.74a1.1,1.1,0,1,1,1.55-.1,1.11,1.11,0,0,1-.82.38,1.1,1.1,0,0,1-.73-.28M30.57,64.9a1.1,1.1,0,0,1-.12-1.53A1.08,1.08,0,0,1,32,63.24a1.09,1.09,0,0,1-.7,1.92,1.16,1.16,0,0,1-.72-.26m113.94-.29a1.11,1.11,0,0,1-.88-1.27,1.1,1.1,0,1,1,2.16.39,1.1,1.1,0,0,1-1.08.89h-.2M27.24,62.07a1.07,1.07,0,0,1-.13-1.53A1.09,1.09,0,1,1,28.77,62a1.05,1.05,0,0,1-.83.38,1,1,0,0,1-.7-.26m118-1.78a1.06,1.06,0,0,1-.91-1.23,1.09,1.09,0,1,1,1.08,1.25.5.5,0,0,1-.17,0M23.9,59.2h0a1.09,1.09,0,0,1,1.46-1.63,1.11,1.11,0,0,1,.09,1.55,1.13,1.13,0,0,1-.82.36,1.08,1.08,0,0,1-.73-.28m-3.21-3.14a1.09,1.09,0,0,1,.08-1.55,1.1,1.1,0,0,1,1.46,1.65,1.19,1.19,0,0,1-.73.26,1,1,0,0,1-.81-.36M145.92,56a1.09,1.09,0,1,1,1.21-.95h0A1.09,1.09,0,0,1,146,56h-.12M45.72,53.56a1.08,1.08,0,0,1,1.08-1.09,1.1,1.1,0,0,1,1.11,1.09,1.12,1.12,0,0,1-1.09,1.1,1.1,1.1,0,0,1-1.1-1.1m-3.32,1a1.09,1.09,0,0,1,.08-2.18,1.08,1.08,0,0,1,1.06,1.12,1.1,1.1,0,0,1-1.09,1.06Zm7.69-1.06a1.09,1.09,0,0,1,1-1.14,1.1,1.1,0,1,1,.08,2.19h0a1.09,1.09,0,0,1-1.1-1M38,54.35a1.09,1.09,0,1,1,.14-2.18,1.09,1.09,0,0,1-.07,2.18Zm16.44-1a1.1,1.1,0,1,1,1.18,1h-.09a1.1,1.1,0,0,1-1.09-1M33.62,54a1.07,1.07,0,0,1-1-1.19,1.1,1.1,0,1,1,2.18.22,1.11,1.11,0,0,1-1.1,1l-.1,0m25.19-1a1.09,1.09,0,0,1,1-1.19,1.08,1.08,0,0,1,1.2,1,1.1,1.1,0,0,1-1,1.21h-.14a1.09,1.09,0,0,1-1.07-1m-29.56.53a1.09,1.09,0,1,1,.28-2.17,1.09,1.09,0,0,1-.15,2.17Zm33.9-1a1.1,1.1,0,1,1,1.24.92h-.16a1.09,1.09,0,0,1-1.08-.93m-38.23.46h0a1.09,1.09,0,1,1,1.21-1,1.07,1.07,0,0,1-1.07,1Zm-5.25-.81a1.1,1.1,0,0,1,.69-1.39v0a1.08,1.08,0,1,1,.69,2v0a1.51,1.51,0,0,1-.35.06,1.11,1.11,0,0,1-1-.76m47.8-.31a1.1,1.1,0,1,1,2.16-.38,1.1,1.1,0,0,1-.89,1.27.65.65,0,0,1-.19,0,1.09,1.09,0,0,1-1.08-.91m4.3-.78a1.09,1.09,0,1,1,1.3.84l-.23,0A1.09,1.09,0,0,1,71.77,51m74.61.59a1.08,1.08,0,0,1-1-1.16,1.1,1.1,0,0,1,2.19.16,1.11,1.11,0,0,1-1.1,1,.15.15,0,0,1-.09,0M76,50.1a1.1,1.1,0,1,1,1.31.81h0a1.24,1.24,0,0,1-.27,0A1.11,1.11,0,0,1,76,50.1m4.24-1.05a1.09,1.09,0,1,1,1.34.77.89.89,0,0,1-.28,0,1.1,1.1,0,0,1-1.06-.8m4.21-1.17a1.1,1.1,0,0,1,.74-1.37,1.1,1.1,0,0,1,.63,2.1,1.17,1.17,0,0,1-.32,0,1.1,1.1,0,0,1-1.05-.77m4.18-1.29a1.1,1.1,0,0,1,.7-1.39,1.09,1.09,0,0,1,1.37.7,1.1,1.1,0,0,1-.69,1.39,1.34,1.34,0,0,1-.35.05,1.09,1.09,0,0,1-1-.75m58,.67a1.1,1.1,0,0,1-1.08-1.11,1.08,1.08,0,0,1,1.11-1.08,1.1,1.1,0,0,1,0,2.19Zm-53.84-2a1.09,1.09,0,1,1,1.37.7,1.19,1.19,0,0,1-.33,0,1.07,1.07,0,0,1-1-.74M97,43.85a1.1,1.1,0,1,1,1.38.68.83.83,0,0,1-.35.06,1.1,1.1,0,0,1-1-.74m4.15-1.39a1.09,1.09,0,1,1,1.39.69,1.13,1.13,0,0,1-.36.06,1.08,1.08,0,0,1-1-.75m44.36-.58h0a1.09,1.09,0,1,1,2.17-.17,1.11,1.11,0,0,1-1,1.18h-.07a1.09,1.09,0,0,1-1.09-1m-40.22-.8a1.08,1.08,0,0,1,.7-1.38,1.08,1.08,0,1,1,.68,2.06.86.86,0,0,1-.35.06,1.1,1.1,0,0,1-1-.74m4.15-1.38a1.09,1.09,0,1,1,2.07-.7,1.09,1.09,0,0,1-.69,1.38.83.83,0,0,1-.35.06,1.09,1.09,0,0,1-1-.74m4.14-1.39a1.09,1.09,0,1,1,1.38.7,1.43,1.43,0,0,1-.35.06,1.09,1.09,0,0,1-1-.76m31.29-.55a1.11,1.11,0,0,1,.78-1.34,1.09,1.09,0,0,1,1.33.79,1.07,1.07,0,0,1-.77,1.32.92.92,0,0,1-.28,0,1.12,1.12,0,0,1-1.06-.82M117.69,37a1.1,1.1,0,1,1,1.38.7,1.34,1.34,0,0,1-.35,0,1.08,1.08,0,0,1-1-.74m4.15-1.36a1.1,1.1,0,1,1,1.37.72.89.89,0,0,1-.32,0,1.1,1.1,0,0,1-1-.77M126,34.32a1.07,1.07,0,0,1,.74-1.35,1.1,1.1,0,0,1,1.36.74,1.11,1.11,0,0,1-.74,1.35,1.18,1.18,0,0,1-.31,0,1.09,1.09,0,0,1-1-.79m17.16.19,0,0a1.09,1.09,0,0,1,1.39-1.69l0,0s0,0,0,0a1.09,1.09,0,0,1,.12,1.54,1.07,1.07,0,0,1-.83.38,1,1,0,0,1-.7-.25m-13-1.38a1.09,1.09,0,1,1,1.32.8,2.3,2.3,0,0,1-.26,0,1.1,1.1,0,0,1-1.06-.83m4.25-1a1.1,1.1,0,1,1,1.24.92h-.15a1.11,1.11,0,0,1-1.09-.93m5.29.8A1.09,1.09,0,1,1,141,32a1.09,1.09,0,0,1-1.08.94.34.34,0,0,1-.14,0" transform="translate(0 -0.16)"/><path class="cls-3" d="M77,159.76a1.1,1.1,0,0,1,.73-1.37,1.09,1.09,0,0,1,1.36.71,1.07,1.07,0,0,1-.72,1.37,1.19,1.19,0,0,1-.32.05,1.1,1.1,0,0,1-1-.76m-3.68.57a1.09,1.09,0,0,1,1-2,1.11,1.11,0,0,1,.5,1.47,1.1,1.1,0,0,1-1,.6,1,1,0,0,1-.49-.12M81,158.14a1.1,1.1,0,0,1,1.9-1.11,1.08,1.08,0,0,1-.4,1.49v0a1.07,1.07,0,0,1-.55.14,1.09,1.09,0,0,1-1-.54m-11-1.57a1.09,1.09,0,0,1,.54-1.46,1.08,1.08,0,0,1,1.44.54,1.1,1.1,0,0,1-.54,1.45,1,1,0,0,1-.45.1,1.09,1.09,0,0,1-1-.63m14.68-.74A1.11,1.11,0,0,1,85,154.3a1.09,1.09,0,0,1,1.25,1.79,1.1,1.1,0,0,1-1.53-.26m3.57-2.54a1.09,1.09,0,0,1,.23-1.53,1.12,1.12,0,0,1,1.54.24,1.11,1.11,0,0,1-.24,1.52,1,1,0,0,1-.65.22,1.1,1.1,0,0,1-.88-.45m-19.68-1.07h0a1.09,1.09,0,0,1,.8-1.32,1.1,1.1,0,1,1,.51,2.13l-.24,0a1.1,1.1,0,0,1-1.07-.84m23.16-1.55a1.12,1.12,0,0,1,.19-1.53,1.08,1.08,0,0,1,1.53.19,1.09,1.09,0,0,1-1.72,1.34m-24-2.81a1.09,1.09,0,0,1,2.16-.35,1.1,1.1,0,0,1-.91,1.25l-.17,0a1.09,1.09,0,0,1-1.08-.92m27.45.1a1.07,1.07,0,0,1,.13-1.54,1.09,1.09,0,1,1,1.4,1.67A1.08,1.08,0,0,1,95.2,148m3.32-2.81a1.09,1.09,0,0,1,1.64-1.44,1.09,1.09,0,0,1-1.64,1.44m-31.4-1.66a1.12,1.12,0,0,1,.95-1.23,1.1,1.1,0,1,1,.28,2.18h-.13a1.11,1.11,0,0,1-1.1-1m34.66-1.24a1.08,1.08,0,0,1,.07-1.54,1.09,1.09,0,0,1,1.55.07,1.08,1.08,0,0,1-.82,1.82,1.11,1.11,0,0,1-.8-.35m-35.16-3.12a1.06,1.06,0,0,1,1-1.19,1.09,1.09,0,0,1,1.2,1,1.1,1.1,0,0,1-1,1.21h-.12a1.07,1.07,0,0,1-1.07-1m38.37.15a1.08,1.08,0,0,1,0-1.55h0a1.1,1.1,0,0,1,1.53,1.57,1.12,1.12,0,0,1-.77.31,1,1,0,0,1-.77-.32m3.11-3.08a1.09,1.09,0,1,1,1.55,0,1.13,1.13,0,0,1-.79.34,1,1,0,0,1-.76-.33m-41.95-1.41a1.08,1.08,0,0,1,1-1.21,1.1,1.1,0,0,1,1.21,1,1.08,1.08,0,0,1-1,1.19.22.22,0,0,1-.11,0,1.09,1.09,0,0,1-1.08-1m45-1.72a1.09,1.09,0,1,1,1.55,0,1.08,1.08,0,0,1-1.55,0M65.7,130.44a1.1,1.1,0,1,1,1.19,1h-.1a1.09,1.09,0,0,1-1.09-1m48.4-.57a1.11,1.11,0,0,1-.07-1.55,1.08,1.08,0,0,1,1.53-.08,1.09,1.09,0,0,1,.09,1.54,1,1,0,0,1-.8.37,1.13,1.13,0,0,1-.75-.28m-48.84-3.78a1.09,1.09,0,1,1,1.2,1h-.12a1.09,1.09,0,0,1-1.08-1m51.74.5a1.1,1.1,0,0,1,1.43-1.66,1.11,1.11,0,0,1,.12,1.55,1.14,1.14,0,0,1-.83.37,1.1,1.1,0,0,1-.72-.26m2.83-3.33a1.09,1.09,0,0,1-.15-1.54,1.09,1.09,0,1,1,1.69,1.39,1.12,1.12,0,0,1-.86.39,1,1,0,0,1-.68-.24m-55-1.51h0a1.1,1.1,0,1,1,1.21,1H65.9a1.1,1.1,0,0,1-1.09-1m57.77-1.89a1.09,1.09,0,1,1,.67.23,1,1,0,0,1-.67-.23m-58.22-2.45a1.09,1.09,0,0,1,2.17-.25,1.08,1.08,0,0,1-1,1.21l-.11,0a1.08,1.08,0,0,1-1.08-1m60.9-1a1.08,1.08,0,1,1,.64.22,1.09,1.09,0,0,1-.64-.22m-61.4-3.34h0a1.11,1.11,0,0,1,1-1.21,1.09,1.09,0,0,1,.25,2.17l-.13,0a1.11,1.11,0,0,1-1.08-1m64-.19a1.07,1.07,0,0,1-.25-1.51h0a1.1,1.1,0,0,1,1.8,1.26h0a1.06,1.06,0,0,1-.89.47,1,1,0,0,1-.62-.22m-64.51-4.13h0a1.09,1.09,0,1,1,2.17-.27,1.08,1.08,0,0,1-1,1.21.3.3,0,0,1-.13,0,1.09,1.09,0,0,1-1.08-1m67,.58a1.1,1.1,0,0,1-.27-1.53,1.09,1.09,0,1,1,.9,1.72,1.11,1.11,0,0,1-.63-.19m2.45-3.63a1.09,1.09,0,1,1,1.52-.32,1.1,1.1,0,0,1-.92.5,1.13,1.13,0,0,1-.6-.18m-70-1.25a1.09,1.09,0,1,1,1.24.9.44.44,0,0,1-.16,0,1.08,1.08,0,0,1-1.08-.92M135.2,102a1.09,1.09,0,1,1,1.51-.35,1.12,1.12,0,0,1-.93.51,1,1,0,0,1-.58-.16M62,100.24a1.1,1.1,0,0,1,.82-1.31,1.09,1.09,0,1,1,.49,2.13l-.24,0a1.09,1.09,0,0,1-1.07-.84m75.52-1.92a1.1,1.1,0,0,1-.38-1.51,1.08,1.08,0,0,1,1.49-.37,1.08,1.08,0,0,1-.56,2,1.07,1.07,0,0,1-.55-.14M60.86,96.1a1.11,1.11,0,0,1,.72-1.37,1.09,1.09,0,0,1,1.36.73,1.07,1.07,0,0,1-.71,1.35.78.78,0,0,1-.32.06,1.1,1.1,0,0,1-1-.77m78.85-1.56a1.09,1.09,0,0,1-.41-1.48h0a1.12,1.12,0,0,1,1.5-.43,1.11,1.11,0,0,1-.54,2.06,1.19,1.19,0,0,1-.54-.15M59.45,92a1.09,1.09,0,1,1,2-.79,1.08,1.08,0,0,1-.63,1.41.91.91,0,0,1-.39.08,1.09,1.09,0,0,1-1-.7m82.39-1.31a1.12,1.12,0,0,1-.45-1.49,1.1,1.1,0,0,1,1.94,1,1.14,1.14,0,0,1-1,.59,1.17,1.17,0,0,1-.51-.13M57.77,88.07h0a1.1,1.1,0,0,1,.54-1.45,1.1,1.1,0,1,1,.92,2,1.24,1.24,0,0,1-.45.09,1.11,1.11,0,0,1-1-.63m86.11-1.22a1.09,1.09,0,1,1,1-1.94,1.07,1.07,0,0,1,.48,1.46,1.11,1.11,0,0,1-1,.61,1,1,0,0,1-.49-.13m-88-2.65a1.1,1.1,0,0,1,1.94-1,1.12,1.12,0,0,1-.47,1.49,1.26,1.26,0,0,1-.51.11,1.06,1.06,0,0,1-1-.58m90-1.25a1.1,1.1,0,0,1,.95-2,1.09,1.09,0,0,1,.51,1.45,1.07,1.07,0,0,1-1,.63,1.17,1.17,0,0,1-.47-.1M53.78,80.43a1.1,1.1,0,0,1,.38-1.5,1.1,1.1,0,1,1,1.11,1.89,1.15,1.15,0,0,1-.56.15,1.09,1.09,0,0,1-.93-.54M147.68,79a1.09,1.09,0,1,1,1.44-.55,1.06,1.06,0,0,1-1,.64,1.24,1.24,0,0,1-.45-.09M51.49,76.76a1.1,1.1,0,0,1,1.84-1.2A1.11,1.11,0,0,1,53,77.08a1.19,1.19,0,0,1-.6.17,1.09,1.09,0,0,1-.92-.49M149.43,75a1.1,1.1,0,0,1-.6-1.43,1.09,1.09,0,0,1,1.43-.6,1.09,1.09,0,0,1-.41,2.1,1.48,1.48,0,0,1-.42-.07M49.05,73.19a1.1,1.1,0,1,1,1.53.25,1,1,0,0,1-.63.2,1.12,1.12,0,0,1-.9-.45m102-2.28a1.09,1.09,0,0,1-.65-1.41,1.09,1.09,0,1,1,2.05.77,1.1,1.1,0,0,1-1,.72,1,1,0,0,1-.37-.08M46.48,69.71a1.1,1.1,0,0,1,.19-1.55A1.1,1.1,0,1,1,48,69.91a1.19,1.19,0,0,1-.67.22,1.1,1.1,0,0,1-.86-.42m106.05-2.92a1.09,1.09,0,0,1-.7-1.37,1.1,1.1,0,1,1,1,1.43.86.86,0,0,1-.35-.06M43.77,66.31a1.11,1.11,0,0,1,.16-1.54,1.09,1.09,0,0,1,1.39,1.69,1.14,1.14,0,0,1-.7.24,1.12,1.12,0,0,1-.85-.39M41,63a1.09,1.09,0,0,1,1.64-1.44,1.1,1.1,0,0,1-.1,1.54A1.07,1.07,0,0,1,41,63m112.88-.36a1.1,1.1,0,0,1-.77-1.35,1.1,1.1,0,1,1,1.06,1.39.92.92,0,0,1-.29,0M38.09,59.74a1.08,1.08,0,0,1,.07-1.54,1.07,1.07,0,0,1,1.53.07,1.08,1.08,0,0,1-.07,1.54,1,1,0,0,1-.73.28,1.06,1.06,0,0,1-.8-.35M155,58.39a1.11,1.11,0,0,1-.85-1.29,1.09,1.09,0,0,1,1.3-.84,1.09,1.09,0,0,1-.22,2.15.9.9,0,0,1-.23,0M35.12,56.55a1.1,1.1,0,0,1,0-1.54,1.08,1.08,0,0,1,1.55,0,1.1,1.1,0,0,1,0,1.55,1.15,1.15,0,0,1-.75.3,1.14,1.14,0,0,1-.8-.34M155.75,54.1a1.1,1.1,0,0,1,.23-2.18,1.09,1.09,0,0,1-.11,2.18ZM32.11,53.39a1.09,1.09,0,1,1,1.54,0,1.08,1.08,0,0,1-1.54,0M72.21,50a1.09,1.09,0,0,1,2.18,0,1.09,1.09,0,1,1-2.18,0M68.9,51a1.09,1.09,0,0,1-1.06-1.13,1.09,1.09,0,0,1,2.18.08A1.09,1.09,0,0,1,68.93,51Zm7.68-1.11a1.09,1.09,0,1,1,2.18-.1,1.11,1.11,0,0,1-1.05,1.15h0a1.11,1.11,0,0,1-1.09-1m-13.1-.26a1.09,1.09,0,1,1,1,1.16,1.09,1.09,0,0,1-1-1.16m17.46,0a1.09,1.09,0,0,1,2.18-.19,1.1,1.1,0,0,1-1,1.18H82a1.1,1.1,0,0,1-1.09-1m-51.88.59a1.09,1.09,0,1,1,1.54,0,1.08,1.08,0,0,1-1.54,0m31,.15h0a1.06,1.06,0,1,1,.12,0H60.1m25.19-1.15A1.09,1.09,0,0,1,87.46,49a1.11,1.11,0,0,1-1,1.22h-.13a1.1,1.1,0,0,1-1.08-1m-29.57.6a1.11,1.11,0,1,1,.16,0h-.16m99.19-1.11a1.09,1.09,0,1,1,2.17-.16,1.06,1.06,0,0,1-1,1.16H156a1.07,1.07,0,0,1-1.07-1m-65.29,0a1.1,1.1,0,1,1,1.25.91h-.18a1.08,1.08,0,0,1-1.07-.92m-38.24.44h0a1.09,1.09,0,1,1,1.27-.87,1.11,1.11,0,0,1-1.08.89.62.62,0,0,1-.19,0M93.93,48a1.08,1.08,0,0,1,.87-1.28h0a1.11,1.11,0,0,1,1.29.86,1.09,1.09,0,0,1-.87,1.28l-.2,0A1.08,1.08,0,0,1,93.93,48m-46.88.28h0a1.09,1.09,0,0,1-.83-1.3,1.07,1.07,0,0,1,1.3-.83,1.09,1.09,0,0,1-.23,2.16l-.24,0m51.16-1.12a1.11,1.11,0,0,1,.86-1.3,1.09,1.09,0,0,1,1.28.86A1.07,1.07,0,0,1,99.51,48v0h-.22a1.11,1.11,0,0,1-1.08-.87M26,47a1.11,1.11,0,0,1,.09-1.55,1.09,1.09,0,0,1,1.45,1.62,1,1,0,0,1-.72.29A1.13,1.13,0,0,1,26,47m16.74.17a1.09,1.09,0,1,1,.54-2.11A1.1,1.1,0,0,1,43,47.26a.81.81,0,0,1-.27,0m59.74-.94a1.07,1.07,0,0,1,.86-1.28,1.09,1.09,0,0,1,.42,2.14l-.22,0a1.09,1.09,0,0,1-1.06-.89m4.28-.83a1.08,1.08,0,0,1,.88-1.27,1.09,1.09,0,0,1,.4,2.14h-.2a1.09,1.09,0,0,1-1.08-.88m-68.27.61a1.09,1.09,0,1,1,.62-2.1,1.09,1.09,0,0,1,.73,1.35,1.07,1.07,0,0,1-1,.79,1,1,0,0,1-.3,0m115.32-.8h0l0-.06a1.09,1.09,0,0,1,.13-1.55,1.08,1.08,0,0,1,1.53.14l0,0s0,0,0,0a1.1,1.1,0,0,1-.15,1.54,1,1,0,0,1-.7.25,1.08,1.08,0,0,1-.83-.39m-42.75-.61a1.07,1.07,0,0,1,.87-1.27,1.09,1.09,0,0,1,1.27.87,1.07,1.07,0,0,1-.88,1.27h0l-.18,0a1.09,1.09,0,0,1-1.08-.9m-76.77.11h0a1.09,1.09,0,1,1,1.37-.7,1.11,1.11,0,0,1-1,.76.76.76,0,0,1-.34-.06m81.07-.89a1.07,1.07,0,0,1,.89-1.25,1.09,1.09,0,0,1,1.26.89,1.07,1.07,0,0,1-.89,1.25.65.65,0,0,1-.19,0,1.07,1.07,0,0,1-1.07-.91m4.31-.72a1.09,1.09,0,1,1,2.15-.35,1.1,1.1,0,0,1-.91,1.25h-.16a1.07,1.07,0,0,1-1.08-.91m-96.51.27a1.09,1.09,0,0,1,.42-1.48,1.08,1.08,0,0,1,1.49.4,1.1,1.1,0,0,1-.42,1.49,1,1,0,0,1-.53.15,1.12,1.12,0,0,1-1-.56m7,0h0a1.1,1.1,0,1,1,.69-2.09,1.09,1.09,0,0,1-.35,2.13,1.42,1.42,0,0,1-.34,0M124,42.45a1.09,1.09,0,0,1,.92-1.24,1.11,1.11,0,0,1,1.24.93,1.09,1.09,0,0,1-.92,1.24l-.16,0a1.09,1.09,0,0,1-1.08-.95m26.66.58h0a1.1,1.1,0,0,1,.8-2,1.1,1.1,0,0,1,.61,1.43,1.09,1.09,0,0,1-1,.69.94.94,0,0,1-.41-.08m-22.33-1.19a1.07,1.07,0,0,1,.94-1.21,1.08,1.08,0,0,1,1.23.93,1.1,1.1,0,0,1-.95,1.23h-.15a1.1,1.1,0,0,1-1.07-1m4.32-.51a1.1,1.1,0,1,1,1.2,1h-.1a1.11,1.11,0,0,1-1.1-1m-106.6.83a1.09,1.09,0,0,1,.5-2.13,1.08,1.08,0,0,1,.81,1.31,1.1,1.1,0,0,1-1.06.85l-.25,0m120.63-.07h0a1.18,1.18,0,1,1,.15,0ZM137,40.93a1.09,1.09,0,1,1,2.18-.13,1.08,1.08,0,0,1-1,1.15h-.06a1.07,1.07,0,0,1-1.09-1m5.45.91a1.09,1.09,0,0,1-1.08-1.11,1.08,1.08,0,0,1,1.09-1.08,1.09,1.09,0,0,1,1.09,1.09,1.11,1.11,0,0,1-1.09,1.1Z" transform="translate(0 -0.16)"/><path class="cls-3" d="M61,162a1.09,1.09,0,1,1,1.53-.2,1.07,1.07,0,0,1-.86.43A1.09,1.09,0,0,1,61,162m3.85-.5a1.08,1.08,0,0,1,.62-1.4,1.09,1.09,0,1,1,.78,2,1,1,0,0,1-.38.08,1.09,1.09,0,0,1-1-.72m4-1.79a1.07,1.07,0,0,1,.39-1.48,1.09,1.09,0,0,1,1.5.39,1.07,1.07,0,0,1-.39,1.48,1,1,0,0,1-.56.15,1.08,1.08,0,0,1-.94-.54M59,157.3a1.09,1.09,0,1,1,1.21,1h-.13a1.09,1.09,0,0,1-1.08-1m13.64.12a1.07,1.07,0,0,1,.3-1.51,1.1,1.1,0,0,1,1.52.31,1.11,1.11,0,0,1-.32,1.52h0a1.25,1.25,0,0,1-.61.17,1.06,1.06,0,0,1-.9-.49M76.26,155a1.07,1.07,0,0,1,.28-1.51,1.09,1.09,0,1,1,1.23,1.79,1,1,0,0,1-.61.19,1.06,1.06,0,0,1-.9-.47m-16.39-1.11a1.06,1.06,0,0,1-1.06-1.1,1.09,1.09,0,0,1,1.1-1.08A1.11,1.11,0,0,1,61,152.8a1.09,1.09,0,0,1-1.09,1.07Zm20-1.38a1.09,1.09,0,1,1,1.79-1.25,1.08,1.08,0,0,1-.27,1.51,1.06,1.06,0,0,1-.63.21,1.07,1.07,0,0,1-.89-.47M83.46,150a1.1,1.1,0,1,1,1.52.24,1,1,0,0,1-.64.21,1.1,1.1,0,0,1-.88-.45M60,149.49a1.09,1.09,0,1,1,.13-2.17,1.07,1.07,0,0,1,1,1.15,1.09,1.09,0,0,1-1.1,1h0m27-2.1a1.11,1.11,0,0,1,.23-1.53,1.09,1.09,0,1,1-.23,1.53m3.52-2.62a1.09,1.09,0,1,1,1.75-1.31,1.09,1.09,0,0,1-.2,1.53,1.22,1.22,0,0,1-.67.22,1.12,1.12,0,0,1-.88-.44m-30.21.35a1.09,1.09,0,1,1,.18-2.18,1.11,1.11,0,0,1,1,1.17,1.12,1.12,0,0,1-1.09,1Zm33.73-3a1.07,1.07,0,0,1,.19-1.53,1.08,1.08,0,0,1,1.52.2,1.07,1.07,0,0,1-.19,1.53,1.1,1.1,0,0,1-.67.22,1.06,1.06,0,0,1-.85-.42m-33.36-1.37a1.1,1.1,0,0,1-1-1.19,1.09,1.09,0,0,1,1.19-1,1.09,1.09,0,0,1-.1,2.18Zm36.82-1.31a1.1,1.1,0,1,1,1.72-1.36,1.09,1.09,0,0,1-.19,1.53,1.06,1.06,0,0,1-.67.24,1.11,1.11,0,0,1-.86-.41M101,136.7a1.09,1.09,0,0,1,1.69-1.37,1.07,1.07,0,0,1-.16,1.53,1.1,1.1,0,0,1-.69.25,1.12,1.12,0,0,1-.84-.41m-39.86-.34a1.07,1.07,0,0,1-1-1.18,1.1,1.1,0,0,1,1.2-1,1.07,1.07,0,0,1,1,1.19,1.09,1.09,0,0,1-1.09,1,.15.15,0,0,1-.09,0m43.27-2.43a1.08,1.08,0,0,1,.14-1.53,1.09,1.09,0,1,1,.69,1.92,1,1,0,0,1-.83-.39M61.49,132a1.07,1.07,0,0,1-1-1.18,1.09,1.09,0,0,1,2.17.21,1.12,1.12,0,0,1-1.09,1,.2.2,0,0,1-.1,0m46.23-.87a1.08,1.08,0,0,1,.13-1.53,1.09,1.09,0,1,1,1.42,1.66,1.08,1.08,0,0,1-.72.27,1.1,1.1,0,0,1-.83-.4m3.35-2.84a1.1,1.1,0,1,1,1.53.1,1.11,1.11,0,0,1-1.53-.1m-49.19-.66a1.08,1.08,0,1,1,1.2-1,1.12,1.12,0,0,1-1.1,1,.2.2,0,0,1-.1,0m52.49-2.22a1.1,1.1,0,0,1,.1-1.55,1.09,1.09,0,1,1,1.44,1.63h0a1.09,1.09,0,0,1-.72.28,1.15,1.15,0,0,1-.83-.36m-52.1-2.15a1.08,1.08,0,0,1-1-1.18,1.09,1.09,0,1,1,1.09,1.2.15.15,0,0,1-.09,0m55.38-.78a1.09,1.09,0,0,1,.07-1.55,1.11,1.11,0,0,1,1.54.06,1.1,1.1,0,0,1-.81,1.84,1.08,1.08,0,0,1-.8-.35m3.23-3a1.1,1.1,0,1,1,1.54,0,1.05,1.05,0,0,1-.74.29,1.09,1.09,0,0,1-.8-.33m-58.26-.62a1.09,1.09,0,0,1-1-1.16,1.09,1.09,0,1,1,2.18.16,1.08,1.08,0,0,1-1.09,1Zm61.45-2.4a1.11,1.11,0,0,1,0-1.54,1.09,1.09,0,1,1,1.51,1.57,1.08,1.08,0,0,1-.76.31,1.13,1.13,0,0,1-.78-.34m-61.1-2a1.09,1.09,0,0,1-1-1.16,1.1,1.1,0,1,1,1.1,1.16Zm64.26-1.07a1.11,1.11,0,0,1,0-1.56,1.09,1.09,0,1,1,1.53,1.56,1.07,1.07,0,0,1-.77.32,1.15,1.15,0,0,1-.77-.32m3.12-3.11a1.08,1.08,0,0,1,0-1.54,1.09,1.09,0,1,1,.77,1.86,1,1,0,0,1-.75-.32m-67.07-.2a1.09,1.09,0,0,1-1-1.17,1.09,1.09,0,1,1,2.18.15,1.09,1.09,0,0,1-1.09,1Zm70.13-2.94a1.06,1.06,0,0,1,0-1.53,1.09,1.09,0,1,1,1.58,1.5,1.06,1.06,0,0,1-.8.33,1.12,1.12,0,0,1-.75-.3m-69.84-1.43a1.09,1.09,0,0,1-1-1.15,1.09,1.09,0,1,1,2.17.1,1.1,1.1,0,0,1-1.1,1.05ZM136.44,104A1.09,1.09,0,1,1,138,104a1.07,1.07,0,0,1-.8.35,1.1,1.1,0,0,1-.74-.29m-73.89-3.7a1.07,1.07,0,0,1,1.05-1.12,1.09,1.09,0,1,1,.07,2.17h0a1.08,1.08,0,0,1-1.09-1m76.86.47a1.11,1.11,0,0,1-.09-1.55,1.1,1.1,0,0,1,1.54-.07,1.08,1.08,0,0,1-.72,1.89,1,1,0,0,1-.73-.27m2.91-3.28a1.1,1.1,0,0,1-.1-1.54,1.08,1.08,0,0,1,1.54-.11,1.1,1.1,0,0,1,.11,1.55,1.06,1.06,0,0,1-.82.36,1.13,1.13,0,0,1-.73-.26M62.23,96a1.09,1.09,0,1,1,1.21,1h-.12a1.09,1.09,0,0,1-1.09-1m83-1.87a1.08,1.08,0,0,1-.14-1.53,1.09,1.09,0,1,1,1.67,1.4,1.06,1.06,0,0,1-.83.4,1,1,0,0,1-.7-.27m-83.58-2.4a1.07,1.07,0,0,1,.87-1.27,1.09,1.09,0,1,1,.39,2.14.63.63,0,0,1-.19,0,1.08,1.08,0,0,1-1.07-.9m86.38-1a1.08,1.08,0,1,1,.67.24,1.06,1.06,0,0,1-.67-.24M60.67,87.54a1.1,1.1,0,0,1,.79-1.33A1.12,1.12,0,0,1,62.8,87a1.09,1.09,0,0,1-.8,1.32.86.86,0,0,1-.27.05,1.11,1.11,0,0,1-1.06-.83m90-.21a1.06,1.06,0,0,1-.2-1.51h0A1.1,1.1,0,0,1,152,85.6a1.09,1.09,0,0,1,.2,1.53,1.07,1.07,0,0,1-.87.43,1,1,0,0,1-.66-.23m-91.23-4a1.09,1.09,0,0,1,.7-1.38,1.11,1.11,0,0,1,1.38.72,1.08,1.08,0,0,1-.71,1.36.79.79,0,0,1-.34.06,1.08,1.08,0,0,1-1-.76m93.87.46a1.1,1.1,0,1,1,1.28-1.78,1.11,1.11,0,0,1,.25,1.53A1.13,1.13,0,0,1,154,84a1.15,1.15,0,0,1-.64-.2m2.55-3.59a1.06,1.06,0,0,1-.29-1.51,1.09,1.09,0,0,1,1.8,1.22,1.1,1.1,0,0,1-.9.48,1,1,0,0,1-.61-.19M58,79.29a1.09,1.09,0,0,1,2-.79,1.08,1.08,0,0,1-.62,1.42.92.92,0,0,1-.4.07,1.09,1.09,0,0,1-1-.7M158.32,76.6a1.1,1.1,0,0,1,1.16-1.86,1.09,1.09,0,0,1-.58,2,1.13,1.13,0,0,1-.58-.16M56.37,75.29a1.12,1.12,0,0,1,.56-1.45,1.1,1.1,0,0,1,1.44.56,1.08,1.08,0,0,1-.55,1.44,1,1,0,0,1-.44.1,1.13,1.13,0,0,1-1-.65M160.6,72.85a1.1,1.1,0,0,1,1.08-1.91,1.09,1.09,0,0,1-.54,2,1.22,1.22,0,0,1-.54-.13M54.52,71.37a1.1,1.1,0,1,1,1.48.48,1,1,0,0,1-.5.11,1.1,1.1,0,0,1-1-.59M162.7,69a1.08,1.08,0,0,1-.52-1.46v0a1.08,1.08,0,0,1,1.45-.53,1.09,1.09,0,1,1-.93,2M52.5,67.52a1.09,1.09,0,1,1,1.91-1.06A1.09,1.09,0,0,1,54,67.94a1.07,1.07,0,0,1-1.49-.42m112-2.54a1.09,1.09,0,0,1-.67-1.39,1.09,1.09,0,1,1,2,.73,1.08,1.08,0,0,1-1,.72.83.83,0,0,1-.35-.06M50.31,63.76a1.1,1.1,0,0,1,.37-1.5,1.07,1.07,0,0,1,1.5.37,1.09,1.09,0,0,1-.37,1.5,1.13,1.13,0,0,1-.56.16,1.11,1.11,0,0,1-.94-.53m115.51-3a1.08,1.08,0,1,1,.29-2.15,1.06,1.06,0,0,1,.93,1.22,1.08,1.08,0,0,1-1.08.94h-.14M48,60.08a1.09,1.09,0,1,1,1.82-1.21,1.08,1.08,0,0,1-.32,1.51,1,1,0,0,1-.6.19,1.06,1.06,0,0,1-.9-.49m-2.45-3.62a1.1,1.1,0,0,1,.28-1.53,1.09,1.09,0,0,1,1.24,1.8,1.11,1.11,0,0,1-.61.2,1.09,1.09,0,0,1-.91-.47m119-.48s0,0,0,0a1.09,1.09,0,1,1,1.91-1.06s0,0,0,0a1.1,1.1,0,0,1-.46,1.46,1,1,0,0,1-.52.13,1.09,1.09,0,0,1-.95-.54m-2.72-2.69a1.07,1.07,0,1,1,.58.17,1.09,1.09,0,0,1-.58-.17M43,52.91h0a1.09,1.09,0,0,1,1.76-1.3,1.07,1.07,0,0,1-.23,1.53,1,1,0,0,1-.64.22,1.13,1.13,0,0,1-.89-.45m115-1.35a1.09,1.09,0,0,1-.67-1.39,1.11,1.11,0,0,1,1.4-.68,1.09,1.09,0,0,1-.37,2.12,1.2,1.2,0,0,1-.36,0M154,50.42h0a1.09,1.09,0,1,1,1.29-.84,1.07,1.07,0,0,1-1.06.86.63.63,0,0,1-.23,0m-61.07-.29A1.07,1.07,0,0,1,91.82,49a1.09,1.09,0,0,1,1.1-1.08A1.12,1.12,0,0,1,94,49.06a1.1,1.1,0,0,1-1.11,1.07Zm3.32-1.08a1.1,1.1,0,1,1,1.12,1.06h0a1.08,1.08,0,0,1-1.09-1.06M88.45,50a1.1,1.1,0,0,1,.13-2.19A1.1,1.1,0,0,1,88.52,50Zm12.14-1.08a1.06,1.06,0,0,1,1-1.15,1.09,1.09,0,0,1,.15,2.17h-.07a1.09,1.09,0,0,1-1.09-1m-60.23.54a1.1,1.1,0,0,1,.21-1.53,1.08,1.08,0,0,1,1.53.19,1.1,1.1,0,0,1-.2,1.53,1,1,0,0,1-.66.23,1.1,1.1,0,0,1-.88-.42m109.35.23a1.09,1.09,0,1,1,.3-2.16h0a1.1,1.1,0,0,1-.16,2.18.41.41,0,0,1-.16,0M84,49.62h0a1.09,1.09,0,1,1,.22-2.17h0a1.09,1.09,0,0,1-.1,2.17Zm20.92-1a1.09,1.09,0,0,1,1-1.18,1.12,1.12,0,0,1,1.16,1,1.1,1.1,0,0,1-1,1.17h-.09a1.09,1.09,0,0,1-1.09-1m4.38-.3a1.1,1.1,0,0,1,1-1.17,1.1,1.1,0,0,1,.15,2.19h-.08a1.09,1.09,0,0,1-1.09-1m36.07.89a1.1,1.1,0,1,1,1.18-1,1.08,1.08,0,0,1-1.09,1Zm-65.77-.08h0a1.08,1.08,0,0,1-.93-1.23,1.09,1.09,0,0,1,2.15.3,1.09,1.09,0,0,1-1.08,1,.34.34,0,0,1-.14,0M113.73,48a1.07,1.07,0,0,1,1-1.14,1.1,1.1,0,0,1,1.15,1,1.08,1.08,0,0,1-1,1.13l-.06,0a1.08,1.08,0,0,1-1.09-1m26.3-.32a1.1,1.1,0,0,1,1.17-1,1.09,1.09,0,0,1-.13,2.17v0a1.13,1.13,0,0,1-1-1.17m-21.92.1a1.09,1.09,0,1,1,1.14,1h0a1.07,1.07,0,0,1-1.09-1m5.51.91a1.09,1.09,0,0,1-1.12-1.07,1.09,1.09,0,0,1,2.18-.06,1.11,1.11,0,0,1-1.06,1.13m13.09,0h0a1.1,1.1,0,0,1-1.06-1.13,1.08,1.08,0,0,1,1.14-1.06h0a1.1,1.1,0,0,1,0,2.19Zm-9.83-1.14A1.08,1.08,0,0,1,128,46.41a1.11,1.11,0,0,1,1.11,1.08A1.12,1.12,0,0,1,128,48.6h0a1.09,1.09,0,0,1-1.09-1.08m5.48,1.06a1.1,1.1,0,0,1-1.1-1.1,1.1,1.1,0,0,1,2.19,0,1.1,1.1,0,0,1-1.09,1.09m-57.11-.19h0a1.07,1.07,0,0,1-.87-1.26,1.09,1.09,0,0,1,1.27-.89h0a1.09,1.09,0,0,1-.21,2.16.68.68,0,0,1-.19,0m-4.34-.87a1.09,1.09,0,1,1,1.3-.83,1.07,1.07,0,0,1-1.06.86.66.66,0,0,1-.24,0m-4.31-1a1.07,1.07,0,0,1-.77-1.32,1.09,1.09,0,1,1,2.11.55,1.11,1.11,0,0,1-1.06.82,1,1,0,0,1-.28-.05M37.65,46a1.1,1.1,0,1,1,1.54.18,1.12,1.12,0,0,1-.69.23,1.06,1.06,0,0,1-.85-.41m24.68-.7a1.08,1.08,0,0,1-.72-1.35,1.09,1.09,0,1,1,1,1.4,1.32,1.32,0,0,1-.32-.05M58.12,44a1.09,1.09,0,0,1,.7-2.07,1.1,1.1,0,0,1,.69,1.39,1.12,1.12,0,0,1-1,.74,1.51,1.51,0,0,1-.35-.06M34.89,42.6a1.09,1.09,0,1,1,1.53.14,1.07,1.07,0,0,1-1.53-.14M54,42.47h0a1.1,1.1,0,0,1,.77-2.06h0a1.1,1.1,0,0,1,.65,1.41,1.09,1.09,0,0,1-1,.7,1.13,1.13,0,0,1-.38-.05m-4.13-1.64a1.08,1.08,0,0,1-.59-1.42,1.09,1.09,0,1,1,1,1.51,1.07,1.07,0,0,1-.43-.09M32.08,39.22a1.09,1.09,0,0,1,1.67-1.4,1.1,1.1,0,0,1-.13,1.54,1,1,0,0,1-.7.25,1.07,1.07,0,0,1-.84-.39m13.69-.13a1.09,1.09,0,1,1,.89-2,1.08,1.08,0,0,1,.55,1.43,1.09,1.09,0,0,1-1,.66,1,1,0,0,1-.44-.1m-4-1.85a1.08,1.08,0,1,1,.47.11,1.12,1.12,0,0,1-.47-.11M29.28,35.79a1.1,1.1,0,1,1,.86.41,1.08,1.08,0,0,1-.86-.41m8.51-.48a1.09,1.09,0,0,1-.48-1.47,1.07,1.07,0,0,1,1.45-.49,1.11,1.11,0,0,1,.5,1.47,1.1,1.1,0,0,1-1,.59,1.08,1.08,0,0,1-.49-.1m-3.92-2a1.12,1.12,0,0,1-.5-1.47,1.1,1.1,0,0,1,1.47-.5,1.09,1.09,0,0,1,.48,1.47,1.07,1.07,0,0,1-1,.6,1.12,1.12,0,0,1-.48-.1M26.67,32a1.1,1.1,0,1,1,2-.92,1.13,1.13,0,0,1-.54,1.46,1.47,1.47,0,0,1-.45.08,1.11,1.11,0,0,1-1-.62M30,31.51a1.1,1.1,0,0,1-.61-1.41,1.12,1.12,0,0,1,1.43-.62,1.1,1.1,0,0,1-.41,2.12,1,1,0,0,1-.41-.09" transform="translate(0 -0.16)"/><path class="cls-3" d="M49.69,164.29h0a1.1,1.1,0,1,1,1.54-.11,1,1,0,0,1-.81.37,1.16,1.16,0,0,1-.73-.26m3.84-1.12A1.09,1.09,0,0,1,54,161.7a1.09,1.09,0,0,1,1,1.93,1,1,0,0,1-.5.12,1.07,1.07,0,0,1-1-.58M57.35,161a1.09,1.09,0,1,1,1.5.33,1,1,0,0,1-.58.18,1.09,1.09,0,0,1-.92-.51m-7.47-.7a1.11,1.11,0,0,1-.92-1.25,1.09,1.09,0,0,1,1.25-.91,1.07,1.07,0,0,1,.91,1.24,1.09,1.09,0,0,1-1.08.93h-.16M61,158.67a1.1,1.1,0,0,1,1.84-1.21,1.09,1.09,0,0,1-.32,1.51,1.11,1.11,0,0,1-.6.18,1.16,1.16,0,0,1-.92-.48m3.66-2.42a1.09,1.09,0,0,1,.3-1.52,1.07,1.07,0,0,1,1.5.31,1.1,1.1,0,0,1-.29,1.52,1.22,1.22,0,0,1-.61.17,1,1,0,0,1-.9-.48m-14-.22a1.09,1.09,0,0,1-.82-1.31h0a1.1,1.1,0,0,1,1.33-.81,1.1,1.1,0,0,1-.26,2.16,1.07,1.07,0,0,1-.25,0m17.64-2.21a1.09,1.09,0,1,1,1.51.3,1.11,1.11,0,0,1-.61.18,1,1,0,0,1-.9-.48M72,151.38a1.09,1.09,0,1,1,1.51.31,1.06,1.06,0,0,1-.59.19,1.09,1.09,0,0,1-.92-.5m-20.22.4a1.09,1.09,0,1,1,.55-2.11,1.09,1.09,0,0,1-.28,2.15.88.88,0,0,1-.27,0M75.59,149a1.09,1.09,0,0,1,1.82-1.21,1.11,1.11,0,0,1-.31,1.52,1,1,0,0,1-.59.19,1.1,1.1,0,0,1-.92-.5m-22.76-1.4a1.11,1.11,0,0,1-.77-1.34,1.1,1.1,0,1,1,1.07,1.37,1,1,0,0,1-.3,0m26.39-1a1.09,1.09,0,1,1,1.53.3,1.17,1.17,0,0,1-.62.18,1.09,1.09,0,0,1-.91-.48m3.64-2.43a1.09,1.09,0,0,1,.29-1.52,1.09,1.09,0,1,1,1.22,1.81,1,1,0,0,1-.61.19,1.1,1.1,0,0,1-.9-.48M54,143.33a1.1,1.1,0,0,1,.57-2.12,1.12,1.12,0,0,1,.77,1.35,1.1,1.1,0,0,1-1.06.8.89.89,0,0,1-.28,0m32.52-1.69a1.09,1.09,0,0,1,.29-1.52,1.08,1.08,0,0,1,1.51.29,1.1,1.1,0,0,1-.29,1.52,1,1,0,0,1-.61.19,1.11,1.11,0,0,1-.9-.48m3.62-2.45a1.1,1.1,0,0,1,.29-1.51,1.08,1.08,0,0,1,1.52.29,1.1,1.1,0,0,1-.29,1.51,1.08,1.08,0,0,1-.62.19,1.1,1.1,0,0,1-.9-.48m-35-.09a1.13,1.13,0,1,1,.28,0,1.33,1.33,0,0,1-.28,0m38.65-2.37a1.09,1.09,0,0,1,.27-1.52,1.13,1.13,0,0,1,1.54.3,1.09,1.09,0,0,1-.91,1.7,1,1,0,0,1-.9-.48M56.2,134.86a1.06,1.06,0,0,1-.79-1.32,1.09,1.09,0,0,1,1.33-.79,1.09,1.09,0,0,1-.28,2.15.59.59,0,0,1-.26,0m41.15-.58A1.1,1.1,0,1,1,99.16,133a1.11,1.11,0,0,1-.29,1.52,1.08,1.08,0,0,1-.62.19,1.1,1.1,0,0,1-.9-.47M101,131.8a1.09,1.09,0,1,1,1.52.3,1,1,0,0,1-.61.18,1.12,1.12,0,0,1-.91-.48m-43.68-1.17a1.1,1.1,0,0,1,.52-2.13,1.11,1.11,0,0,1,.8,1.34,1.07,1.07,0,0,1-1.06.81,1.1,1.1,0,0,1-.26,0m47.3-1.29a1.1,1.1,0,0,1,.27-1.53,1.13,1.13,0,0,1,1.53.29,1.1,1.1,0,0,1-.9,1.71,1.06,1.06,0,0,1-.9-.47m3.6-2.49a1.09,1.09,0,0,1,.27-1.51,1.1,1.1,0,0,1,1.53.27,1.09,1.09,0,0,1-.28,1.52,1.07,1.07,0,0,1-.62.2,1.09,1.09,0,0,1-.9-.48m-49.85-.46a1.1,1.1,0,0,1-.8-1.33,1.08,1.08,0,0,1,1.31-.8,1.1,1.1,0,0,1-.25,2.16,2.06,2.06,0,0,1-.26,0m53.44-2a1.1,1.1,0,0,1,1.81-1.26,1.09,1.09,0,0,1-.28,1.52,1.1,1.1,0,0,1-1.53-.26m3.6-2.51a1.08,1.08,0,0,1,.26-1.51,1.09,1.09,0,0,1,1.53.26,1.11,1.11,0,0,1-.26,1.53,1.16,1.16,0,0,1-.63.19,1.08,1.08,0,0,1-.9-.47m-56,.26a1.09,1.09,0,1,1,1.31-.81,1.11,1.11,0,0,1-1.07.84,1.05,1.05,0,0,1-.24,0M119,119.37a1.08,1.08,0,0,1,.26-1.53,1.09,1.09,0,1,1,1.26,1.79,1.16,1.16,0,0,1-.62.2,1.09,1.09,0,0,1-.9-.46m-58.61-1.5a1.09,1.09,0,1,1,1.3-.82,1.07,1.07,0,0,1-1.06.84.93.93,0,0,1-.24,0m62.19-1a1.09,1.09,0,1,1,1.78-1.27,1.1,1.1,0,0,1-.27,1.53,1.06,1.06,0,0,1-.62.19,1.08,1.08,0,0,1-.89-.45m3.55-2.54a1.1,1.1,0,0,1,.27-1.53,1.09,1.09,0,1,1,.62,2,1.13,1.13,0,0,1-.89-.45m-64.78-.71a1.09,1.09,0,0,1,.47-2.13,1.09,1.09,0,0,1-.23,2.16.66.66,0,0,1-.24,0m68.35-1.84a1.09,1.09,0,1,1,1.76-1.28,1.1,1.1,0,0,1-.24,1.53,1.12,1.12,0,0,1-.63.2,1.09,1.09,0,0,1-.89-.45m3.54-2.56a1.09,1.09,0,1,1,1.53.23,1,1,0,0,1-.64.22,1.1,1.1,0,0,1-.89-.45m-70.95.13a1.05,1.05,0,1,1,.23,0l-.23,0m74.48-2.73a1.09,1.09,0,1,1,1.53.24,1.12,1.12,0,0,1-.64.22,1.1,1.1,0,0,1-.89-.46m-73.57-1.55a1,1,0,1,1,.19,0l-.19,0m77.09-1a1.1,1.1,0,0,1,.22-1.53,1.09,1.09,0,1,1,.66,2,1.1,1.1,0,0,1-.88-.44m3.5-2.64a1.07,1.07,0,0,1,.2-1.52,1.09,1.09,0,0,1,1.33,1.73,1.07,1.07,0,0,1-.67.23,1.08,1.08,0,0,1-.86-.44m-79.89-.64a1.08,1.08,0,0,1-1-1.19v0a1.09,1.09,0,0,1,2.17.24,1.08,1.08,0,0,1-1.08,1Zm83.36-2a1.1,1.1,0,0,1,.19-1.53,1.09,1.09,0,1,1,1.34,1.73,1.11,1.11,0,0,1-1.53-.2M150.67,96a1.09,1.09,0,1,1,1.7-1.37,1.09,1.09,0,0,1-.17,1.54,1.17,1.17,0,0,1-.67.24,1.14,1.14,0,0,1-.86-.41m-86.43.35a1.11,1.11,0,0,1-1.06-1.14,1.09,1.09,0,1,1,1.09,1.14Zm89.84-3.09a1.1,1.1,0,0,1,.16-1.54,1.09,1.09,0,0,1,1.38,1.69,1.06,1.06,0,0,1-.7.24,1.1,1.1,0,0,1-.84-.39M63.18,91h0a1.09,1.09,0,1,1,1.12,1,0,0,0,0,1,0,0A1.08,1.08,0,0,1,63.18,91m94.28-.44a1.11,1.11,0,0,1,.13-1.55,1.09,1.09,0,0,1,1.54.13,1.12,1.12,0,0,1-.13,1.55,1.08,1.08,0,0,1-.71.25,1.1,1.1,0,0,1-.83-.38m3.33-2.84a1.1,1.1,0,0,1,.09-1.55,1.08,1.08,0,0,1,1.54.1,1.05,1.05,0,0,1-.1,1.53,1,1,0,0,1-.71.28,1.09,1.09,0,0,1-.82-.36m-97.92-1A1.09,1.09,0,0,1,65,86.43a1.11,1.11,0,0,1-1,1.21H64a1.07,1.07,0,0,1-1.08-1M164,84.75a1.1,1.1,0,1,1,1.54,0,1,1,0,0,1-.74.29,1.14,1.14,0,0,1-.8-.34M62.29,82.39h0A1.09,1.09,0,0,1,64.43,82a1.09,1.09,0,0,1-.89,1.27h-.17a1.09,1.09,0,0,1-1.08-.92m104.93-.67a1.09,1.09,0,0,1,0-1.54,1.11,1.11,0,0,1,1.55,0,1.09,1.09,0,0,1,0,1.54A1,1,0,0,1,168,82a1.07,1.07,0,0,1-.77-.32M61.44,78.15v0a1.09,1.09,0,0,1,.82-1.31,1.07,1.07,0,0,1,1.31.81A1.09,1.09,0,0,1,62.75,79a1,1,0,0,1-.24,0,1.1,1.1,0,0,1-1.07-.86m108.81.43a1.1,1.1,0,1,1,1.54-.1,1.13,1.13,0,0,1-.81.38,1.14,1.14,0,0,1-.73-.28m2.81-3.35a1.1,1.1,0,1,1,.63.2,1.12,1.12,0,0,1-.63-.2M60.37,74a1.11,1.11,0,0,1,.74-1.36,1.09,1.09,0,0,1,.61,2.1,1,1,0,0,1-.3,0A1.09,1.09,0,0,1,60.37,74m115.06-2.43a1.09,1.09,0,0,1,.82-2,1.09,1.09,0,0,1-.41,2.11,1.19,1.19,0,0,1-.41-.08M59.07,69.87a1.11,1.11,0,0,1,.68-1.4,1.09,1.09,0,1,1,.7,2.07,1,1,0,0,1-.35,0,1.08,1.08,0,0,1-1-.72m116.16-3.22h0s0-.05,0-.06a1.09,1.09,0,0,1,.67-1.39,1.11,1.11,0,0,1,1.4.67s0,0,0,.06a.09.09,0,0,0,0,0,1.09,1.09,0,0,1-.7,1.37,1,1,0,0,1-.35.05,1.09,1.09,0,0,1-1-.75M57.58,65.8a1.09,1.09,0,1,1,2-.8A1.08,1.08,0,0,1,59,66.41a1,1,0,0,1-.4.08,1.11,1.11,0,0,1-1-.69m115.35-2.15h0a1.09,1.09,0,1,1,1.54-.15,1.1,1.1,0,0,1-.84.41,1.08,1.08,0,0,1-.7-.26m-117-1.85a1.09,1.09,0,1,1,2-.88,1.09,1.09,0,0,1-.55,1.44,1.1,1.1,0,0,1-1.44-.56m113.55-.4a1.08,1.08,0,0,1-.45-1.48,1.1,1.1,0,0,1,1.47-.46,1.09,1.09,0,0,1-.51,2.06,1,1,0,0,1-.51-.12m-3.88-1.76h0a1.07,1.07,0,1,1,.41.09,1,1,0,0,1-.41-.09M54.09,57.86a1.06,1.06,0,0,1,.49-1.45,1.09,1.09,0,1,1,1,2,1.18,1.18,0,0,1-.48.1,1,1,0,0,1-1-.61m107.45.35a1.09,1.09,0,1,1,.65-2.08,1.09,1.09,0,0,1,.71,1.37,1.1,1.1,0,0,1-1,.77.75.75,0,0,1-.33-.06M157.38,57h0a1.08,1.08,0,1,1,.28,0,.9.9,0,0,1-.28,0m-4.21-1a1.09,1.09,0,1,1,1.3-.83,1.07,1.07,0,0,1-1.06.86l-.24,0m-4.25-.87h0a1.14,1.14,0,0,1-.88-1.28,1.1,1.1,0,0,1,1.29-.86,1.08,1.08,0,0,1,.87,1.26,1.1,1.1,0,0,1-1.08.89h-.2M52.11,54h0A1.09,1.09,0,0,1,54,53a1.1,1.1,0,0,1-.45,1.48A1.06,1.06,0,0,1,52.11,54m92.53.38a1.09,1.09,0,1,1,1.25-.9,1.09,1.09,0,0,1-1.08.92.47.47,0,0,1-.17,0m-4.3-.65a1.1,1.1,0,0,1-.93-1.24,1.1,1.1,0,1,1,2.17.3,1.08,1.08,0,0,1-1.08,1h-.16M136,53.16a1.09,1.09,0,1,1,1.21-.95,1.08,1.08,0,0,1-1.08.95Zm-4.33-.5h0a1.11,1.11,0,0,1-1-1.21,1.09,1.09,0,0,1,2.17.24,1.09,1.09,0,0,1-1.08,1Zm-4.34-.44h0a1.08,1.08,0,0,1-1-1.17,1.09,1.09,0,1,1,2.17.19,1.07,1.07,0,0,1-1.08,1ZM123,51.86a1.1,1.1,0,0,1-1-1.18,1.08,1.08,0,1,1,1.09,1.18Zm-4.36-.32a1.14,1.14,0,1,1,.08,0Zm-4.35-.26a1.11,1.11,0,0,1-1-1.15,1.09,1.09,0,1,1,1.09,1.15ZM110,51.06a1.1,1.1,0,0,1,.1-2.19,1.1,1.1,0,0,1,0,2.19Zm-4.41-.29h0a1.09,1.09,0,1,1,1.19-1,1.1,1.1,0,0,1-1.09,1ZM50,50.2a1.09,1.09,0,0,1,1.89-1.09,1.09,1.09,0,0,1-.41,1.5A1.09,1.09,0,0,1,50,50.2m51.14.09a1.09,1.09,0,0,1,.28-2.17,1.09,1.09,0,0,1-.14,2.18h-.14m-4.37-.67a1.09,1.09,0,1,1,.37-2.14A1.08,1.08,0,0,1,97,49.63h-.19m-4.34-.85a1.1,1.1,0,0,1,.47-2.14,1.11,1.11,0,0,1,.83,1.31,1.07,1.07,0,0,1-1.06.86l-.24,0m-4.29-1a1.09,1.09,0,0,1-.79-1.33,1.11,1.11,0,0,1,1.34-.78,1.09,1.09,0,0,1-.28,2.15.84.84,0,0,1-.27,0M47.79,46.46a1.1,1.1,0,1,1,1.5.36,1.13,1.13,0,0,1-.56.16,1.11,1.11,0,0,1-.94-.52m36.1.08h0a1.08,1.08,0,0,1-.73-1.35,1.1,1.1,0,0,1,1.36-.73,1.11,1.11,0,0,1,.74,1.36,1.09,1.09,0,0,1-1.05.78.73.73,0,0,1-.32-.06M79.7,45.19A1.07,1.07,0,0,1,79,43.81a1.1,1.1,0,0,1,1.39-.69v0a1.08,1.08,0,0,1-.35,2.11,1,1,0,0,1-.35-.06m-4.15-1.5a1.09,1.09,0,1,1,.77-2,1.09,1.09,0,0,1,.62,1.41,1.05,1.05,0,0,1-1,.7.78.78,0,0,1-.38-.07m-30.09-.9a1.12,1.12,0,0,1,.32-1.52A1.1,1.1,0,0,1,47,43.11a1.21,1.21,0,0,1-.6.17,1.12,1.12,0,0,1-.92-.49m26-.75a1.09,1.09,0,0,1-.59-1.43A1.12,1.12,0,0,1,72.3,40a1.09,1.09,0,1,1-.86,2m-4-1.76a1.14,1.14,0,1,1,.45.09,1.24,1.24,0,0,1-.45-.09M43.06,39.14a1.07,1.07,0,0,1,.29-1.51,1.1,1.1,0,0,1,1.52.29,1.11,1.11,0,0,1-.29,1.52,1.1,1.1,0,0,1-.62.19,1.06,1.06,0,0,1-.9-.49m20.37-.75a1.12,1.12,0,0,1-.5-1.47,1.09,1.09,0,1,1,1.95,1,1.08,1.08,0,0,1-1,.6,1.15,1.15,0,0,1-.48-.1m-3.92-2a1.13,1.13,0,1,1,.51.11,1.11,1.11,0,0,1-.51-.11m-18.94-.81a1.09,1.09,0,1,1,1.78-1.26,1.11,1.11,0,0,1-.25,1.53,1.16,1.16,0,0,1-.64.19,1.1,1.1,0,0,1-.89-.46m15.06-1.31h0a1.09,1.09,0,1,1,1.08-1.9h0a1.08,1.08,0,0,1-.52,2,1.16,1.16,0,0,1-.54-.13M38,32a1.11,1.11,0,0,1,.23-1.53,1.1,1.1,0,0,1,1.3,1.78,1.08,1.08,0,0,1-.64.2A1.12,1.12,0,0,1,38,32m13.8,0a1.09,1.09,0,1,1,1.12-1.88,1.09,1.09,0,0,1-.57,2,1,1,0,0,1-.55-.15m-3.76-2.28a1.1,1.1,0,0,1,1.15-1.87,1.1,1.1,0,0,1-.59,2,1,1,0,0,1-.56-.16M35.43,28.49a1.09,1.09,0,1,1,1.53.24,1.12,1.12,0,0,1-.64.22,1.1,1.1,0,0,1-.89-.46m8.91-1.06A1.1,1.1,0,0,1,44,25.92a1.08,1.08,0,0,1,1.51-.32,1.1,1.1,0,0,1-.6,2,1,1,0,0,1-.58-.18m-11.49-2.5a1.09,1.09,0,0,1,.26-1.52,1.1,1.1,0,0,1,1.53.26,1.12,1.12,0,0,1-.26,1.52,1.2,1.2,0,0,1-.64.2,1.1,1.1,0,0,1-.89-.46m7.81.11a1.09,1.09,0,1,1,1.51-.32,1.13,1.13,0,0,1-.92.5,1.1,1.1,0,0,1-.59-.18M37,22.67a1.09,1.09,0,0,1-.34-1.5,1.09,1.09,0,1,1,.92,1.67,1.05,1.05,0,0,1-.58-.17m-6.56-1.62A1.09,1.09,0,0,1,31,19.59a1.11,1.11,0,0,1,1.46.54,1.09,1.09,0,0,1-.54,1.45,1,1,0,0,1-.45.1,1.08,1.08,0,0,1-1-.63m2.88-.54A1.11,1.11,0,0,1,32.82,19a1.09,1.09,0,0,1,2,1,1.09,1.09,0,0,1-1,.61,1.22,1.22,0,0,1-.49-.12" transform="translate(0 -0.16)"/></g></g></g></svg>