<svg width="240" height="176" viewBox="0 0 240 176" fill="none" xmlns="http://www.w3.org/2000/svg">
	<g clip-path="url(#clip0)">
		<path d="M180.733 151.334C213.252 151.334 239.616 125.012 239.616 92.5446V91.076H239.598C239.598 90.5906 239.616 90.1021 239.616 89.6136C239.616 55.5282 211.937 27.894 177.797 27.894C177.451 27.894 177.105 27.894 176.763 27.894C169.547 27.9949 162.429 26.2221 156.105 22.7495C146.028 17.2524 134.724 14.3825 123.24 14.4051H123.03C120.85 14.4088 118.707 13.8379 116.819 12.7504C105.074 6.03222 91.7081 2.66023 78.1768 3.0016C37.7521 3.93892 5.64844 37.3313 5.64844 77.7032C5.64844 118.369 38.6757 151.334 79.3939 151.334H180.733Z" fill="#FDE3E3"/>
		<path fill-rule="evenodd" clip-rule="evenodd" d="M100.43 127.723C100.43 127.723 92.9257 119.175 83.5038 113.264C74.0819 107.352 40.4033 120.591 32.2016 119.535C23.9999 118.478 14.2171 121.705 19.1069 128.81C23.9968 135.915 1.83491 135.39 3.93275 145.319C6.03059 155.247 16.4953 151.941 16.4953 151.941L98.6872 152.469L100.43 127.723Z" fill="#639E9A"/>
		<path d="M97.2895 144.448C97.2895 144.448 79.3172 132.95 78.7913 116.747" stroke="white" stroke-width="2" stroke-miterlimit="10" stroke-linecap="round"/>
		<path d="M88.883 137.356C88.883 137.356 82.4182 139.908 76.6506 135.256" stroke="white" stroke-width="2" stroke-miterlimit="10" stroke-linecap="round"/>
		<path fill-rule="evenodd" clip-rule="evenodd" d="M101.201 154.973C101.201 154.973 85.8157 154.667 94.2621 138.104C102.708 121.541 88.831 110.271 93.3447 104.968C97.8584 99.6645 123.819 100.147 124.121 117.016C124.424 133.885 144.647 127.259 145.258 143.526C145.87 159.793 101.201 154.973 101.201 154.973Z" fill="#84CFC8"/>
		<path d="M119.265 159.256C119.265 159.256 114.726 147.062 116.996 139.047C119.265 131.033 117.519 124.655 113.506 120.616C109.494 116.576 104.944 112.393 104.944 106.644" stroke="white" stroke-width="2" stroke-miterlimit="10" stroke-linecap="round"/>
		<path d="M116.558 147.569C116.558 147.569 128.002 143.578 128.874 138.352" stroke="white" stroke-width="2" stroke-miterlimit="10" stroke-linecap="round"/>
		<path d="M117.008 139.047C117.008 139.047 103.919 135.564 103.571 129.814" stroke="white" stroke-width="2" stroke-miterlimit="10" stroke-linecap="round"/>
		<path d="M71.4582 144.448C71.4582 144.448 47.7306 125.983 30.9814 125.11" stroke="white" stroke-width="2" stroke-miterlimit="10" stroke-linecap="round"/>
		<path d="M47.4244 129.814C47.4244 129.814 35.6907 140.806 16.4951 140.095" stroke="white" stroke-width="2" stroke-miterlimit="10" stroke-linecap="round"/>
		<path d="M55.1677 133.784C55.1677 133.784 58.3755 130.7 57.1555 124.429" stroke="white" stroke-width="2" stroke-miterlimit="10" stroke-linecap="round"/>
		<path d="M61.8496 138.059C61.8496 138.059 55.6815 142.479 48.4858 139.832" stroke="white" stroke-width="2" stroke-miterlimit="10" stroke-linecap="round"/>
		<path d="M86.1951 121.971C86.1951 121.971 88.9473 128.736 84.4917 132.102" stroke="white" stroke-width="2" stroke-miterlimit="10" stroke-linecap="round"/>
		<path d="M181.714 60.954C183.512 61.183 181.408 68.3121 178.655 67.8572C175.903 67.4023 177.292 62.0776 177.292 62.0776C177.292 62.0776 179.833 60.7098 181.714 60.954Z" fill="#231F20"/>
		<path d="M186.803 68.3453C186.372 67.8445 184.555 66.8706 184.555 66.8706C182.989 66.3485 182.127 66.0524 181.466 65.3867C180.806 64.7212 178.286 64.828 178.286 64.828C178.286 64.828 178.655 62.5077 180.295 60.8589C180.295 60.8589 181.558 61.2284 181.95 61.0849C182.735 60.8101 183.292 59.653 184.824 59.4454C186.356 59.2378 188.188 58.2241 188.188 58.2241C188.188 58.2241 188.906 58.682 188.347 59.2651C187.787 59.8484 186.546 60.1017 186.377 60.4406C186.343 60.5064 186.315 60.5761 186.298 60.6482C186.299 60.6543 186.299 60.6605 186.298 60.6666C186.258 60.7881 186.244 60.9169 186.259 61.0439C186.274 61.171 186.316 61.2934 186.383 61.4024C186.389 61.4212 186.399 61.4381 186.414 61.4513C187.026 62.1382 189.029 62.5565 189.94 62.6572C191.203 62.7946 192.937 63.0817 192.536 63.8083C192.136 64.5349 191.531 63.7381 188.671 63.9457L188.597 64.2296C188.389 64.2571 190.2 65.0417 191.962 65.4112C193.166 65.6707 192.606 66.4034 192.2 66.5256C191.793 66.6477 190.616 66.2203 189.754 66.0402L188.225 65.7073L187.992 66.0127C189.933 67.5148 190.867 67.2339 190.812 67.9331C190.756 68.6323 189.011 68.1438 188.386 67.6735C187.932 67.3996 187.446 67.1803 186.94 67.0202C188.203 68.4582 188.97 68.4247 188.802 68.9804C188.635 69.536 187.234 68.843 186.803 68.3453Z" fill="#E68E3A"/>
		<path d="M186.277 60.6758C186.237 60.7973 186.223 60.9261 186.238 61.0531C186.253 61.1802 186.295 61.3025 186.362 61.4116" fill="#E68E3A"/>
		<path d="M165.115 158.567C165.117 158.904 165.097 159.241 165.056 159.576H147.904C147.904 159.238 147.904 158.899 147.925 158.567C148.081 155.717 148.623 152.903 149.537 150.201L153.818 148.369C154.188 150.576 155.137 151.984 156.332 152.902C156.636 153.144 156.964 153.354 157.311 153.532C157.47 153.617 157.616 153.693 157.791 153.767C158.145 153.928 158.512 154.064 158.885 154.172C160.4 154.631 161.944 154.729 163.001 154.89C164.83 155.156 165.115 157.293 165.115 158.567Z" fill="#231F20"/>
		<path d="M165.115 158.567C165.117 158.905 165.097 159.241 165.056 159.577H147.904C147.904 159.238 147.904 158.899 147.925 158.567H165.115Z" fill="#231F20"/>
		<path d="M137.944 158.567C137.919 158.91 137.854 159.25 137.748 159.577H126.323C126.183 159.252 126.075 158.913 126.002 158.567C124.877 153.107 134.106 146.43 134.106 146.43L134.88 149.639C134.88 149.639 134.602 154.778 136.641 155.846C137.864 156.487 138.02 157.696 137.944 158.567Z" fill="#231F20"/>
		<path d="M125.993 158.567H137.934C137.91 158.91 137.845 159.25 137.739 159.577H126.323C126.18 159.252 126.069 158.913 125.993 158.567Z" fill="#231F20"/>
		<path d="M131.959 70.3359C131.959 81.1868 128.467 120.334 128.091 123.125C127.372 128.477 125.993 154.988 125.993 154.988C125.993 154.988 131.916 150.209 135.268 153.767L135.629 145.114L146.142 84.6888L147.152 84.5178C147.152 84.5178 147.87 152.96 147.894 155.766L157.965 152.902L156.588 148.934L157.169 136.938C157.169 136.938 160.418 77.9108 161.13 71.4106L131.959 70.3359Z" fill="#444152"/>
		<path d="M161.124 64.0158C165.017 65.7379 178.653 67.8568 178.653 67.8568C177.344 63.0755 181.711 60.9536 181.711 60.9536C181.711 60.9536 169.971 57.5065 170.053 56.6486C170.136 55.7906 168.681 56.038 168.681 56.038C168.681 56.038 165.05 31.3379 160.854 25.8636C157.382 24.2204 153.757 22.9167 150.032 21.9708C148.197 21.5038 146.082 21.8915 143.892 21.9952C142.339 22.0664 140.8 22.3122 139.304 22.7281C133.69 24.2944 129.754 27.9703 129.155 30.8556C128.394 34.4766 131.497 73.0472 131.497 73.0472C131.497 73.0472 134.274 75.4439 147.842 75.1843C158.319 74.9858 161.096 72.4365 161.096 72.4365V39.3158" fill="#90343A"/>
		<path d="M152.711 3.88414C146.378 0.846246 141.934 2.10109 141.845 10.9247C141.812 12.2458 142.03 13.5613 142.485 14.8023L142.121 14.7748C144.261 18.8079 141.845 22.7129 141.845 22.7129C146.394 25.7661 148.54 24.7616 148.54 24.7616L150.409 19.1774C151.234 18.957 151.957 18.4574 152.454 17.7638C153.16 16.7196 153.818 14.8145 154.213 12.7383C154.304 12.2681 154.381 11.7888 154.442 11.3094C154.852 8.04864 154.533 4.75734 152.711 3.88414Z" fill="#E68E3A"/>
		<path d="M154.088 5.55121C154.088 5.55121 156.118 5.2459 156.892 3.84449C156.427 3.92522 155.952 3.92522 155.488 3.84449C155.488 3.84449 156.458 3.16669 156.118 1.52715C156.118 1.52715 154.094 1.8172 153.341 1.52715L154.442 0.708905C153.19 0.738696 151.939 0.608388 150.72 0.321154C148.58 -0.161245 144.097 -0.353593 141.433 1.62485C138.77 3.6033 137.018 12.8086 142.813 16.7899L142.457 14.7748C142.457 14.7748 141.466 12.9429 141.847 11.7003C142.226 10.4576 142.922 11.459 142.922 11.459C142.922 11.459 144.953 8.2105 144.953 6.0733V3.93609C144.953 3.93609 151.329 2.47973 154.088 5.55121Z" fill="#010101"/>
		<path d="M142.766 10.9828C142.766 10.9828 141.491 9.18149 140.072 10.0852C138.653 10.989 140.599 14.265 142.039 14.2803C143.479 14.2956 142.766 10.9828 142.766 10.9828Z" fill="#E68E3A"/>
		<path d="M139.307 54.2247C140.754 54.2003 141.57 60.8377 138.744 61.5522C138.744 61.5369 135.357 54.2918 139.307 54.2247Z" fill="#491B26"/>
		<path d="M139.247 60.2026C139.858 60.453 144.201 61.9887 145.057 61.8728L145.154 61.8575C145.989 61.6926 146.926 60.8774 147.51 60.6667C148.094 60.4561 148.328 59.8668 148.86 59.473C149.392 59.0791 149.723 57.8823 149.723 57.8823C149.723 57.8823 151.53 56.2672 150.775 56.0503C149.833 55.7847 148.763 56.7312 148.763 56.7312L146.426 57.1495C146.426 57.1495 143.62 56.0412 143.739 55.4794C143.858 54.9176 145.019 55.3786 146.036 55.2962C146.708 55.2443 146.757 54.5115 146.757 54.5115L145.026 54.075C145.026 54.075 142.5 53.6658 141.968 53.8918C141.436 54.1177 139.429 55.3695 139.429 55.3695L135.69 55.2871L134.968 60.1722C134.968 60.1722 138.629 59.9584 139.247 60.2026Z" fill="#E68E3A"/>
		<path d="M134.155 40.9432L129.92 52.1788C129.92 52.1788 130.751 53.7054 130.069 53.965L139.307 54.2244C139.307 54.2244 136.943 56.6852 138.745 61.552C138.745 61.552 126.666 65.1669 121.491 61.552C119.996 60.5078 119.125 57.5127 119.568 55.348C124.72 30.19 132.879 25.8789 132.879 25.8789" fill="#90343A"/>
		<path d="M151.585 16.0296C150.999 15.7294 150.368 15.5233 149.717 15.419C148.8 15.306 148.965 16.6158 149.858 17.144C150.751 17.6722 151.809 17.031 152.142 16.5028C152.475 15.9746 151.585 16.0296 151.585 16.0296Z" fill="#231F20"/>
		<path d="M150.212 12.03C150.493 12.03 150.72 11.6692 150.72 11.224C150.72 10.7788 150.493 10.418 150.212 10.418C149.932 10.418 149.705 10.7788 149.705 11.224C149.705 11.6692 149.932 12.03 150.212 12.03Z" fill="#231F20"/>
		<path d="M154.095 11.4556C154.135 11.0123 153.941 10.6324 153.662 10.6073C153.382 10.5821 153.124 10.9211 153.084 11.3644C153.044 11.8078 153.238 12.1876 153.517 12.2128C153.795 12.238 154.055 11.899 154.095 11.4556Z" fill="#231F20"/>
		<path d="M150.629 9.21493C150.629 9.21493 149.5 8.47911 148.304 9.57215" stroke="#231F20" stroke-miterlimit="10" stroke-linecap="round"/>
		<path d="M154.384 10.0025C154.317 9.84973 154.219 9.71261 154.096 9.6001C153.973 9.4876 153.827 9.40222 153.669 9.34952C153.511 9.29683 153.343 9.27799 153.177 9.29423C153.01 9.31047 152.85 9.36144 152.705 9.44381" stroke="#231F20" stroke-miterlimit="10" stroke-linecap="round"/>
		<path d="M152.267 10.6865C152.267 10.6865 152.641 12.5184 153.106 12.8848C153.57 13.2511 152.267 13.8007 152.267 13.8007" stroke="#231F20" stroke-miterlimit="10" stroke-linecap="round"/>
		<path d="M149.454 13.3034C149.535 12.8382 149.088 12.3724 148.455 12.2629C147.823 12.1535 147.245 12.4421 147.165 12.9072C147.084 13.3724 147.531 13.8382 148.163 13.9476C148.796 14.0571 149.374 13.7685 149.454 13.3034Z" fill="#010101" fill-opacity="0.15"/>
		<path opacity="0.2" d="M161.137 38.0308V64.0162C161.137 64.0162 164.42 65.445 166.234 65.5123C165.771 64.7318 165.4 63.9011 165.128 63.0361C164.598 61.4485 162.635 62.7095 162.528 60.676C162.421 58.6426 162.886 48.6252 161.137 38.0308Z" fill="#231F20"/>
		<path opacity="0.2" d="M130.724 63.0331C130.724 63.0331 136.932 62.389 138.746 61.5371C140.558 60.6853 131.119 68.2541 131.119 68.2541L130.724 63.0331Z" fill="#231F20"/>
		<path d="M141.562 23.3999C141.562 23.3999 144.09 24.9997 145.657 25.6043C147.222 26.2089 148.776 25.6043 149.106 25.2501" stroke="white" stroke-width="0.5" stroke-miterlimit="10"/>
		<path opacity="0.2" d="M149.965 19.2233C149.403 19.4786 148.789 19.595 148.173 19.5626C147.558 19.5302 146.958 19.3499 146.427 19.037C144.485 17.9715 143.118 14.7106 143.118 14.7106L142.776 14.271C142.776 14.271 143.118 18.4324 144.998 19.9957C146.879 21.5589 149.965 19.2233 149.965 19.2233Z" fill="#231F20"/>
		<path d="M144.953 3.93324C144.953 3.93324 141.219 4.63546 139.821 3.91797" stroke="white" stroke-width="0.25" stroke-miterlimit="10"/>
		<path d="M140.718 4.17109C140.718 4.17109 140.843 1.39272 144.785 0.833984" stroke="white" stroke-width="0.25" stroke-miterlimit="10"/>
		<path d="M142.39 4.22607C142.39 4.22607 142.084 2.81856 144.35 2.39417C146.617 1.96978 150.968 2.19266 152.736 1.58203" stroke="white" stroke-width="0.25" stroke-miterlimit="10"/>
		<path d="M155.684 2.39404C155.684 2.39404 153.479 4.24425 152.319 4.27478" stroke="white" stroke-width="0.25" stroke-miterlimit="10"/>
		<path d="M186.564 150.591C186.564 150.857 186.258 151.315 186.341 151.572C186.606 152.487 187.224 154.39 187.429 155.214C187.674 156.24 186.86 158.979 186.628 159.573H185.959C185.943 159.073 185.858 156.951 185.326 156.487C185.326 156.487 183.598 156.163 182.702 157.595C182.392 158.117 182.02 158.601 181.594 159.033H175.903C176.045 158.83 176.211 158.645 176.399 158.484C176.806 158.147 177.277 157.898 177.784 157.751H177.811C178.854 156.908 181.53 153.309 182.093 151.498C184.976 142.002 189.827 119.348 190.368 116.115C190.909 112.882 191.337 96.6847 194.564 83.4798C197.79 70.2749 205.622 91.5096 205.622 91.5096C205.622 91.5096 200.145 111.846 199.444 117.956L186.564 150.591Z" fill="#FDBD6D"/>
		<path d="M181.595 159.573C182.17 159.573 183.276 158.38 184.041 157.779C184.769 157.214 185.188 157.238 185.188 157.238C185.723 157.705 185.931 159.07 185.946 159.573H186.616C186.849 158.963 187.662 156.24 187.418 155.214C187.213 154.39 186.738 153.254 186.592 151.69C184.496 150.5 182.695 154.53 179.998 156.798C178.641 157.937 177.8 157.741 177.8 157.741H177.772C177.199 157.851 176.639 158.025 176.106 158.261C174.98 158.935 174.962 159.353 174.809 159.565L181.595 159.573Z" fill="#0E3A45"/>
		<path d="M219.117 87.7271C219.979 101.188 217.426 104.519 216.432 110.061C215.683 114.25 217.817 120.317 215.665 127.061C214.231 131.552 211.041 150.577 211.041 150.577V158.481H205.714C205.714 158.481 206.632 150.041 206.632 146.754C206.632 132.563 208.591 115.648 208.301 109.215C208.016 102.929 207.078 90.2306 207.078 90.2306L219.117 87.7271Z" fill="#FDBD6D"/>
		<path d="M211.924 159.573C212.059 158.445 211.768 156.481 211.768 155.528C211.768 154.362 211.047 151.373 211.047 151.373C210.823 153.477 210.239 154.811 209.97 155.888C209.702 156.966 207.631 156.694 207.218 155.888C206.806 155.082 206.399 151.474 206.399 151.474C205.444 152.976 206.554 154.988 205.722 155.721C205.138 156.234 205.075 158.563 205.089 159.573H211.924Z" fill="#0E3A45"/>
		<path d="M184.753 47.4039C184.314 46.5856 180.708 50.9455 181.729 53.6201C182.751 56.2946 184.753 55.8458 184.753 55.8458C184.753 55.8458 186.032 49.7762 184.753 47.4039Z" fill="#231F20"/>
		<path d="M174.592 43.6364C175.572 43.8974 176.571 44.0802 177.58 44.1829C177.58 44.1829 176.415 43.5723 175.298 43.1051C175.12 43.0288 174.946 42.9586 174.778 42.8914L172.638 42.235C172.638 42.235 172.276 41.5816 173.087 41.5571C173.76 41.5895 174.424 41.718 175.06 41.9388C175.549 42.122 175.855 42.5494 176.283 42.7204C177.641 43.2942 179.091 43.6219 180.564 43.6882C180.768 43.7023 180.972 43.7023 181.176 43.6882L182.194 43.2608C183.194 44.4424 183.567 45.0928 183.647 45.624L185.573 50.2923L183.662 54.756C183.662 54.756 182.531 50.5976 181.919 48.4878C180.929 48.6266 179.92 48.5218 178.981 48.1825C178.016 47.8008 175.454 48.3901 174.748 47.8589C174.46 47.6452 174.748 47.5322 175.574 47.4498C176.209 47.375 176.828 47.2008 177.408 46.9338C177.026 46.372 175.039 47.2726 174.329 46.3018C174.084 45.969 174.435 45.5904 174.435 45.5904C175.564 45.6942 176.9 45.8377 177.118 45.5476C177.118 45.5476 176.925 45.1996 174.925 44.5859L174.518 44.4607" fill="#FDBD6D"/>
		<path d="M208.396 38.043C208.396 38.043 198.891 40.8153 196.888 42.6716L191.435 59.4976C191.435 59.4976 191.253 58.3221 190.879 58.8014L184.745 47.404C184.745 47.404 184.644 53.6202 181.72 53.6202C181.72 53.6202 187.72 70.1348 191.066 71.0629C194.411 71.9911 200.173 57.4214 200.173 57.4214L208.396 38.043Z" fill="#3C7CA4"/>
		<path d="M188.892 81.8128C191.659 78.8879 214.753 80.8969 217.273 83.544C219.793 86.191 213.548 48.6464 213.548 48.6464C213.548 48.6464 202.166 47.5991 201.53 50.5699C198.185 66.1593 188.892 81.8128 188.892 81.8128Z" fill="#3C7CA4"/>
		<path d="M215.069 62.5535C216.903 67.06 222.579 82.857 220.723 103.979C220.723 103.979 215.191 107.453 203.292 107.056C190.43 106.629 187.273 102.544 187.273 102.544C192.32 82.857 198.86 59.6835 198.86 59.6835C191.736 47.5351 204.185 39.029 204.185 39.029L204.442 38.9404C206.074 38.3939 215.145 35.6278 221.053 39.4076C221.447 39.6552 221.821 39.9329 222.172 40.238C228.554 45.694 215.069 62.5535 215.069 62.5535Z" fill="white"/>
		<path d="M221.062 39.4076C220.291 39.832 219.377 40.2808 218.31 40.7602C198.704 49.5167 203.31 41.3128 203.31 41.3128C203.329 40.7192 203.522 40.1441 203.863 39.658C204.035 39.3979 204.236 39.1573 204.46 38.9405C206.059 38.4062 214.781 35.7377 220.698 39.1848C220.817 39.2519 220.94 39.3282 221.062 39.4076Z" fill="#FDBD6D"/>
		<path d="M218.105 19.0521C217.87 16.3042 224.466 13.5289 226.231 18.7284C228.335 24.9202 222.05 26.0561 220.114 24.4288C218.178 22.8014 218.225 20.4779 218.105 19.0521Z" fill="#231F20"/>
		<path d="M213.453 21.7087C213.453 21.7087 215.549 24.374 215.441 27.8363C215.441 27.8363 216.971 25.9556 217.781 27.5891C218.591 29.2225 215.368 31.61 215.368 31.61C215.368 31.61 220.548 31.9153 221.157 25.1984C221.404 22.3895 217.735 19.8157 213.453 21.7087Z" fill="#231F20"/>
		<path d="M215.964 31.198C219.772 27.2289 221.964 20.8722 217.093 18.393C217.093 18.393 207.933 15.3398 206.084 21.7514C204.426 27.5524 205.618 33.6252 209.007 34.4465C209.111 34.8983 209.591 37.2828 208.521 38.208C208.521 38.208 207.268 40.388 210.12 40.6993C213.689 41.0872 215.677 38.208 215.677 38.208C214.509 35.622 215.438 32.5536 215.964 31.198Z" fill="#FDBD6D"/>
		<path d="M213.548 20.7741C213.548 20.7741 212.803 26.8285 215.432 27.8361C215.432 27.8361 217.466 24.3859 220.151 26.801C220.151 26.801 223.02 18.933 216.261 17.6721C216.261 17.6721 213.444 14.6403 208.518 15.8585C205.053 16.7164 205.068 20.4382 206.377 20.9878C207.759 21.5709 212.683 20.1878 213.548 20.7741Z" fill="#231F20"/>
		<path d="M206.173 26.0073C206.173 26.0073 204.558 28.6086 204.338 28.9231C203.94 29.5337 206.066 30.3764 206.066 30.3764" fill="#FDBD6D"/>
		<path d="M208.452 26.8033C208.531 26.2765 208.341 25.811 208.027 25.7637C207.714 25.7164 207.394 26.1052 207.314 26.632C207.235 27.1589 207.425 27.6244 207.739 27.6717C208.052 27.719 208.372 27.3302 208.452 26.8033Z" fill="#231F20"/>
		<path d="M206.555 31.3476C206.555 31.3476 207.885 31.2987 208.454 30.9201C209.023 30.5415 208.127 32.3399 207.268 32.2482C207.158 32.2442 207.051 32.2165 206.953 32.167C206.856 32.1176 206.771 32.0477 206.703 31.962C206.635 31.8764 206.587 31.7771 206.561 31.671C206.536 31.565 206.534 31.4545 206.555 31.3476Z" fill="#231F20"/>
		<path d="M207.488 24.9512C207.488 24.9512 208.6 24.1634 209.781 25.4763" stroke="#231F20" stroke-miterlimit="10" stroke-linecap="round"/>
		<path d="M180.939 38.3726L175.98 38.0497C175.619 38.0263 175.308 38.2992 175.285 38.6593L174.637 48.5763C174.614 48.9363 174.887 49.2472 175.248 49.2707L180.206 49.5935C180.567 49.617 180.878 49.3441 180.902 48.984L181.549 39.0671C181.573 38.707 181.3 38.396 180.939 38.3726Z" fill="#231F20"/>
		<path d="M180.934 39.4888L175.733 39.1504L175.126 48.4641L180.325 48.8025L180.934 39.4888Z" fill="#414042"/>
		<path d="M179.775 39.7556L177.237 39.5781L177.214 39.8926L179.752 40.07L179.775 39.7556Z" fill="#414042"/>
		<path d="M181.213 44.1827C179.378 41.6028 180.224 40.8853 180.224 40.8853L182.423 43.4988" fill="#FDBD6D"/>
		<path d="M174.634 44.6316C175.142 44.8422 175.919 44.482 175.955 44.14C176.005 43.7126 175.457 43.5019 174.592 43.8347C174.592 43.8316 174.331 44.5064 174.634 44.6316Z" fill="#FDBD6D"/>
		<path d="M174.47 46.3872C174.834 46.668 175.304 46.1582 175.423 45.7765C175.494 45.5414 174.992 45.6025 174.403 45.688C174.35 45.7326 174.308 45.7893 174.283 45.8532C174.256 45.9172 174.247 45.9864 174.253 46.0551C174.259 46.1238 174.283 46.19 174.32 46.2477C174.358 46.3056 174.409 46.3534 174.47 46.3872Z" fill="#FDBD6D"/>
		<path opacity="0.2" d="M208.395 58.2334C208.395 58.2334 205.818 59.5493 203.723 59.4546C201.628 59.36 206.713 61.6284 207.488 68.2538C208.261 74.8792 213.148 93.1768 213.148 93.1768L219.784 91.6716L219.279 88.2459L208.395 58.2334Z" fill="#231F20"/>
		<path d="M210.934 29.2642C211.015 28.799 210.568 28.3332 209.936 28.2238C209.303 28.1145 208.726 28.4029 208.645 28.8681C208.564 29.3333 209.011 29.7991 209.643 29.9085C210.276 30.0179 210.854 29.7295 210.934 29.2642Z" fill="#010101" fill-opacity="0.15"/>
		<path d="M217.273 37.4507C217.273 37.4507 211.566 41.3984 208.221 49.2481C204.876 57.0978 214.215 89.9772 214.215 89.9772C214.215 89.9772 220.208 88.4139 224.808 85.4921L217.979 62.3889C217.979 62.3889 225.38 47.0743 225.505 44.5737C225.505 44.5737 224.233 39.0963 217.273 37.4507Z" fill="#3C7CA4"/>
		<path opacity="0.2" d="M221.163 54.2246C221.163 54.2246 216.004 62.1963 214.487 66.541C212.97 70.8856 218.243 88.6611 218.243 88.6611L220.514 87.7452L221.163 54.2246Z" fill="#231F20"/>
		<path d="M221.622 107.258C221.557 107.832 223.026 108.443 223.026 108.443C223.026 108.443 223.542 109.429 224.3 109.429C225.06 109.429 226.612 106.864 225.398 105.539C224.184 104.214 221.824 105.512 221.622 107.258Z" fill="#FDBD6D"/>
		<path d="M230.955 117.123C231.42 124.084 231.613 123.11 230.86 124.429C230.108 125.748 226.561 129.71 223.309 132.657C222.509 134.911 220.781 136.196 220.518 136.235C219.496 136.379 219.022 136.235 218.249 136.062C218.093 136.082 217.935 136.047 217.802 135.964C215.967 134.727 216.164 117.34 216.558 115.642C216.953 113.945 228.897 107.02 229.757 107.459C229.757 107.459 229.97 107.432 230.27 107.414C230.613 107.391 230.958 107.391 231.301 107.414C231.621 107.408 231.938 107.487 232.218 107.642C232.292 110.849 231.867 114.047 230.955 117.123Z" fill="#84CFC8"/>
		<path d="M226.662 109.111C226.979 109.048 227.303 109.013 227.628 109.008C226.747 101.375 222.102 108.223 221.074 111.145C220.968 111.509 220.891 111.882 220.844 112.26C221.187 112.192 221.529 112.137 221.869 112.097C221.932 111.863 222.007 111.633 222.095 111.407C224.093 106.342 226.487 105.261 226.662 109.111Z" fill="#639E9A"/>
		<path d="M225.738 101.622C225.203 99.9794 224.466 91.3726 224.466 91.3726L220.564 93.0427C220.564 93.0427 222.157 99.5428 221.891 102.971C221.585 104.614 221.622 107.246 221.622 107.246L222.576 106.348C222.576 106.348 224.105 106.626 224.411 107.569C224.593 108.181 224.55 108.838 224.288 109.42C225.297 109.57 225.725 108.036 225.725 108.036C225.725 108.036 227.955 107.056 228.242 106.204C228.53 105.353 225.738 101.622 225.738 101.622Z" fill="#FDBD6D"/>
		<path d="M220.514 120.435L232.236 112.271C232.236 112.271 232.579 115.093 232.236 115.513C231.894 115.935 223.062 122.716 222.45 122.594C221.839 122.472 220.514 120.435 220.514 120.435Z" fill="#639E9A"/>
		<path d="M225.505 44.5737V82.9306L226.23 97.9551C226.23 97.9551 225.572 101.537 221.163 101.979L217.931 77.6425L217.319 58.6214C217.319 58.6214 220.319 47.1354 225.505 44.5737Z" fill="#3C7CA4"/>
		<path d="M217.332 59.4668C217.332 59.4668 217.384 53.3819 222.377 48.1519" stroke="white" stroke-miterlimit="10"/>
		<path opacity="0.2" d="M209.013 34.4708C209.013 34.4708 211.46 35.0479 214.61 32.0283C214.61 32.0283 213.967 34.4708 213.025 34.596C212.084 34.7212 209.013 34.4708 209.013 34.4708Z" fill="#231F20"/>
		<path d="M207.873 20.8626C207.873 20.8626 206.004 19.2902 207.644 17.6721C209.282 16.0539 214.124 18.8048 215.456 18.5483" stroke="white" stroke-width="0.25" stroke-miterlimit="10"/>
		<path d="M209.013 20.8629C209.013 20.8629 208.582 18.805 210.295 18.8478C212.007 18.8905 214.882 20.7347 217.722 19.8554" stroke="white" stroke-width="0.25" stroke-miterlimit="10"/>
		<path d="M213.759 21.4277C213.759 21.4277 218.57 21.8552 219.429 20.6553" stroke="white" stroke-width="0.25" stroke-miterlimit="10"/>
		<path d="M220.753 21.4947C220.753 21.4947 220.203 19.0186 222.377 18.0752" stroke="white" stroke-width="0.25" stroke-miterlimit="10"/>
		<path d="M128.222 162.239L130.883 170.248C130.883 170.248 139.091 170.742 139.323 171.304L127.522 174.534L124.439 163.274L128.222 162.239Z" fill="#231F20"/>
		<path d="M65.9383 175.221H59.1738L54.2656 171.439L60.3512 161.47L63.709 163.512L59.6998 170.944L60.9475 173.915L65.9383 175.221Z" fill="#231F20"/>
		<path d="M110.766 83.7271L131.396 167.86L124.543 169.634L108.134 127.36L96.3293 97.8082L83.6749 138.192L62.1156 169.231L57.0667 165.64L74.6231 125.152L81.8371 85.0582L110.766 83.7271Z" fill="#231F20"/>
		<path d="M70.5619 77.9568C69.7485 79.1047 68.6659 81.1839 69.2562 82.0143C71.5252 85.205 67.5772 86.3925 67.5772 86.3925C67.5772 86.3925 67.8831 89.4946 66.6139 90.2975C65.3448 91.1006 65.8525 88.4657 64.5191 88.6855C63.1859 88.9053 63.9779 86.6887 62.3785 86.6552C60.7792 86.6216 61.0024 85.5163 61.5681 83.5409C61.825 82.6494 64.3204 79.8222 67.6843 73.1144L74.5527 59.6226L80.3416 62.5657L70.5619 77.9568Z" fill="#FDBD6D"/>
		<path d="M77.2256 68.3209L71.0208 64.8342C71.0208 64.8342 84.4518 32.5289 88.4243 30.1626C91.1765 28.52 97.3141 38.0215 95.4731 42.76L77.2256 68.3209Z" fill="#F16566"/>
		<path d="M69.8188 64.413L77.5589 68.8584L80.9472 64.6695C80.9472 64.6695 75.5344 60.7584 74.7301 61.4606C73.9258 62.1629 72.3662 63.8757 72.3662 63.8757L73.7332 60.3432L71.8984 59.6685L69.8188 64.413Z" fill="#F16566"/>
		<g opacity="0.2">
			<path opacity="0.2" d="M77.2256 68.3209L71.0208 64.8342C71.0208 64.8342 84.4518 32.5288 88.4243 30.1626C91.1765 28.52 97.3141 38.0215 95.4731 42.7599L77.2256 68.3209Z" fill="#231F20"/>
			<path opacity="0.2" d="M69.8188 64.4131L77.5589 68.8585L80.9472 64.6696C80.9472 64.6696 75.5344 60.7584 74.7301 61.4607C73.9258 62.163 72.3662 63.8758 72.3662 63.8758L73.7332 60.3432L71.8984 59.6685L69.8188 64.4131Z" fill="#231F20"/>
		</g>
		<path d="M99.8891 31.9094L104.094 26.1419C104.094 26.1419 106.253 27.7448 107.721 27.1372C108.332 26.8838 109.483 25.1679 110.822 22.2705C110.963 21.9652 111.895 23.0674 112.045 22.7468C112.317 22.1362 111.32 18.4083 111.965 17.3091C114.336 13.2881 114.412 11.9997 113.659 10.2869C111.954 6.50094 102.415 2.30286 99.2437 6.48263C96.0726 10.6624 95.5986 13.108 95.3662 20.7256L91.2683 26.8197L99.8891 31.9094Z" fill="#FDBD6D"/>
		<path d="M92.4915 23.0518C92.4915 23.0518 98.7697 25.0181 101.926 28.6391C105.082 32.2601 110.182 42.7324 110.283 43.9048C110.384 45.0773 108.699 58.0104 108.699 58.0104L111.965 83.9897C111.965 83.9897 92.204 90.9265 80.1216 87.1863L84.4028 63.9824C84.4028 63.9824 83.4854 54.023 82.4793 52.8475C81.4732 51.6721 83.2713 41.786 84.0634 37.1909C84.8554 32.5959 88.4732 27.3598 89.7147 26.2911C90.9563 25.2226 92.4915 23.0518 92.4915 23.0518Z" fill="#F16566"/>
		<path d="M116.607 6.43334C116.899 6.32865 117.163 6.15861 117.378 5.9363C117.593 5.71398 117.754 5.44533 117.849 5.15101C119.338 7.16304 118.938 10.2162 117.214 12.0298C115.488 13.8433 112.32 13.6998 109.873 13.1259C108.176 15.6783 105.286 13.2755 105.286 13.2755L103.88 16.3286L101.877 15.8187C101.877 15.8187 101.559 13.4281 99.9991 14.2738C98.4395 15.1195 99.7514 18.8811 99.7514 18.8811L95.36 20.7343C95.36 20.7343 95.0542 16.7133 95.0542 13.9502C95.0542 11.1871 95.0267 4.9434 98.623 4.89149C98.4701 3.57558 99.4334 2.03068 100.657 1.53302C101.88 1.03536 103.302 1.17275 104.534 1.66125C105.767 2.14976 106.852 2.94053 107.916 3.7313C108.98 4.52206 110.057 5.31894 111.28 5.8166C111.793 6.06388 112.369 6.14909 112.932 6.06086C113.482 5.93568 113.984 5.45023 113.95 4.88234C113.944 4.86707 115.712 6.46692 116.607 6.43334Z" fill="#231F20"/>
		<path d="M110.163 18.8964C110.383 18.3377 110.288 17.7778 109.952 17.6458C109.616 17.5138 109.165 17.8596 108.945 18.4183C108.725 18.9769 108.82 19.5369 109.155 19.6689C109.492 19.8009 109.943 19.455 110.163 18.8964Z" fill="#231F20"/>
		<path d="M108.965 24.3218C108.965 24.3218 107.13 24.0165 106.31 22.3281" stroke="#231F20" stroke-linecap="round" stroke-linejoin="round"/>
		<path d="M110.864 15.9321C110.475 15.6973 110.039 15.5502 109.587 15.5011C109.134 15.4521 108.677 15.5023 108.246 15.6481" stroke="#231F20" stroke-linecap="round" stroke-linejoin="round"/>
		<g style="mix-blend-mode:multiply" opacity="0.3">
			<g style="mix-blend-mode:multiply" opacity="0.3">
				<path d="M108.949 67.4721L107.286 97.2495C107.263 97.6813 107.069 98.0862 106.748 98.3762C106.426 98.6661 106.003 98.8175 105.571 98.7975L81.3445 97.68C81.1189 97.6703 80.8976 97.6141 80.6946 97.5149C80.4917 97.4157 80.3115 97.2758 80.1652 97.1037C80.0191 96.9317 79.9102 96.7314 79.8453 96.5153C79.7803 96.2992 79.7609 96.0722 79.788 95.8482L81.5311 81.5258C81.5801 81.1246 81.7757 80.7556 82.0805 80.4897C82.3852 80.2237 82.7777 80.0795 83.1824 80.0848L103.861 80.329C104.296 80.333 104.716 80.1647 105.027 79.8608C105.338 79.557 105.516 79.1423 105.522 78.7077L105.662 67.3653C105.665 67.113 105.727 66.8648 105.841 66.6399C105.956 66.4151 106.121 66.2198 106.324 66.0691C106.526 65.9184 106.762 65.8164 107.01 65.7712C107.259 65.726 107.515 65.7386 107.757 65.8082C108.116 65.9099 108.428 66.1298 108.645 66.4321C108.861 66.7343 108.968 67.101 108.949 67.4721Z" fill="#231F20"/>
			</g>
		</g>
		<path d="M104.059 77.3664L77.1043 75.6119C75.451 75.5043 74.0233 76.7552 73.9155 78.4059L73.0123 92.2379C72.9045 93.8885 74.1574 95.3139 75.8108 95.4215L102.766 97.1759C104.419 97.2836 105.847 96.0326 105.954 94.382L106.857 80.5501C106.966 78.8994 105.712 77.4739 104.059 77.3664Z" fill="#84CFC8"/>
		<path d="M73.7302 81.2693C73.7302 81.2693 81.7454 34.2202 89.7025 26.2759C89.7025 26.2759 81.1552 51.2262 76.9718 79.8679L73.7302 81.2693Z" fill="#84CFC8"/>
		<path d="M104.565 86.0203C105.225 76.5005 105.357 71.4872 105.693 65.21L107.678 66.8556C107.152 77.0684 106.639 83.9166 106.639 83.9166" fill="#84CFC8"/>
		<path d="M108.144 20.398C108.395 19.998 108.157 19.3977 107.614 19.0574C107.07 18.7169 106.425 18.7652 106.174 19.1653C105.923 19.5653 106.16 20.1655 106.705 20.5059C107.248 20.8463 107.892 20.798 108.144 20.398Z" fill="#010101" fill-opacity="0.15"/>
		<path opacity="0.2" d="M107.504 70.1226C107.504 70.1226 85.9319 57.281 86.993 38.1987L107.763 65.8053L107.504 70.1226Z" fill="#231F20"/>
		<path d="M142.503 50.8181C142.767 50.3595 142.61 49.7731 142.151 49.5085C141.691 49.2438 141.104 49.4008 140.84 49.8594L134.249 61.2554C133.984 61.714 134.141 62.3003 134.601 62.565C135.059 62.8298 135.647 62.6727 135.912 62.2142L142.503 50.8181Z" fill="#231F20"/>
		<path d="M114.898 62.3401L130.968 62.7523C130.968 62.7523 132.191 59.8487 132.855 59.2381L134.06 58.4504L135.378 55.5865C135.916 54.6186 136.323 56.2918 136.341 56.649C136.302 57.531 136.211 58.4099 136.066 59.2808C136.066 59.2808 139.185 60.1235 138.971 60.5021C138.757 60.8807 136.28 64.6055 135.671 64.8925C135.063 65.1795 132.032 66.7 132.032 66.7C131.081 66.8405 115.213 69.3287 115.213 69.3287C115.213 69.3287 111.497 68.2358 108.629 65.6069L114.898 62.3401Z" fill="#FDBD6D"/>
		<path d="M138.972 60.5078C139.506 59.7537 139.226 57.012 138.852 57.1829C138.479 57.3539 138.075 58.6668 138.075 58.6668L138.222 59.5217C138.222 59.5217 137.729 59.2164 137.666 59.4025C137.601 59.5888 137.228 60.4376 137.228 60.4376L136.794 62.126" fill="#FDBD6D"/>
		<path d="M108.562 53.2598L115.901 62.6452L110.525 67.3073C110.525 67.3073 87.6108 46.8879 86.7149 42.3601C86.7149 42.3601 86.3937 30.2604 92.7484 29.6406C93.9288 29.5246 94.7209 30.9138 95.4395 31.6923C98.3635 34.8625 100.776 38.4676 102.589 42.3784C102.953 43.16 103.293 43.9568 103.638 44.7537C104.892 47.6817 106.262 50.3105 108.225 52.8721L108.562 53.2598Z" fill="#F16566"/>
		<path d="M116.641 62.3184L109.99 68.2659L105.809 64.8677C105.809 64.8677 110.289 59.9246 111.225 60.4437C112.161 60.9627 114.038 62.3184 114.038 62.3184L111.968 59.1461L113.623 58.105L116.641 62.3184Z" fill="#F16566"/>
		<path opacity="0.2" d="M116.641 62.3184L109.99 68.2659L105.809 64.8677C105.809 64.8677 110.289 59.9246 111.225 60.4437C112.161 60.9627 114.038 62.3184 114.038 62.3184L111.968 59.1461L113.623 58.105L116.641 62.3184Z" fill="#231F20"/>
		<path d="M104.24 46.1005C104.24 46.1005 100.418 36.0677 93.843 29.9736" stroke="white" stroke-miterlimit="10"/>
		<path d="M98.6077 4.8916C98.6077 4.8916 100.048 8.96757 109.88 13.1351" stroke="white" stroke-width="0.25" stroke-miterlimit="10"/>
		<path d="M97.7637 5.03516C98.7295 7.26985 100.473 9.07993 102.672 10.1309" stroke="white" stroke-width="0.25" stroke-miterlimit="10"/>
		<path d="M100.865 7.74032C100.865 7.74032 100.106 5.6764 101.975 4.50399C103.843 3.33157 106.538 4.50399 106.538 4.50399" stroke="white" stroke-width="0.25" stroke-miterlimit="10"/>
		<path d="M103.017 9.44991C103.017 9.44991 102.497 7.61802 104.32 7.00738C106.143 6.39675 110.84 9.39496 112.665 7.00738" stroke="white" stroke-width="0.25" stroke-miterlimit="10"/>
		<path d="M108.256 12.3994C108.256 12.3994 114.243 13.3153 116.283 10.9552C118.323 8.59513 115.195 6.62891 115.195 6.62891" stroke="white" stroke-width="0.25" stroke-miterlimit="10"/>
		<path d="M35.5164 41.1115C29.7734 40.6841 24.5074 37.4477 23.3331 31.6833C22.2781 26.4624 23.853 20.75 27.9874 17.2419C29.4346 15.9688 31.1266 15.0035 32.9599 14.4056C40.6908 12.0393 47.3053 19.7028 50.0331 26.1541C51.4735 29.5614 49.1678 31.9367 47.1861 34.5381C44.2871 38.3423 40.6204 41.4931 35.5164 41.1115Z" fill="#231F20"/>
		<path d="M38.1129 39.7468L33.8958 34.8281C33.8958 34.8281 31.9355 36.0495 30.7215 35.4387C30.2658 35.2037 29.7521 34.3671 28.8866 32.1567C28.7826 31.8941 28.5197 31.4819 28.4188 31.204C28.3178 30.9262 27.1955 31.1582 27.1007 30.8621C26.8959 30.2514 27.4799 28.3738 27.3026 27.7479C26.4891 24.8749 26.0793 21.9805 26.8225 20.6158C28.5472 17.4953 37.0027 14.5644 39.4248 18.3625C40.6737 20.3043 41.3605 22.553 41.4097 24.8601C41.4588 27.1672 40.8682 29.4431 39.7031 31.4361L43.7978 36.6264L38.1129 39.7468Z" fill="#A95225"/>
		<path d="M24.5166 23.1221C30.2934 26.5448 35.0609 32.2115 41.7764 32.3336C41.7336 29.8239 43.5898 23.5007 42.8162 21.1102C42.0424 18.7195 40.4308 16.4785 38.0915 15.5595C36.333 14.8694 34.3423 14.9886 32.5257 15.5015C28.8132 16.5426 25.5136 19.4003 24.5166 23.1221Z" fill="#231F20"/>
		<path d="M30.6573 60.4806L29.2719 65.9458C29.2719 65.9458 17.1253 61.424 16.3974 61.1462C16.3974 61.1462 14.2568 59.4517 13.8134 59.1281C13.3699 58.8044 12.0244 55.4459 11.9265 55.1223C11.8287 54.7987 14.4219 54.6339 14.4219 54.6339C14.4492 53.9179 14.5196 53.2042 14.6329 52.4966C14.7033 52.2188 15.2996 50.97 15.5503 51.8127L16.1283 54.2919L16.954 55.1101C17.3822 55.6994 17.8714 58.1938 17.8714 58.1938L30.6573 60.4806Z" fill="#A95225"/>
		<path d="M31.7276 60.3184C31.7276 60.3184 30.2628 56.1814 27.5014 57.876C24.7399 59.5704 22.5411 57.4546 22.5411 57.4546L17.8776 58.1995L16.3975 61.1398L30.5502 67.1026L31.7276 60.3184Z" fill="#EBEA73"/>
		<path d="M15.2874 57.8609L13.6513 51.8218L12.2935 47.0039L10.5596 47.6512L13.7675 58.0166L15.2874 57.8609Z" fill="#231F20"/>
		<path d="M11.9265 55.1224C11.6206 54.4385 12.2965 52.3165 12.5625 52.5089C12.8286 52.7013 12.9357 53.8095 12.9357 53.8095L12.6788 54.4629C12.6788 54.4629 13.1192 54.3042 13.1405 54.4629C13.162 54.6217 13.3179 55.3514 13.3179 55.3514L13.3883 56.7558" fill="#A95225"/>
		<path opacity="0.2" d="M24.061 64.3735L30.5503 67.103L31.7276 60.3189C31.7276 60.3189 30.2628 56.1819 27.5013 57.8763C26.7226 58.3776 25.7965 58.6004 24.8745 58.5084L24.061 64.3735Z" fill="#231F20"/>
		<path d="M9.80419 152.148L7.45253 159.223C7.45253 159.223 0.204891 159.66 0 160.158L10.4311 163.009L13.1498 153.065L9.80419 152.148Z" fill="#393863"/>
		<path d="M64.8096 163.616H70.785L75.1183 160.273L69.7422 151.471L66.779 153.275L70.3172 159.837L69.2162 162.462L64.8096 163.616Z" fill="#393863"/>
		<path d="M24.7613 122.854L11.7859 158.056L8.08252 157.327L14.4769 120.008L25.0885 86.9028H52.131L56.9231 120.558L72.2562 155.586L69.1522 157.675L48.8681 126.603L47.3299 122.945L37.7458 101.656L24.7613 122.854Z" fill="#444152"/>
		<path d="M28.9141 64.2026C28.9141 64.2026 25.5502 52.9517 25.648 51.9137C25.746 50.8755 30.2352 41.6275 33.0272 38.4309C34.7948 36.4005 37.6754 34.9595 39.5439 34.1779C42.1158 32.468 51.1036 32.1567 52.1708 32.8436C53.2381 33.5305 50.7457 35.7105 51.0118 37.1546C51.2778 38.5987 56.5316 40.4765 54.7396 43.6243C53.6173 45.6089 51.1218 47.8193 49.4277 49.1871C50.1494 52.7685 50.923 56.872 50.2013 59.7938C49.8711 61.1281 48.501 69.628 48.501 69.628L54.0943 90.362C43.4094 93.6656 22.0396 90.362 22.0396 90.362L28.9141 64.2026Z" fill="#EBEA73"/>
		<path d="M57.77 77.1539L20.7826 70.6079L17.5747 91.0824L55.1187 96.749L57.77 77.1539Z" fill="#84CFC8"/>
		<path d="M36.9508 99.0082C37.002 99.0092 37.0522 98.9942 37.0946 98.9655C37.1541 98.9278 37.1963 98.8681 37.2118 98.7994C37.2273 98.7306 37.2148 98.6586 37.1771 98.5992L34.1832 93.9553C34.1643 93.9257 34.1397 93.9001 34.1108 93.88C34.0818 93.86 34.0492 93.8458 34.0148 93.8385C33.9804 93.831 33.9448 93.8306 33.9103 93.837C33.8757 93.8435 33.8427 93.8566 33.8133 93.876C33.7539 93.9146 33.7123 93.9751 33.6974 94.0444C33.6825 94.1135 33.6956 94.1857 33.7337 94.2453L36.7276 98.8861C36.7511 98.9239 36.7841 98.9549 36.8232 98.9764C36.8623 98.9977 36.9063 99.0088 36.9508 99.0082Z" fill="#49488A"/>
		<path d="M26.5564 87.9223C27.4403 87.7482 28.0121 85.7576 28.1895 84.5302C29.3516 84.2767 30.9998 82.7257 32.1375 82.3716C30.2078 88.7099 30.0824 92.0318 29.691 92.7523C28.85 94.3583 28.3209 95.1949 27.2751 94.2544C26.2292 93.3141 25.3883 95.204 24.6666 94.2544C23.9449 93.305 22.6757 95.3109 22.3424 94.0194C22.009 92.7279 24.1008 90.9296 24.1008 90.9296C24.1008 90.9296 23.162 88.597 26.5564 87.9223Z" fill="#A95225"/>
		<path d="M29.342 28.9659C29.6734 28.8719 29.8241 28.3814 29.6786 27.8705C29.5332 27.3596 29.1466 27.0217 28.8152 27.1158C28.4837 27.2098 28.3331 27.7003 28.4785 28.2112C28.624 28.7221 29.0106 29.06 29.342 28.9659Z" fill="#231F20"/>
		<path d="M27.8103 26.2578C27.8103 26.2578 27.9081 25.7112 29.2475 25.5952" stroke="#231F20" stroke-miterlimit="10" stroke-linecap="round"/>
		<path d="M31.3645 30.7932C31.9247 30.4805 32.1917 29.893 31.961 29.4808C31.7302 29.0688 31.089 28.9882 30.5288 29.3009C29.9687 29.6136 29.7016 30.2011 29.9323 30.6133C30.1631 31.0253 30.8043 31.1059 31.3645 30.7932Z" fill="#010101" fill-opacity="0.15"/>
		<path d="M29.6785 33.3839C30.0814 33.3754 30.4784 33.2861 30.8462 33.1215C31.2139 32.9568 31.5447 32.72 31.819 32.4253" stroke="#010101" stroke-miterlimit="10"/>
		<path opacity="0.2" d="M45.2075 46.2344L36.2779 71.4993L35.4553 73.1968L39.9446 73.9937C39.9446 73.9937 47.4246 52.127 47.4246 50.1149C47.4246 48.103 45.2075 46.2344 45.2075 46.2344Z" fill="#231F20"/>
		<path d="M44.9842 46.5244C46.0882 50.4477 31.8559 87.8122 31.8559 87.8122L25.7581 86.2856C25.7581 86.2856 28.0761 77.7368 27.7092 74.5951C27.3422 71.4534 27.3727 70.3207 29.8926 67.5973C32.4124 64.8739 31.0944 54.4687 32.7978 50.3255" fill="#EBEA73"/>
		<path d="M31.957 54.6247C31.957 54.6247 33.2995 45.0317 37.6725 44.2622" stroke="#231F20" stroke-miterlimit="10"/>
		<path d="M26.4309 22.7926C26.4309 22.7926 26.4125 19.8036 30.3635 17.297C34.3146 14.7902 41.1372 18.68 41.1372 18.68" stroke="white" stroke-width="0.25" stroke-miterlimit="10"/>
		<path d="M29.0791 22.0137C29.0791 22.0137 33.5347 28.2299 40.8986 28.5902C48.2624 28.9504 48.0117 32.5226 48.0117 32.5226" stroke="white" stroke-width="0.25" stroke-miterlimit="10"/>
		<path d="M31.7275 21.4766C31.7275 21.4766 35.2719 24.4046 41.9139 24.3466C48.5561 24.2885 49.339 31.6406 49.339 31.6406" stroke="white" stroke-width="0.25" stroke-miterlimit="10"/>
		<path d="M127.117 51.2028C132.151 51.2028 136.233 47.128 136.233 42.1014C136.233 37.0748 132.151 33 127.117 33C122.082 33 118 37.0748 118 42.1014C118 47.128 122.082 51.2028 127.117 51.2028Z" fill="white"/>
		<path d="M130.664 41.6265C130.574 41.6265 130.487 41.5915 130.423 41.5292C130.358 41.4668 130.322 41.3822 130.321 41.2938C130.322 40.8341 130.23 40.3788 130.05 39.954C129.871 39.5293 129.607 39.1434 129.274 38.8185C129.225 38.7545 129.202 38.6755 129.208 38.596C129.214 38.5166 129.249 38.4419 129.307 38.3855C129.364 38.3292 129.441 38.2949 129.522 38.289C129.604 38.2831 129.684 38.3059 129.75 38.3533C130.148 38.7388 130.463 39.1977 130.677 39.7033C130.892 40.2089 131.002 40.7511 131 41.2984C130.999 41.3851 130.963 41.4678 130.9 41.5291C130.838 41.5903 130.753 41.6253 130.664 41.6265Z" fill="#F16566"/>
		<path d="M123.84 41.6262C123.796 41.6262 123.752 41.6176 123.71 41.6009C123.669 41.5842 123.631 41.5597 123.6 41.5288C123.568 41.4979 123.543 41.4612 123.526 41.4209C123.509 41.3805 123.5 41.3373 123.5 41.2936C123.498 40.7464 123.608 40.2044 123.822 39.6989C124.036 39.1934 124.351 38.7343 124.748 38.3484C124.813 38.301 124.894 38.2782 124.975 38.2841C125.057 38.29 125.133 38.3243 125.191 38.3806C125.249 38.437 125.284 38.5117 125.29 38.5912C125.296 38.6706 125.272 38.7496 125.224 38.8137C124.891 39.1383 124.626 39.5241 124.446 39.9489C124.266 40.3737 124.173 40.8291 124.174 41.2889C124.175 41.3767 124.141 41.4615 124.078 41.5247C124.016 41.5879 123.93 41.6244 123.84 41.6262Z" fill="#F16566"/>
		<path d="M130.453 43.6368C130.198 43.4274 129.993 43.166 129.853 42.871C129.712 42.576 129.64 42.2545 129.641 41.9292V40.9987C129.642 40.4374 129.435 39.8946 129.059 39.4705C128.682 39.0464 128.162 38.7695 127.593 38.6909V38.3327C127.593 38.2444 127.557 38.1598 127.493 38.0974C127.429 38.035 127.343 38 127.253 38C127.162 38 127.076 38.035 127.012 38.0974C126.948 38.1598 126.912 38.2444 126.912 38.3327V38.7026C126.343 38.7811 125.823 39.058 125.446 39.4821C125.07 39.9063 124.863 40.449 124.864 41.0103V41.9409C124.865 42.267 124.792 42.5892 124.651 42.885C124.51 43.1807 124.305 43.4429 124.05 43.6531C123.984 43.7074 123.931 43.7751 123.895 43.8514C123.859 43.9278 123.84 44.0109 123.841 44.0951C123.841 44.2498 123.904 44.3979 124.016 44.5073C124.128 44.6167 124.28 44.6784 124.438 44.679H130.067C130.189 44.6792 130.309 44.6425 130.41 44.5739C130.51 44.5053 130.587 44.4082 130.629 44.2956C130.671 44.1831 130.677 44.0606 130.645 43.9449C130.614 43.8291 130.546 43.7256 130.453 43.6484V43.6368Z" fill="#F16566"/>
		<path d="M127.253 45.9998C127.547 45.9993 127.833 45.8995 128.061 45.7173C128.289 45.535 128.446 45.2816 128.505 44.9995H125.998C126.057 45.2819 126.214 45.5357 126.443 45.718C126.672 45.9003 126.958 45.9998 127.253 45.9998Z" fill="#F16566"/>
		<path d="M134.524 46.3168L136.182 50.002C136.239 50.1289 136.261 50.2695 136.242 50.4077C136.224 50.546 136.168 50.6765 136.08 50.7845C135.991 50.8924 135.874 50.9736 135.742 51.0188C135.611 51.0639 135.468 51.0713 135.331 51.04L130.968 50.0569C130.837 50.0271 130.717 49.9629 130.619 49.871C130.522 49.7791 130.451 49.6628 130.412 49.5342C130.375 49.4056 130.373 49.2693 130.406 49.1395C130.439 49.0097 130.507 48.8911 130.601 48.7959L133.307 46.0939C133.393 46.0081 133.499 45.9445 133.615 45.9084C133.732 45.8723 133.855 45.8649 133.974 45.8868C134.094 45.9087 134.207 45.9594 134.302 46.0342C134.398 46.1091 134.474 46.206 134.524 46.3168Z" fill="white"/>
	</g>
	<defs>
		<clipPath id="clip0">
			<rect width="240" height="175.221" fill="white"/>
		</clipPath>
	</defs>
</svg>
