<svg width="193" height="211" viewBox="0 0 193 211" fill="none" xmlns="http://www.w3.org/2000/svg">
<path fill-rule="evenodd" clip-rule="evenodd" d="M107.495 188.348C172.638 200.157 183.597 179.82 189.487 155.615C202.528 102.135 167.92 65.1239 143.099 65.5049C106.938 66.0323 123.817 99.4098 65.2086 90.6478C0.24136 80.9482 -6.67442 149.315 4.19742 170.062C26.996 213.461 42.3514 176.568 107.495 188.348Z" fill="#FFE4E4"/>
<path d="M56.711 169.301C56.1249 169.389 55.5096 169.389 54.8942 169.359C54.8942 169.359 55.9491 169.095 56.0663 168.92C56.1836 168.744 55.6268 168.832 55.1286 168.89C54.6304 168.949 53.3117 168.978 53.3117 168.978C51.7293 168.451 50.1469 167.66 48.6231 167.015C47.8612 166.693 47.1286 166.341 46.4253 165.96C46.1029 165.784 45.8099 165.608 45.5462 165.374C45.2531 165.139 45.3996 165.198 45.1945 164.817C44.9015 164.143 44.6084 163.352 44.3154 162.59C44.0223 161.828 43.7586 161.008 43.4949 160.216C43.2018 159.308 42.9088 158.429 42.6157 157.52C42.2641 156.436 41.1212 155.821 40.0077 156.172C38.9234 156.524 38.308 157.667 38.6597 158.78C38.689 158.898 38.7183 158.986 38.7769 159.073C39.2165 159.953 39.6267 160.802 40.0956 161.682C40.4765 162.443 40.8868 163.205 41.2971 163.997C41.7073 164.788 42.1469 165.52 42.6743 166.341C42.733 166.429 42.8209 166.575 42.9088 166.663L43.026 166.839C43.0846 166.898 43.1725 166.986 43.2311 167.074C43.4656 167.308 43.7293 167.513 44.0223 167.66C44.4619 167.894 44.9015 168.099 45.3703 168.275C46.2201 168.568 47.07 168.832 47.9491 169.037C49.6487 169.447 51.3484 169.769 53.048 170.033C54.3081 171.117 55.2458 170.707 56.1836 170.297C57.1506 169.828 57.2385 169.183 56.711 169.301Z" fill="#F7CA9F"/>
<path d="M41.7942 135.483C40.9444 135.63 40.1239 135.747 39.274 135.776C39.6257 135.395 39.7429 134.663 39.2447 134.985C38.6587 135.307 38.0433 135.601 37.3986 135.835C36.6074 136.128 35.0543 135.718 34.2044 135.659C33.677 135.601 33.2667 135.395 33.003 135.894C32.8271 136.304 32.8271 136.773 33.003 137.183C33.2667 137.593 33.677 137.447 34.1751 137.417C34.6733 137.388 35.2594 137.388 35.8162 137.329C36.2557 137.3 37.0469 137.066 37.4572 137.183C38.3363 137.417 39.2154 137.564 40.1239 137.623C41.3546 137.593 42.8492 135.249 41.7942 135.483Z" fill="#F9AE9A"/>
<path d="M36.6674 135.6C36.8432 135.542 37.0191 135.542 37.1949 135.571C37.3707 135.659 37.5465 136.978 37.4293 137.3C37.2828 137.622 36.9898 137.505 36.6967 137.388C36.4037 137.271 36.5209 135.981 36.6674 135.6Z" fill="#D7CBE5"/>
<path d="M17.6198 127.278C17.6198 127.278 17.1216 128.567 18.9678 130.765C20.814 132.963 24.0667 136.919 25.1803 137.417C26.2938 137.915 34.6455 137.68 35.3781 137.827C36.1107 137.974 36.5796 137.856 36.814 137.27C36.9019 136.831 36.8433 135.541 36.4331 135.336C36.0228 135.131 35.7884 135.336 35.0851 135.365C34.3818 135.395 27.5246 134.985 26.5576 133.988C26.0887 133.519 22.3671 127.688 21.8689 126.897C21.3707 126.105 19.1436 124.757 17.6198 127.278Z" fill="#CC9289"/>
<path d="M105.267 61.8122C102.015 61.5192 98.7618 62.2811 95.9486 63.9807L97.7362 43.2627C97.7362 43.2627 69.7507 41.3872 41.3843 50.4715C33.5308 53.021 27.8751 59.9368 26.9374 68.1419C25.7359 78.3105 24.7103 93.4021 26.1755 109.607L48.5345 111.541C42.6737 105.27 42.9961 95.4534 49.2671 89.5926C55.5382 83.7317 65.3551 84.0541 71.2159 90.3252C77.0768 96.5962 76.7544 106.413 70.4833 112.274C70.0731 112.655 69.6628 113.007 69.2233 113.329L91.553 115.234L93.8094 89.0944C100.315 94.6915 110.132 93.9296 115.7 87.424C121.297 80.9185 120.535 71.1016 114.029 65.5339C111.597 63.3947 108.52 62.1053 105.267 61.8122Z" fill="#FFC866" stroke="white" stroke-width="0.5" stroke-miterlimit="10"/>
<path d="M84.6075 167.893C76.0214 167.893 69.0763 160.919 69.1056 152.333C69.1056 143.747 76.08 136.802 84.6661 136.831C88.3584 136.831 91.9335 138.15 94.7467 140.552V115.644H72.1532C78.6295 110.018 79.2742 100.201 73.6478 93.7245C68.0214 87.2483 58.2045 86.6036 51.7283 92.23C45.252 97.8563 44.6073 107.673 50.2337 114.149C50.7026 114.677 51.2008 115.175 51.7283 115.644H29.1348C34.9077 148.025 51.2887 183.923 94.7467 190.135V164.113C91.9042 166.575 88.3291 167.893 84.6075 167.893Z" fill="#6FADA6" stroke="white" stroke-width="0.5" stroke-miterlimit="10"/>
<path d="M135.246 115.674C141.341 121.71 141.37 131.557 135.334 137.652C129.297 143.747 119.451 143.776 113.356 137.74C107.26 131.703 107.231 121.857 113.268 115.762C113.297 115.732 113.326 115.703 113.356 115.674H91.7584V140.582C85.2529 134.985 75.436 135.747 69.8682 142.253C64.2711 148.758 65.033 158.575 71.5385 164.143C77.3701 169.125 85.9562 169.125 91.7584 164.143V190.165C135.216 183.952 151.568 148.026 157.37 115.674H135.246Z" fill="#37607F"/>
<path d="M153.063 150.428C152.887 150.194 152.741 150.311 152.448 150.37L149.927 150.956L144.916 152.274C144.741 151.835 144.477 151.425 144.096 151.102C143.568 150.692 143.012 150.487 143.099 150.809C143.187 151.132 143.393 151.425 143.656 151.63C142.865 151.542 142.132 151.132 141.605 150.546C141.283 150.37 140.96 150.926 141.634 151.923C142.308 152.919 143.012 153.124 143.568 153.329C144.067 153.476 144.565 153.535 145.063 153.535L150.22 153.329L152.008 153.242C152.213 153.242 152.653 153.3 152.858 153.183C153.297 152.89 153.327 151.835 153.297 151.395C153.297 151.014 153.209 150.721 153.063 150.428Z" fill="#E68E3A"/>
<path d="M161.063 142.81C159.715 142.634 158.367 142.956 156.022 147.059C154.499 150.487 150.806 150.429 150.806 150.429C150.806 150.429 150.601 152.773 151.217 153.476C151.217 153.476 154.938 153.711 156.608 152.802C158.279 151.894 162.147 146.941 162.938 145.857C163.759 144.773 162.411 142.985 161.063 142.81Z" fill="#D8B4B4"/>
<path d="M138.175 115.674C144.271 121.71 144.3 131.557 138.263 137.652C132.227 143.747 122.38 143.776 116.285 137.74C110.19 131.703 110.161 121.857 116.197 115.762C116.227 115.732 116.256 115.703 116.285 115.674H94.6881V140.582C88.1826 134.985 78.3657 135.747 72.7979 142.253C67.2008 148.758 67.9627 158.575 74.4682 164.143C80.2997 169.125 88.8859 169.125 94.6881 164.143V190.165C138.146 183.952 154.498 148.026 160.3 115.674H138.175Z" fill="#4A79A0" stroke="white" stroke-width="0.5" stroke-miterlimit="10"/>
<path d="M100.492 92.9919C100.081 93.6659 100.081 94.7208 100.023 94.8381C99.9643 94.9553 99.7298 94.5743 99.3782 94.2227C99.0265 93.871 99.2317 94.7502 99.4661 95.1311C99.6712 95.5414 99.8177 95.9516 99.935 96.3912C99.6126 97.8857 99.261 99.3509 98.8214 100.816C98.6456 101.431 98.1181 102.193 98.7628 102.604C99.1144 102.809 100.023 103.043 100.345 102.692C100.638 102.399 100.58 101.285 100.609 100.845C100.755 99.4095 100.873 97.9443 100.902 96.4791C100.902 96.4791 101.81 95.3655 101.605 94.3399C101.429 93.3435 100.902 92.3179 100.492 92.9919Z" fill="#F7CA9F"/>
<path d="M91.8764 111.219C91.8764 111.219 88.3306 112.919 88.4771 114.677C88.6236 116.435 89.7958 117.168 90.8214 117.578C91.8177 117.988 93.195 116.875 95.4808 114.765C97.7665 112.655 99.6713 110.662 100.199 107.409C100.521 105.065 101.136 99.8783 101.078 99.2922C100.99 98.5303 101.459 98.0614 101.43 97.5925C101.4 97.1237 99.3489 96.8892 98.9387 97.3581C98.7921 97.6218 98.968 97.7977 98.9094 98.5303C98.8507 99.2629 97.2097 108.259 91.8764 111.219Z" fill="#CC9289"/>
<path d="M12.6962 171.498C12.6962 171.498 12.2273 172.319 12.4031 172.758C12.5789 173.198 13.8683 174.458 15.1577 174.517C16.4471 174.575 16.5643 175.454 16.3299 175.659C16.0954 175.894 12.8134 176.099 12.1101 175.659C11.4068 175.22 9.70713 173.989 9.29688 173.432C9.53131 172.7 9.88296 172.114 10.7035 171.879C10.9379 171.615 11.7877 170.707 11.7877 170.707L12.6962 171.498Z" fill="#231F20"/>
<path d="M9.29688 173.403C9.70713 173.959 11.4068 175.19 12.1101 175.63C12.7841 176.069 16.0661 175.864 16.3299 175.63C16.5643 175.395 16.4764 174.516 15.1577 174.487C14.6009 174.428 14.0734 174.253 13.6339 173.959C13.0771 174.34 12.5789 174.018 11.6998 173.315C10.8207 172.582 10.7328 171.908 10.7328 171.908C9.88296 172.084 9.53131 172.67 9.29688 173.403Z" fill="#231F20"/>
<path d="M16.3006 175.659C16.4178 175.512 16.4471 175.307 16.3592 175.131C15.861 175.571 15.6852 174.956 15.4801 175.19C15.2749 175.454 14.3079 175.454 14.513 175.19C14.7181 174.926 14.6595 174.692 14.3958 174.838C13.7804 175.219 12.9892 175.307 12.3152 175.043C11.3189 174.721 9.97088 173.344 9.47271 172.934C9.4141 173.08 9.32619 173.256 9.26758 173.432C9.67784 173.989 11.3775 175.219 12.0808 175.659C12.7841 176.098 16.0661 175.864 16.3006 175.659Z" fill="#231F20"/>
<path d="M6.10241 172.436C6.10241 172.436 5.63354 173.256 5.80936 173.696C5.98519 174.135 7.27457 175.395 8.56395 175.454C9.85334 175.513 9.97055 176.392 9.73612 176.597C9.47238 176.831 6.21962 177.037 5.51632 176.597C4.81302 176.157 3.11338 174.927 2.70312 174.37C2.96686 173.637 3.28921 173.051 4.10972 172.817L5.19398 171.645L6.10241 172.436Z" fill="#231F20"/>
<path d="M2.67383 174.34C3.08409 174.897 4.78373 176.128 5.48703 176.567C6.16102 177.007 9.44308 176.802 9.70682 176.567C9.94125 176.333 9.85334 175.454 8.53466 175.424C7.97788 175.366 7.4504 175.19 7.01084 174.868C6.45406 175.249 5.95589 174.926 5.07677 174.223C4.19764 173.49 4.08043 172.816 4.08043 172.816C3.25991 173.022 2.90826 173.608 2.67383 174.34Z" fill="#231F20"/>
<path d="M19.9038 154.502C19.9038 154.385 19.8745 154.267 19.8452 154.15L19.7866 153.886L19.6694 153.359L19.1712 151.308L18.1456 147.264L16.0357 139.264L9.53015 141.52C9.53015 141.52 9.14919 143.015 10.1748 146.326C11.2005 149.579 13.4276 152.538 15.4203 155.264C15.391 155.205 15.391 155.147 15.4203 155.088C15.5375 156.377 14.9221 157.52 14.4825 158.692C14.0137 159.806 13.6327 160.949 13.3104 162.121C12.8708 163.821 11.8745 168.392 11.8159 168.919C11.5521 169.681 11.2884 170.443 11.0247 171.205L12.7243 171.967C14.0137 169.506 15.2738 167.044 16.4752 164.524C17.0613 163.264 17.6474 161.974 18.2042 160.685C18.7903 159.337 19.2884 157.93 19.6987 156.495C19.8159 156.026 19.9038 155.557 19.9038 155.059C19.9331 154.883 19.9331 154.678 19.9038 154.502Z" fill="#CC9289"/>
<path d="M9.09104 138.824C8.94452 138.561 6.45366 140.319 6.30714 145.271C6.18993 149.227 6.95183 154.414 7.30348 156.377V156.436C7.24487 156.729 7.18627 157.139 7.09835 157.462L6.6881 159.572L5.60384 163.147C5.42802 163.704 5.3108 164.26 5.25219 164.846L4.28516 172.319L6.07271 172.817L9.06173 164.729L10.5269 160.685L11.2595 158.663C11.3768 158.312 11.494 158.019 11.6405 157.638L11.7577 157.227L11.8456 156.905L11.9921 156.377L16.0947 139.616L9.09104 138.824Z" fill="#D8B4B4"/>
<path d="M6.71748 142.018C6.71748 142.018 5.83835 144.098 6.10209 144.362C6.36583 144.626 8.79807 146.56 14.4538 146.296C16.6516 146.325 17.7358 145.681 17.9117 145.446C18.0582 145.212 17.56 144.186 17.2084 143.922C16.8567 143.659 12.1974 145.3 6.71748 142.018Z" fill="#E5DFE1"/>
<path d="M23.5379 124.084C23.5379 124.084 21.5159 125.432 20.373 125.578C21.1057 126.428 21.9555 127.542 22.5416 127.571C23.1276 127.6 23.6258 125.959 24.7101 125.11C24.6221 124.318 23.5379 124.084 23.5379 124.084Z" fill="#F6C07A"/>
<path d="M29.2819 122.706C29.2233 122.882 28.2856 126.076 27.1134 126.78C25.9412 127.454 24.183 126.252 23.0401 123.732C21.8973 121.212 24.7398 118.926 26.6152 119.19C28.4907 119.453 29.7508 121.3 29.2819 122.706Z" fill="#F6C07A"/>
<path d="M6.36533 142.986C6.04299 142.546 6.39464 141.227 6.74628 140.846C8.09428 139.323 11.7573 135.103 13.4862 131.821C15.6254 127.747 17.5595 124.114 20.8416 125.051C23.5962 125.843 25.2372 130.092 24.2409 133.022C23.4203 135.484 20.6071 133.55 18.9954 135.601C17.2958 137.769 17.4423 141.432 17.6767 143.279C17.7646 143.923 17.8526 144.656 17.2079 144.802C14.3068 145.418 8.18219 145.388 6.36533 142.986Z" fill="#C1847E"/>
<path d="M20.6953 125.197C20.6953 125.197 21.8382 124.201 22.2484 124.523C22.8931 125.139 23.4499 125.813 23.9188 126.545C24.1239 126.955 23.8309 128.157 23.655 128.421C23.4792 128.684 21.047 125.959 20.6953 125.197Z" fill="#C1847E"/>
<path d="M39.8015 141.168C38.9516 141.168 38.1018 141.139 37.252 141.021C37.6623 140.728 37.8967 139.996 37.3399 140.26C36.6952 140.494 36.0505 140.67 35.3765 140.787C34.6146 140.904 33.3839 140.348 32.6513 140.172C31.9186 139.967 30.893 139.322 30.3948 140.172C30.219 140.465 30.1018 141.285 30.3655 141.52C30.6293 141.783 31.6549 141.725 31.9773 141.783C32.5047 141.871 33.0615 141.93 33.6183 141.989C34.0579 142.018 34.8784 141.93 35.2886 142.135C36.1091 142.516 36.959 142.809 37.8381 143.014C38.9809 143.19 40.8857 141.139 39.8015 141.168Z" fill="#F6C07A"/>
<path d="M17.3843 128.919C17.3843 128.919 16.6517 130.12 18.1169 132.582C19.5821 135.073 22.073 139.497 23.0986 140.201C24.1243 140.904 32.388 142.106 33.062 142.369C33.736 142.633 34.2342 142.604 34.5565 142.076C34.7324 141.666 34.8789 140.377 34.5272 140.084C34.1756 139.791 33.8826 139.966 33.2086 139.878C32.5053 139.791 25.8239 138.179 25.0327 137.065C24.6518 136.508 21.9851 130.12 21.6334 129.27C21.2818 128.421 19.3184 126.721 17.3843 128.919Z" fill="#D8B4B4"/>
<path d="M26.8494 122.854C26.8494 122.854 29.4282 123.762 30.4539 122.092C31.4795 120.421 28.1974 116.436 25.0912 117.872C22.5124 119.044 19.9044 120.275 17.0326 120.48C13.9849 120.685 11.1717 119.806 8.21201 121.183C3.37683 123.41 3.08378 131.147 8.29992 133.256C9.50139 133.755 10.8787 133.725 12.1681 133.579C14.864 133.286 17.4428 132.231 19.582 130.531C21.0179 129.388 22.1315 127.894 22.8934 126.223C23.1571 125.608 23.5674 122.15 24.5344 122.531C25.267 122.824 25.1205 123.615 24.974 124.084C24.8275 124.553 25.8238 123.967 26.1168 123.352C26.4099 122.736 26.8494 122.854 26.8494 122.854Z" fill="#231F20"/>
<path d="M9.70681 176.568C9.82403 176.422 9.85333 176.216 9.76542 176.041C9.26725 176.48 9.09143 175.865 8.8863 176.099C8.68117 176.363 7.71413 176.363 7.91926 176.099C8.12439 175.835 8.06578 175.601 7.80205 175.748C7.18666 176.128 6.39545 176.216 5.72145 175.953C4.72511 175.63 3.37712 174.253 2.87895 173.843C2.82034 173.989 2.73243 174.165 2.70312 174.341C3.11338 174.898 4.81302 176.129 5.51632 176.568C6.16101 177.008 9.47238 176.803 9.70681 176.568Z" fill="#231F20"/>
<path d="M107.348 37.6663C106.762 37.3439 105.678 36.5234 105.824 36.3183C105.971 36.1131 106.791 35.8787 106.791 35.8787C106.791 35.8787 106.674 35.615 105.766 35.7029C104.857 35.7908 104.476 35.8494 104.476 35.8494L104.418 35.8787C103.011 35.0289 101.604 34.1498 100.227 33.2413C99.553 32.7725 98.8497 32.3036 98.2637 31.8347C98.1464 31.7468 98.0292 31.6589 97.9413 31.5417L97.7362 31.1607C97.5604 30.8384 97.3845 30.4868 97.2087 30.1058C96.7105 29.0802 96.4468 27.2633 95.0109 27.5856C94.6886 27.6443 94.3955 27.7615 94.1025 27.908C93.3699 28.3476 93.5164 28.8164 93.8973 29.4318C94.2783 30.0472 94.7179 30.6919 95.1281 31.3073C95.3626 31.6589 95.6263 32.0106 95.89 32.3915L96.1245 32.6846C96.2124 32.8018 96.3296 32.919 96.4468 33.0362C96.6519 33.212 96.8571 33.3586 97.0915 33.5051C97.8827 33.9739 98.6153 34.3256 99.4065 34.6772C100.901 35.3805 102.396 36.0252 103.89 36.6699C104.33 37.9886 105.15 38.6333 106.674 38.7505C108.256 38.897 107.934 37.9886 107.348 37.6663Z" fill="#E68E3A"/>
<path d="M93.6924 30.1352C93.6924 30.1352 95.8023 30.2524 97.2382 28.5821C97.2382 28.5821 95.6264 25.3 94.8059 23.3366C93.9854 21.4026 92.5788 21.0802 91.348 21.8421C90.1173 22.604 90.1759 23.7469 91.0843 25.3586C91.9927 26.9703 93.6924 30.1352 93.6924 30.1352Z" fill="#D8B4B4"/>
<path d="M66.1166 39.9225C66.1166 39.9225 65.1789 39.8639 64.3877 39.7466C63.5965 39.6294 62.9225 39.1313 62.6587 39.5122C62.395 39.8932 62.395 43.0873 62.6587 43.7906C62.9225 44.5232 64.3291 44.8749 64.8272 44.6404C65.3254 44.406 65.091 43.9078 64.5342 43.6441C63.9774 43.3804 64.1239 41.3584 64.3584 41.1239C64.7393 41.1532 66.4976 41.1239 66.4976 41.1239L66.1166 39.9225Z" fill="#231F20"/>
<path d="M85.3691 41.798C85.2812 42.0617 85.2226 42.3254 85.1933 42.6185C85.1933 42.9701 85.3398 43.3218 85.6035 43.5855C85.9845 43.9958 86.512 44.2595 87.098 44.3474C87.9772 44.406 88.3874 44.3767 88.4167 44.787C88.446 45.08 88.3288 45.3438 88.0944 45.4903C87.4497 45.5489 86.7757 45.5782 86.131 45.5196C85.2519 45.461 84.1676 45.3731 83.3471 44.9335C82.7024 44.5232 82.7903 44.2302 83.0541 43.5562C83.4643 42.7943 83.9039 42.0617 84.3727 41.3584L85.3691 41.798Z" fill="#231F20"/>
<path d="M91.8165 29.1095V28.9043V28.7871C91.8165 28.7285 91.7872 28.6406 91.7579 28.5527C91.6113 28.0252 91.289 27.5856 90.8201 27.2926L90.5857 27.1461C90.4978 27.0875 90.4099 27.0582 90.3806 27.0289L90.0582 26.8823C88.2121 26.0618 86.3073 25.3585 84.3732 24.7725C82.6443 24.2157 80.4172 24.4794 78.571 24.4794C78.0435 24.4794 77.0472 24.3622 76.6076 24.6845C76.2267 24.9483 76.2853 25.6223 76.2267 26.0618C76.0801 26.9703 75.9629 27.8494 75.8164 28.7578H75.9336C75.9336 28.7578 76.8714 30.4575 79.7725 30.8384C82.6736 31.2194 87.6846 30.3695 87.6846 30.3695C87.5967 30.6626 87.5088 30.9849 87.4208 31.278C87.0692 32.3915 86.6589 33.5637 86.2487 34.7066L84.9886 38.1644L84.3439 39.9227L84.0216 40.8018C83.9043 41.1242 83.8164 41.4758 83.7285 41.7982L85.4282 42.2377C85.4868 42.0912 85.6333 41.7689 85.7798 41.5344L86.1901 40.7432L87.0692 39.1315L88.8567 35.908C89.4428 34.8238 90.0289 33.7395 90.5857 32.5967C90.8787 32.0106 91.1425 31.4538 91.4062 30.7798C91.582 30.3695 91.6992 29.93 91.7579 29.4611C91.8165 29.3732 91.8165 29.256 91.8165 29.1095Z" fill="#CC8B8B"/>
<path d="M81.9711 27.6151L81.9417 26.6773L81.9124 26.2085V25.974C81.9124 25.8568 81.9124 25.7396 81.8831 25.6224L75.026 24.4209C75.026 24.4209 73.7659 28.2597 74.6743 31.7176C75.5534 35.1755 78.0443 39.7763 78.0443 39.7763C77.7219 39.8056 77.3996 39.8056 77.0773 39.8056C75.9051 39.8056 74.6743 39.8056 73.4728 39.747L69.7805 39.6004L67.9344 39.5418L66.9966 39.5125C66.6743 39.5125 65.2677 39.4832 64.8281 39.5418L64.9453 41.3001C65.1212 41.3294 69.5168 41.9155 69.5168 41.9155L73.1505 42.6188C74.3813 42.8532 75.5827 43.0583 76.8428 43.2342C77.4875 43.3221 78.1029 43.41 78.8355 43.4393C79.2751 43.4686 79.7439 43.4393 80.1835 43.3514C80.3007 43.3221 80.4179 43.2928 80.5351 43.2635L80.7403 43.1755L80.8282 43.1462C80.8868 43.1169 80.9747 43.0583 81.0333 43.029C81.4729 42.736 81.7952 42.2671 81.9417 41.7396L82.0003 41.4759C82.0297 41.388 82.0297 41.3001 82.059 41.2415L82.1176 40.8898C82.2055 40.0986 82.2055 39.4832 82.2348 38.8385C82.2641 38.1938 82.2641 37.5492 82.2641 36.9338C82.2641 35.6737 82.2348 34.4429 82.2055 33.1828L82.0883 29.4612L81.9711 27.6151Z" fill="#D8B4B4"/>
<path d="M87.0989 44.3178C86.6594 44.2592 86.2198 44.0834 85.8682 43.7904C85.6923 43.9369 85.4579 43.9662 85.2235 43.9076C84.5788 43.761 84.2271 43.0284 84.0513 42.7647C83.9341 42.6182 83.7876 42.5303 83.6117 42.5303C83.4066 42.8526 83.2308 43.175 83.055 43.5266C82.7619 44.2006 82.674 44.4937 83.3187 44.9039C84.1392 45.3435 85.2235 45.4021 86.1026 45.49C86.7473 45.5193 87.4213 45.5193 88.066 45.4607C88.3004 45.2849 88.4176 45.0211 88.3883 44.7574C88.3883 44.3471 87.9781 44.3764 87.0989 44.3178Z" fill="#231F20"/>
<path d="M64.5342 43.6147C64.2705 43.4974 64.1532 42.9114 64.1532 42.3546C64.0067 42.3546 63.8602 42.3253 63.7137 42.2667C63.2741 42.0908 63.4793 40.4498 63.7137 40.2447C63.8602 40.0689 63.9481 39.8344 63.9481 39.6C63.45 39.4242 62.8639 39.1897 62.6587 39.4828C62.395 39.8637 62.395 43.0579 62.6587 43.7612C62.9225 44.4645 64.3291 44.8454 64.8272 44.611C65.3254 44.3766 65.091 43.8784 64.5342 43.6147Z" fill="#231F20"/>
<path d="M92.9882 21.1973C92.9882 21.1973 95.0102 21.9006 97.0322 21.4024C96.8564 22.0471 96.7098 23.3951 96.7098 23.3951C96.7098 23.3951 94.2483 23.4244 93.3692 23.3951C92.4608 23.3658 92.9882 21.1973 92.9882 21.1973Z" fill="#E68E3A"/>
<path d="M88.154 18.7648C84.0807 18.8234 80.0367 20.2593 76.6375 22.4278C76.5788 22.4571 75.5532 23.3656 74.9085 23.9517C74.5862 24.2154 74.5569 24.6843 74.8206 25.0066C75.9342 26.3546 78.9818 29.7539 82.2052 31.3949C83.0258 30.3693 87.9195 27.5268 90.9672 27.4681C93.9855 27.4095 94.513 25.915 94.6595 23.6293C94.9232 19.8491 91.2895 18.7062 88.154 18.7648Z" fill="#C1847E"/>
<path d="M100.578 24.1276C100.432 24.2155 97.9703 25.8272 96.7981 25.6221C95.626 25.417 95.1278 23.5708 95.8018 21.2558C96.4758 18.9408 99.6992 18.9994 100.813 20.2594C101.926 21.4902 101.692 23.4536 100.578 24.1276Z" fill="#E68E3A"/>
<path d="M103.246 23.4238C102.308 23.1014 103.07 22.867 103.07 22.867C103.07 22.867 103.656 21.4604 102.777 20.9036C101.898 20.3469 102.073 20.4641 102.073 20.4641C102.073 20.4641 102.366 19.4384 101.517 19.1747C100.667 18.911 100.989 18.8817 100.667 18.7351C100.344 18.5886 96.3591 18.2077 95.2748 20.6399C95.0697 21.0795 95.2162 21.6069 95.6558 21.8121C95.7144 21.8414 95.773 21.8707 95.8609 21.8707C96.0368 21.9 96.2126 21.8707 96.3298 21.7535C96.7108 21.4018 97.4727 20.9329 97.9415 21.3139C98.4104 21.6948 98.2053 22.3688 97.6485 22.7498C97.0917 23.1308 98.4104 23.4531 99.2895 22.8963C99.2895 22.8963 99.3774 24.889 101.165 24.6839C102.953 24.4787 104.183 23.7461 103.246 23.4238Z" fill="#231F20"/>
<path d="M131.73 195.205C131.73 195.205 132.258 189.872 132.053 189.403C131.291 188.963 129.825 189.315 129.034 189.462C128.243 189.608 128.009 189.755 128.067 190.487C128.126 191.308 128.243 192.128 128.331 192.949C128.419 193.769 128.507 194.561 128.565 195.381L128.595 195.674L128.624 195.762L133.43 208.568L134.631 208.246L131.73 195.205Z" fill="#A8511A"/>
<path d="M129.149 188.963C128.622 188.846 128.065 188.787 127.538 188.787C126.893 188.787 125.721 188.846 125.369 189.52C125.105 190.047 125.252 191.19 125.223 191.776C125.164 192.714 125.076 193.681 125.018 194.619L124.988 194.912V194.97L126.922 208.509L128.182 208.421C128.182 203.967 128.182 199.483 128.182 195.029C128.3 194.501 128.417 194.003 128.534 193.476C128.475 192.89 129.296 191.63 129.501 191.102C129.706 190.575 130.322 189.754 129.853 189.285C129.618 189.139 129.384 189.022 129.149 188.963Z" fill="#A8511A"/>
<path d="M128.155 207.747C128.155 207.747 128.565 208.04 128.565 208.831C128.536 209.564 128.477 210.297 128.36 211H127.715V209.535L126.309 211H124.492C124.052 211 124.316 210.209 125.195 210.091C126.074 209.974 126.514 209.036 126.895 208.362C127.422 208.45 128.038 208.069 128.155 207.747Z" fill="#231F20"/>
<path d="M134.483 207.747C134.483 207.747 134.893 208.04 134.893 208.831C134.864 209.564 134.806 210.297 134.688 211H134.014V209.535L132.608 211H130.791C130.351 211 130.615 210.209 131.494 210.091C132.373 209.974 132.901 208.949 133.311 208.275C133.897 208.362 134.395 208.069 134.483 207.747Z" fill="#231F20"/>
<path d="M126.395 161.388C125.37 160.245 124.432 159.073 123.524 157.843C123.289 157.52 123.143 157.256 122.937 156.905L122.351 155.879L121.15 153.828L119.362 150.956C119.362 150.956 119.48 149.286 119.157 148.7C118.835 148.114 118.718 147.352 118.6 147.205C118.483 147.059 118.278 147.967 118.454 148.465C118.19 148.26 117.839 147.996 117.252 146.355C117.106 145.916 116.725 146.121 117.018 146.795C117.311 147.469 117.428 147.967 117.34 148.143C117.252 148.319 116.813 148.612 116.93 149.169C117.047 149.725 117.956 151.015 118.571 151.337L119.597 154.56L120.417 156.788L120.828 157.901C120.974 158.253 121.15 158.692 121.326 159.073C122.029 160.539 122.82 161.974 123.699 163.381C124.168 164.143 124.637 164.905 125.135 165.667C125.721 166.546 126.923 166.81 127.802 166.224C127.861 166.194 127.919 166.136 127.978 166.106C128.798 165.432 128.916 164.202 128.242 163.381C128.212 163.352 128.183 163.322 128.154 163.293C127.538 162.678 126.952 162.033 126.395 161.388Z" fill="#A8511A"/>
<path d="M131.319 155.117C130 153.945 127.949 154.18 127.216 155.352C127.128 155.498 125.428 158.077 125.663 159.308C125.809 160.099 126.659 160.597 127.919 160.656C128.066 161.447 128.183 162.824 127.333 163.528C127.773 163.791 130.088 163.967 130.557 163.322C130.205 162.385 129.912 161.447 129.707 160.48C129.883 160.451 130.088 160.392 130.264 160.333C132.725 159.689 132.666 156.289 131.319 155.117Z" fill="#A8511A"/>
<path d="M129.737 162.15C126.661 161.681 124.551 165.08 125.313 168.538C125.664 170.15 125.84 168.773 125.869 171C125.928 173.227 125.049 177.242 125.049 177.242C125.049 177.242 127.54 178.883 133.488 177.242C132.873 174.516 132.17 170.062 132.433 165.696C132.58 163.469 131.349 162.384 129.737 162.15Z" fill="#CC9289"/>
<path d="M129.884 163.879C128.741 163.586 127.598 164.26 127.305 165.403C127.276 165.491 127.276 165.549 127.246 165.637L126.865 168.099L126.514 170.502L126.338 171.703C126.338 171.879 126.309 172.055 126.221 172.201C126.162 172.289 126.133 172.348 126.045 172.436C125.986 172.494 125.928 172.553 125.869 172.582L125.635 172.758L124.668 173.491L122.733 174.956L118.865 177.857C118.426 177.798 117.986 177.798 117.576 177.857C117.341 177.886 116.169 178.15 116.228 178.267C116.287 178.385 116.55 178.385 116.667 178.414C116.785 178.443 117.136 178.385 117.254 178.502C117.224 178.531 117.195 178.56 117.166 178.619L116.345 179.498C115.935 179.879 115.7 180.582 116.081 180.494C116.667 180.319 117.224 180.113 117.781 179.85C117.781 179.85 116.873 180.553 117.166 180.524C117.488 180.494 118.484 179.762 118.484 179.762C118.689 179.586 118.865 179.381 118.983 179.146C119.481 178.472 120.184 178.179 120.917 177.828C121.854 177.388 122.763 176.949 123.671 176.509L125.84 175.483L126.924 174.956L127.188 174.839C127.276 174.78 127.363 174.751 127.51 174.663C127.774 174.516 128.037 174.311 128.272 174.106C128.741 173.667 129.063 173.11 129.268 172.494L129.679 171.352L130.499 169.066L131.349 166.721C131.759 165.608 131.202 164.406 130.089 163.996C130.001 163.908 129.942 163.908 129.884 163.879Z" fill="#A8511A"/>
<path d="M125.048 177.242C125.048 177.242 123.905 183.484 124.227 187.909C124.55 192.334 124.608 193.125 124.608 193.125C124.608 193.125 126.132 193.887 129.268 193.887C132.403 193.887 133.458 193.125 133.458 193.125C133.458 193.125 132.931 188.817 134.191 185.183C135.451 181.55 134.894 179.381 133.458 177.242C132.198 176.216 125.048 177.242 125.048 177.242Z" fill="#CC9289"/>
<path d="M127.333 154.355C127.333 154.355 127.567 156.875 128.652 157.314C128.739 157.754 128.065 158.369 127.86 158.75C127.655 159.131 129.443 158.252 129.765 158.75C130.087 159.248 129.443 160.362 128.71 160.684C126.19 161.798 128.505 163.791 128.446 165.461C128.417 166.604 127.538 167.571 127.157 168.626C126.659 170.091 127.567 170.765 128.476 171.82C128.886 172.26 129.179 172.846 129.238 173.461C129.267 174.106 128.798 174.604 128.622 175.19C128.446 175.981 128.505 176.802 128.857 177.534C129.208 178.179 129.736 178.677 130.38 178.97C132.08 179.82 134.102 179.644 135.626 178.531C137.033 177.446 138.498 174.575 137.062 173.021C136.124 172.025 135.86 170.531 135.919 169.183C135.978 167.6 136.857 166.135 136.359 164.523C135.948 163.205 134.718 162.589 134.102 161.446C133.575 160.421 133.428 159.219 133.75 158.076C134.131 156.611 133.076 155.058 131.934 154.179C130.556 153.095 128.769 153.27 127.333 154.355Z" fill="#231F20"/>
<path d="M161.678 142.722C161.092 141.608 160.829 140.348 160.858 139.117C160.272 139.381 159.1 139.733 159.1 139.733C159.1 139.733 159.451 141.96 159.598 142.751C159.744 143.542 161.678 142.722 161.678 142.722Z" fill="#E68E3A"/>
<path d="M153.385 191.19C154.294 191.219 155.173 190.897 155.817 190.252L155.671 188.846L156.931 188.729L157.078 190.135C157.341 190.75 157.488 191.395 157.546 192.069C157.605 193.095 156.814 193.007 156.814 193.007C155.026 193.066 153.268 192.89 151.539 192.45L151.568 192.098C151.656 191.747 151.861 191.102 153.385 191.19Z" fill="#231F20"/>
<path d="M157.195 190.341C156.96 190.605 156.374 191.161 155.671 191.161C155.319 191.161 154.997 191.103 154.675 190.956C154.264 191.103 153.825 191.191 153.385 191.161C151.832 191.103 151.656 191.718 151.598 192.07L151.568 192.421C153.297 192.861 155.056 193.037 156.843 192.978C156.843 192.978 157.634 193.037 157.576 192.04C157.517 191.484 157.4 190.898 157.195 190.341Z" fill="#231F20"/>
<path d="M162.821 157.461C162.821 157.461 163.202 160.655 162.294 163.293C161.385 165.93 157.722 174.399 157.722 174.399V174.897L157.663 176.978L157.546 181.139L157.312 189.432L155.29 189.491L154.499 181.227L154.118 177.095L153.913 175.014L153.854 174.487C153.825 174.194 153.854 173.93 153.883 173.637C153.883 173.491 153.913 173.344 153.942 173.227L154 172.963L154.088 172.465L156.872 156.084L162.821 157.461Z" fill="#CC9289"/>
<path d="M164.902 190.897C165.782 190.663 166.543 190.077 166.954 189.256L166.397 187.938L167.569 187.469L168.126 188.787C168.565 189.315 168.888 189.872 169.152 190.487C169.503 191.454 168.741 191.601 168.741 191.601C167.071 192.187 165.313 192.538 163.554 192.626L163.496 192.275C163.408 191.952 163.408 191.308 164.902 190.897Z" fill="#231F20"/>
<path d="M164.99 155.938C164.99 155.938 166.221 158.897 166.074 161.681C165.928 164.465 164.697 173.608 164.697 173.608L164.814 174.106L165.312 176.128L166.338 180.172L168.36 188.231L166.455 188.846L163.437 181.11L161.942 177.242L161.18 175.308L160.975 174.809C160.887 174.546 160.799 174.282 160.77 173.989C160.741 173.842 160.741 173.696 160.711 173.579L160.682 173.315L160.623 172.787L158.836 156.26L164.99 155.938Z" fill="#D8B4B4"/>
<path d="M168.271 188.963C168.124 189.285 167.743 189.989 167.069 190.194C166.747 190.311 166.395 190.34 166.073 190.311C165.721 190.575 165.341 190.78 164.901 190.897C163.406 191.307 163.406 191.952 163.465 192.304L163.524 192.655C165.282 192.567 167.04 192.216 168.71 191.63C168.71 191.63 169.472 191.454 169.121 190.516C168.916 189.959 168.623 189.432 168.271 188.963Z" fill="#231F20"/>
<path d="M154.381 153.769C154.147 153.593 154.029 153.74 153.766 153.886L151.509 155.146L147.055 157.783C146.762 157.373 146.381 157.08 145.942 156.875C145.326 156.641 144.74 156.582 144.887 156.846C145.062 157.139 145.326 157.373 145.649 157.49C144.857 157.608 144.066 157.432 143.392 156.992C143.011 156.904 142.865 157.52 143.802 158.311C144.74 159.102 145.443 159.073 146.059 159.131C146.557 159.131 147.084 159.073 147.553 158.897L152.447 157.285L154.147 156.699C154.352 156.641 154.791 156.582 154.938 156.406C155.26 155.996 155.026 155 154.879 154.56C154.762 154.267 154.586 154.003 154.381 153.769Z" fill="#E68E3A"/>
<path d="M157.253 136.802C157.223 136.949 156.637 139.703 157.253 140.67C157.868 141.637 159.656 141.432 161.473 140.026C163.289 138.619 162.117 135.776 160.623 135.22C159.128 134.692 157.458 135.571 157.253 136.802Z" fill="#E68E3A"/>
<path d="M162.03 140.494C161.619 140.523 160.975 139.967 161.15 139.527C161.326 139.088 161.502 138.238 160.975 137.945C160.476 137.652 159.92 138.062 159.802 138.736C159.656 139.381 158.923 138.296 159.099 137.329C159.099 137.329 157.81 137.3 156.901 136.655C156.345 136.216 156.139 135.425 156.462 134.78C156.608 134.487 156.755 134.194 156.96 133.901C157.048 133.754 157.282 133.315 157.487 133.403C157.693 133.49 157.663 133.783 157.898 133.754C158.161 133.725 158.484 133.315 158.689 133.139C158.865 132.992 159.158 132.641 159.451 132.611C159.832 132.611 159.715 133.139 160.037 133.256C160.242 133.315 160.564 133.08 160.769 133.022C161.121 132.904 161.473 132.875 161.824 132.875C162.205 132.875 161.942 133.549 162.147 133.666C162.352 133.783 162.85 133.49 163.114 133.578C163.378 133.666 163.319 134.018 163.29 134.223C163.26 134.428 163.114 134.692 163.172 134.897C163.231 135.073 163.407 135.044 163.641 135.044C163.583 136.069 163.758 137.153 163.612 138.179C163.495 139.058 163.114 140.377 162.03 140.494Z" fill="#231F20"/>
<path d="M164.637 145.71C164.637 145.71 164.608 141.52 160.242 142.076C158.22 142.75 156.11 144.245 156.432 148.113C156.754 151.981 156.754 152.802 156.637 155.703C156.52 158.604 155.084 162.091 155.084 162.091C155.084 162.091 159.743 163.468 166.22 162.003C166.014 159.835 164.784 151.483 164.637 145.71Z" fill="#C1847E"/>
<path d="M161.796 141.491C161.738 141.256 161.503 141.11 161.269 141.168C160.595 141.285 159.276 141.52 159.1 141.725C158.866 142.018 159.1 142.78 159.1 142.78C159.1 142.78 162.031 142.633 162.001 142.399C162.001 142.252 161.884 141.813 161.796 141.491Z" fill="#C1847E"/>
<path d="M159.978 144.245C158.63 144.451 157.4 145.125 156.315 149.696C155.788 153.388 152.213 154.355 152.213 154.355C152.213 154.355 152.652 156.67 153.444 157.169C153.444 157.169 157.077 156.377 158.455 155.059C159.832 153.74 162.176 147.908 162.645 146.648C163.114 145.388 161.326 144.04 159.978 144.245Z" fill="#CC9289"/>
<path d="M106.938 190.457C106.733 190.457 106.586 190.34 106.498 190.164L96.7401 161.651C96.6522 161.417 96.7694 161.153 97.0039 161.065C97.2383 160.977 97.502 161.095 97.5899 161.329C97.5899 161.329 97.5899 161.358 97.6193 161.388L107.378 189.901C107.465 190.135 107.348 190.399 107.084 190.487C107.055 190.457 106.997 190.457 106.938 190.457Z" fill="#231F20"/>
<path d="M115.905 190.458C115.729 190.458 115.554 190.341 115.466 190.165L105.707 161.652C105.62 161.417 105.766 161.154 106 161.066C106.235 160.978 106.499 161.124 106.587 161.359L116.345 189.872C116.433 190.106 116.316 190.37 116.081 190.458C116.081 190.458 116.081 190.458 116.052 190.458C116.022 190.458 115.964 190.458 115.905 190.458Z" fill="#231F20"/>
<path d="M114.703 186.911H105.766C105.502 186.911 105.326 186.706 105.326 186.442C105.326 186.179 105.531 186.003 105.766 186.003H114.674C114.938 186.003 115.143 186.208 115.143 186.442C115.143 186.706 114.967 186.911 114.703 186.911Z" fill="#231F20"/>
<path d="M113.267 182.75H104.358C104.095 182.78 103.89 182.574 103.86 182.34C103.831 182.076 104.036 181.871 104.27 181.842C104.3 181.842 104.329 181.842 104.329 181.842H113.238C113.501 181.871 113.677 182.076 113.648 182.34C113.677 182.545 113.501 182.721 113.267 182.75Z" fill="#231F20"/>
<path d="M111.862 178.589H102.953C102.689 178.589 102.514 178.384 102.514 178.12C102.514 177.856 102.719 177.681 102.953 177.681H111.862C112.125 177.681 112.301 177.886 112.301 178.15C112.301 178.384 112.096 178.589 111.862 178.589Z" fill="#231F20"/>
<path d="M110.424 174.428H101.516C101.252 174.428 101.047 174.223 101.047 173.988C101.047 173.725 101.252 173.52 101.486 173.52H110.395C110.659 173.52 110.864 173.725 110.864 173.959C110.893 174.223 110.688 174.428 110.424 174.428Z" fill="#231F20"/>
<path d="M108.99 170.267H100.081C99.8177 170.238 99.6418 170.032 99.6712 169.769C99.7005 169.534 99.8763 169.358 100.081 169.358H108.99C109.254 169.388 109.429 169.593 109.4 169.857C109.4 170.062 109.224 170.238 108.99 170.267Z" fill="#231F20"/>
<path d="M107.582 166.106H98.6732C98.4095 166.076 98.2336 165.871 98.2629 165.608C98.2923 165.373 98.4681 165.197 98.6732 165.197H107.582C107.845 165.227 108.021 165.432 107.992 165.695C107.992 165.901 107.816 166.076 107.582 166.106Z" fill="#231F20"/>
<path d="M77.2818 190.458C77.2231 190.458 77.1938 190.458 77.1352 190.428C76.9008 190.341 76.7543 190.106 76.8422 189.872C76.8422 189.872 76.8422 189.872 76.8422 189.842L86.6005 161.329C86.6884 161.095 86.9521 160.978 87.1866 161.036C87.421 161.124 87.5382 161.388 87.4796 161.623L77.7213 190.135C77.6334 190.311 77.4869 190.458 77.2818 190.458Z" fill="#231F20"/>
<path d="M68.315 190.458C68.2564 190.458 68.227 190.458 68.1684 190.428C67.934 190.341 67.7875 190.106 67.8754 189.872C67.8754 189.872 67.8754 189.872 67.8754 189.842L77.6337 161.329C77.7216 161.095 77.9853 160.978 78.2198 161.036C78.4542 161.124 78.5714 161.388 78.5128 161.623L68.7545 190.135C68.6959 190.341 68.5201 190.458 68.315 190.458Z" fill="#231F20"/>
<path d="M78.4535 186.911H69.545C69.2813 186.911 69.1055 186.706 69.1055 186.442C69.1055 186.179 69.3106 186.003 69.545 186.003H78.4535C78.7172 186.003 78.9224 186.208 78.9224 186.442C78.9224 186.706 78.7172 186.911 78.4535 186.911Z" fill="#231F20"/>
<path d="M79.8903 182.75H70.9818C70.7181 182.721 70.5422 182.516 70.5715 182.252C70.6008 182.018 70.7767 181.842 70.9818 181.842H79.8903C80.154 181.871 80.3298 182.076 80.3005 182.34C80.2712 182.545 80.0954 182.721 79.8903 182.75Z" fill="#231F20"/>
<path d="M81.2972 178.589H72.3595C72.0957 178.589 71.9199 178.384 71.9199 178.12C71.9199 177.856 72.1251 177.681 72.3595 177.681H81.2679C81.5317 177.681 81.7075 177.886 81.7075 178.15C81.7368 178.384 81.5317 178.589 81.2972 178.589Z" fill="#231F20"/>
<path d="M82.7328 174.428H73.8243C73.5606 174.428 73.3555 174.223 73.3555 173.988C73.3555 173.725 73.5606 173.52 73.795 173.52H82.7035C82.9672 173.52 83.1724 173.725 83.1724 173.959C83.1724 174.223 82.9672 174.428 82.7328 174.428Z" fill="#231F20"/>
<path d="M84.1383 170.267H75.2299C74.9661 170.238 74.7903 170.032 74.8196 169.769C74.8489 169.534 75.0247 169.358 75.2299 169.358H84.1383C84.402 169.388 84.5779 169.593 84.5486 169.857C84.5486 170.062 84.3727 170.238 84.1383 170.267Z" fill="#231F20"/>
<path d="M85.5465 166.106H76.638C76.3743 166.076 76.1985 165.871 76.2278 165.608C76.2571 165.373 76.4329 165.197 76.638 165.197H85.5465C85.8102 165.227 85.9861 165.432 85.9568 165.695C85.9568 165.901 85.7809 166.076 85.5465 166.106Z" fill="#231F20"/>
<path d="M107.084 160.685H77.3107C76.8712 160.685 76.4902 161.036 76.4902 161.505C76.4902 161.974 76.8419 162.326 77.3107 162.326H107.084C107.523 162.326 107.904 161.974 107.904 161.505C107.904 161.036 107.523 160.685 107.084 160.685Z" fill="#231F20"/>
<path d="M39.4807 151.689C39.4807 151.689 39.0412 154.092 38.3672 155.029C39.4807 155.088 40.8873 155.235 41.3269 154.854C41.7665 154.473 40.9167 152.949 41.0632 151.572C40.4185 151.073 39.4807 151.689 39.4807 151.689Z" fill="#ECECEC" stroke="#231F20" stroke-miterlimit="10"/>
<path d="M29.4869 202.56C29.4869 201.886 30.2195 200.802 30.2195 200.802L29.2817 200.157C29.2817 200.157 28.6663 200.978 28.5198 201.241C28.3733 201.505 27.6407 202.355 27.377 202.941C27.377 202.941 29.5162 204.963 29.9264 205.139C30.3367 205.315 31.3916 205.198 31.5381 205.139C31.6847 205.08 31.5381 204.524 31.0107 204.436C30.4832 204.377 29.4869 203.439 29.4869 202.56Z" fill="#231F20"/>
<path d="M36.1679 169.358C36.1679 169.358 34.2338 173.256 34.3803 176.333C34.5268 179.41 35.4646 186.443 35.4646 186.443C35.4646 186.472 35.4353 186.531 35.4353 186.56L35.318 186.794L35.0836 187.263L34.1752 189.139L32.3583 192.919L28.7539 200.479L29.9847 201.212L34.732 194.326L37.1056 190.868L38.2778 189.139L38.5708 188.699L38.7173 188.494C38.7759 188.406 38.8638 188.26 38.9224 188.142C39.1862 187.644 39.3913 187.117 39.4792 186.531L42.732 170.12L36.1679 169.358Z" fill="#CC9289"/>
<path d="M31.5967 205.022C31.5381 204.729 31.3037 204.495 31.0107 204.466C30.6004 204.319 30.2195 204.055 29.9557 203.704L29.7799 203.645C29.018 203.381 28.344 202.356 28.4612 202.092C28.5198 201.945 28.3733 201.799 28.2268 201.682C27.9044 202.063 27.6114 202.502 27.377 202.971C27.377 202.971 29.5162 204.993 29.9264 205.169C30.3367 205.374 31.3916 205.227 31.5381 205.169C31.5674 205.14 31.5967 205.081 31.5967 205.022Z" fill="#231F20"/>
<path d="M46.7759 202.736C46.7759 202.736 46.7759 204.172 47.4206 204.465C48.0653 204.758 49.2961 204.495 50.0287 205.022C50.7906 205.52 50.7906 205.608 50.2338 205.813C49.677 206.018 46.2778 206.194 45.6038 206.165C45.4866 205.52 45.6624 204.407 45.6038 204.114C45.5452 203.821 45.6038 202.766 45.6038 202.766L46.7759 202.736Z" fill="#231F20"/>
<path d="M47.6256 186.208C47.5963 185.476 47.567 184.714 47.4791 183.893C47.3618 183.073 47.2446 182.37 47.0981 181.637C46.8051 180.172 46.4827 178.765 46.1311 177.388C45.4278 174.575 44.6952 171.849 43.8746 169.065L37.4277 171.556C37.4277 171.556 37.7794 176.216 38.8636 178.765C39.9479 181.315 43.142 184.772 43.3472 185.71C43.4058 186.033 43.4937 186.355 43.5523 186.648C44.0505 189.315 44.4021 192.128 44.7245 194.912C45.0468 197.696 45.3106 200.509 45.5157 203.322H46.9223C47.1567 200.479 47.2446 197.666 47.3911 194.824C47.5377 191.981 47.6842 189.168 47.6256 186.208Z" fill="#D8B4B4"/>
<path d="M34.879 170.385C34.6446 171.293 34.498 171.879 34.498 171.879C36.1684 172.436 37.8094 172.7 39.5677 172.7C41.5896 172.758 43.4944 172.495 45.4285 171.938C45.4285 171.938 45.1355 171.264 44.7545 170.238C39.4504 170.238 37.868 170.385 34.879 170.385Z" fill="#E5DFE1"/>
<path d="M50.0298 204.992C49.6781 204.787 49.2678 204.67 48.8283 204.641C48.6525 204.846 48.3887 204.963 48.125 205.022C47.3045 205.168 46.2788 204.699 46.1909 204.406C46.1323 204.201 45.81 204.201 45.6048 204.201C45.6048 204.641 45.4876 205.549 45.6048 206.106C46.2788 206.135 49.6781 205.989 50.2349 205.754C50.7917 205.52 50.7917 205.491 50.0298 204.992Z" fill="#231F20"/>
<path d="M43.5237 147.498C43.553 147.674 44.4028 150.926 43.7288 152.128C43.0548 153.329 40.9156 153.183 38.6592 151.6C36.3734 150.018 37.6628 146.589 39.4211 145.827C41.1793 145.066 43.2013 146.062 43.5237 147.498Z" fill="#F7CA9F"/>
<path d="M36.4614 155.264C35.9632 156.172 35.7581 157.169 35.8753 158.194C36.1097 160.099 36.4321 162.092 36.0804 164.026C35.5236 167.132 34.7031 171.088 34.7031 171.088C36.3735 171.616 37.8094 171.762 39.5676 171.762C41.5896 171.821 43.1427 171.674 45.0768 171.176C45.0768 171.176 42.9669 165.726 43.4944 162.033C43.7288 160.597 45.0475 160.275 45.2233 158.868C45.487 156.788 43.9046 155.44 41.824 154.15C40.5933 153.389 39.1867 153.769 37.7508 154.209C37.194 154.356 36.7544 154.766 36.4614 155.264Z" fill="#CC9289"/>
<path d="M51.4058 176.275C50.8197 176.128 50.2336 175.953 49.7061 175.689C49.7061 175.689 50.7904 175.806 50.9662 175.689C51.1714 175.572 50.5853 175.454 50.0871 175.308C49.5889 175.161 48.534 174.722 48.534 174.722C47.2739 173.374 46.0138 171.997 44.871 170.59C44.2849 169.887 43.7281 169.183 43.2006 168.451C42.7025 167.777 42.2629 167.073 41.8819 166.312L41.794 166.077C41.7647 166.019 41.7647 165.96 41.7647 165.901C41.7354 165.755 41.7061 165.608 41.7061 165.432C41.6768 165.051 41.6475 164.612 41.6475 164.202C41.6475 163.323 41.6768 162.443 41.7354 161.535C41.794 160.509 41.8819 159.484 41.9699 158.458C42.0871 157.227 41.1786 156.143 39.9479 156.026C38.7171 155.909 37.6328 156.817 37.5156 158.048C37.5156 158.165 37.5156 158.282 37.5156 158.399C37.6035 159.484 37.6914 160.539 37.8087 161.623C37.9259 162.59 38.0431 163.528 38.2189 164.495C38.3068 164.993 38.3947 165.491 38.5413 166.019C38.5999 166.312 38.7171 166.605 38.8343 166.898C38.8929 167.044 38.9808 167.22 39.0687 167.367L39.3032 167.718C39.8893 168.568 40.5633 169.359 41.2959 170.062C41.9992 170.736 42.7025 171.381 43.4058 171.997C44.8417 173.227 46.3069 174.4 47.8014 175.542C48.5926 177.008 49.6475 176.949 50.6732 176.92C51.6988 176.89 51.9626 176.334 51.4058 176.275Z" fill="#F7CA9F"/>
<path d="M44.521 147.029C44.521 147.029 43.8177 148.67 42.0594 148.728C41.444 148.699 41.1803 148.875 41.0631 149.607C40.9166 150.34 40.7407 150.399 40.5356 149.842C40.3305 149.285 39.8323 148.67 39.3927 148.875C38.9532 149.08 38.5429 150.281 39.2462 150.662C39.7444 150.926 39.9495 152.069 40.1546 152.567C40.3305 153.007 40.5942 153.446 40.8872 153.798C41.151 154.091 41.6199 154.384 41.7664 154.765C41.9129 155.146 41.6199 155.615 41.2975 155.908C40.0374 157.021 38.2792 157.256 36.6675 157.08C35.5246 156.963 32.9751 156.67 33.2975 155.029C33.4147 154.355 33.8836 153.798 34.2645 153.241C34.9092 152.303 35.2902 151.219 35.4367 150.106C35.5246 149.256 35.4074 148.406 35.4953 147.556C35.7004 145.886 36.5502 144.362 38.3378 144.04C41.1217 143.512 43.8763 144.391 44.521 147.029Z" fill="#231F20"/>
<path d="M44.169 147.615C44.169 147.615 41.7954 148.289 39.8906 147.615C37.9859 146.941 37.2826 148.67 37.4877 149.491C37.6928 150.224 36.5793 152.568 35.2606 151.044C35.0554 151.835 34.7038 152.568 34.2642 153.242C33.9126 153.799 33.4437 154.355 33.2972 155.029C32.9748 156.7 35.5536 156.993 36.6672 157.081C38.2789 157.227 40.0371 156.993 41.2972 155.909C41.6196 155.616 41.9126 155.176 41.7661 154.766C41.6196 154.355 41.1507 154.092 40.887 153.799C40.5646 153.418 40.3302 153.007 40.1544 152.568C39.9492 152.07 39.7148 150.956 39.2459 150.663C38.5426 150.282 38.9822 149.081 39.3925 148.876C39.8027 148.67 40.3302 149.286 40.5353 149.843C40.7404 150.399 40.9163 150.341 41.0628 149.608C41.2093 148.876 41.4437 148.7 42.0591 148.729C42.9383 148.7 43.7002 148.289 44.169 147.615Z" fill="#231F20"/>
<path d="M168.418 53.666C171.378 45.9298 169.532 37.1971 163.7 31.307C148.638 16.1567 131.143 6.10543 122.469 1.62189C119.715 0.215295 116.345 1.27024 114.909 4.02483C114.85 4.17135 114.762 4.31787 114.704 4.46439L109.019 18.1787C112.125 17.4461 115.378 17.6806 118.337 18.8527C126.308 22.0469 130.176 31.0726 126.982 39.0433C123.788 47.014 114.762 50.8822 106.791 47.688C103.715 46.4572 101.106 44.2594 99.3482 41.4462L89.3262 65.6807L109.429 74.0031C101.429 77.1387 97.502 86.135 100.638 94.1351C103.773 102.135 112.769 106.062 120.77 102.926C128.77 99.7908 132.696 90.7944 129.561 82.7944C129.502 82.6185 129.414 82.4427 129.326 82.2376L149.986 90.7944C158.777 77.1387 164.814 63.2485 168.418 53.666Z" fill="#FF6565" stroke="white" stroke-width="0.5" stroke-miterlimit="10"/>
<path d="M92.2264 108.552C92.2264 108.552 92.7832 111.512 91.7868 112.157C90.7905 112.802 94.8931 112.303 94.8931 112.303C94.8931 112.303 93.8381 109.226 94.0433 108.171C93.6037 107.878 92.2264 108.552 92.2264 108.552Z" fill="#F7CA9F"/>
<path d="M86.9534 159.981C86.2794 159.717 85.7226 159.19 85.4589 158.487L86.0156 157.49L85.1365 156.992L84.5797 157.989C84.1988 158.369 83.8764 158.78 83.6127 159.249C83.2318 159.981 83.8471 160.186 83.8471 160.186C85.1365 160.802 86.4845 161.241 87.8911 161.476L87.979 161.212C88.0669 160.948 88.1255 160.421 86.9534 159.981Z" fill="#231F20"/>
<path d="M83.8468 160.216C85.1362 160.832 86.4842 161.271 87.8908 161.506L87.9787 161.242C88.0666 160.978 88.1252 160.451 86.953 160.011C86.279 159.748 85.7223 159.22 85.4585 158.517C85.0776 158.634 84.6966 158.4 84.5794 158.019C84.1984 158.4 83.8761 158.81 83.6124 159.279C83.2607 160.011 83.8468 160.216 83.8468 160.216Z" fill="#231F20"/>
<path d="M87.9789 161.212C87.9789 161.183 87.9789 161.183 87.9789 161.154C85.3708 160.714 84.0228 159.952 83.4953 159.601C83.4367 159.864 83.5833 160.099 83.8177 160.187C85.1071 160.802 86.4551 161.242 87.8617 161.476L87.9789 161.212Z" fill="#231F20"/>
<path d="M89.384 124.816C89.384 124.816 88.1239 129.857 88.2997 132.201C88.4756 134.575 89.4719 140.934 89.4719 140.934V141.578C89.5598 141.608 89.2082 142.516 89.0323 143.161L88.3877 145.183L87.069 149.256L84.6367 157.461L86.0726 157.989L89.9994 150.37L91.9628 146.56L92.9298 144.655L93.428 143.718C93.6917 143.278 93.8675 142.78 93.9847 142.282L96.7686 125.315L89.384 124.816Z" fill="#CC9289"/>
<path d="M85.5449 159.103C85.5742 159.103 85.6035 159.103 85.6328 159.073C85.6622 159.044 85.6915 159.015 85.7208 158.985L85.6328 158.868C85.6035 158.897 85.5449 158.927 85.5156 158.956C85.5156 158.985 85.5156 159.044 85.5449 159.103C85.5449 159.073 85.5449 159.073 85.5449 159.103Z" fill="#231F20"/>
<path d="M85.9263 159.425C85.9849 159.454 86.0142 159.454 86.0435 159.425L86.1021 159.396L85.9849 159.278L85.9556 159.308C85.897 159.337 85.897 159.396 85.9263 159.425C85.897 159.425 85.897 159.425 85.9263 159.425Z" fill="#231F20"/>
<path d="M86.3083 159.776C86.3376 159.806 86.3669 159.806 86.3962 159.776C86.4255 159.747 86.4548 159.747 86.4548 159.718C86.3962 159.689 86.3669 159.659 86.3376 159.63L86.279 159.659C86.2497 159.689 86.2497 159.747 86.3083 159.776C86.279 159.776 86.279 159.776 86.3083 159.776Z" fill="#231F20"/>
<path d="M99.8466 159.307C99.114 159.307 98.4107 159.014 97.9125 158.487L98.059 157.373L97.0627 157.256L96.9162 158.369C96.711 158.868 96.5645 159.366 96.5059 159.923C96.4473 160.743 97.0627 160.714 97.0627 160.714C98.4693 160.802 99.9052 160.684 101.282 160.391L101.253 160.098C101.253 159.776 101.077 159.278 99.8466 159.307Z" fill="#231F20"/>
<path d="M97.0627 160.685C98.4693 160.773 99.9052 160.656 101.282 160.363L101.253 160.07C101.224 159.777 101.077 159.279 99.8466 159.308C99.114 159.308 98.4107 159.015 97.9125 158.487C97.5901 158.722 97.1506 158.692 96.9162 158.37C96.711 158.868 96.5645 159.366 96.5059 159.923C96.4473 160.714 97.0627 160.685 97.0627 160.685Z" fill="#231F20"/>
<path d="M101.253 160.069C101.253 160.069 101.253 160.04 101.253 160.011C98.6744 160.568 97.1505 160.392 96.5352 160.245C96.5938 160.509 96.7989 160.685 97.0626 160.685C98.4692 160.773 99.9051 160.655 101.282 160.362L101.253 160.069Z" fill="#231F20"/>
<path d="M102.162 140.025C102.133 139.879 102.074 139.703 102.045 139.586L101.957 139.322L101.635 138.267C101.43 137.564 101.195 136.89 100.961 136.187C100.492 134.809 100.023 133.461 99.5541 132.113C98.5871 129.417 97.5614 126.78 96.5065 124.084L89.62 127.22C89.62 127.22 89.4442 130.502 90.675 132.641C91.9057 134.78 97.2684 140.377 97.2684 140.377L97.5028 140.846L97.62 141.08C97.62 141.11 97.6493 141.11 97.6786 141.139C97.708 141.168 97.7373 141.198 97.7373 141.256C97.7666 141.286 97.7666 141.344 97.7666 141.373V141.432V141.579L97.7373 141.842L97.6786 142.897L97.5321 145.007L97.2391 149.198L96.653 157.608L98.0596 157.813L100.17 149.608L101.224 145.505L101.752 143.454L102.016 142.428L102.074 142.165L102.104 142.047L102.133 141.989L102.162 141.872C102.221 141.579 102.25 141.256 102.221 140.934C102.25 140.641 102.221 140.318 102.162 140.025Z" fill="#D8B4B4"/>
<path d="M94.4553 103.864C94.5432 104.01 96.3894 106.794 96.1256 108.142C95.8619 109.49 93.8106 110.047 91.1732 109.285C88.5359 108.523 88.5945 104.86 90.0304 103.6C91.4663 102.34 93.6934 102.574 94.4553 103.864Z" fill="#F7CA9F"/>
<path d="M92.3741 100.875C92.3741 100.875 93.81 98.648 94.6892 100.699C95.5683 102.751 92.8723 104.538 92.8723 104.538C93.9566 106.736 93.1653 107.322 93.1653 107.322C93.1653 107.322 92.6965 106.414 92.3155 106.472C91.9346 106.531 91.5536 107.381 92.3448 107.996C93.136 108.611 93.4584 110.575 91.2313 110.575C90.7917 110.487 90.4401 110.194 90.2349 109.784C90.2349 109.784 88.6818 109.813 88.2129 108.699C87.7441 107.586 88.2129 107.088 88.2129 107.088C88.2129 107.088 86.9822 106.355 86.9822 105.241C86.9529 104.626 87.3045 104.04 87.8613 103.747C87.8613 103.747 87.5097 102.516 88.125 101.93C88.7404 101.344 89.8247 101.578 89.8247 101.578C89.8247 101.578 89.9712 100.406 90.8796 100.348C91.495 100.318 91.9932 100.523 92.3741 100.875Z" fill="#231F20"/>
<path d="M98.792 128.01C98.5868 126.955 98.2938 125.226 98.0887 123.585C97.7663 121.007 98.0008 119.659 98.0887 116.201C98.1766 112.743 95.5392 110.809 93.0777 110.985C88.7993 111.219 88.7113 115.175 88.7113 115.175C88.9165 119.835 88.3011 126.369 88.1253 129.007C88.096 129.388 88.3597 129.739 88.7699 129.798C93.4586 130.325 96.5942 129.739 98.0301 129.3C98.5868 129.124 98.9092 128.567 98.792 128.01Z" fill="#C1847E"/>
<path d="M95.6558 111.571C95.4214 110.575 89.9415 110.751 87.773 110.956C84.6081 111.22 86.5129 112.245 86.6301 112.655C86.7473 113.124 85.3993 113.681 84.9891 114.531C84.5788 115.381 84.4909 119.22 85.7803 120.011C87.0697 120.802 90.7034 119.454 91.6704 116.406C92.5789 113.505 95.6265 111.776 95.6558 111.571Z" fill="#CC9289"/>
<path d="M107.172 94.2522C106.673 94.8676 106.527 95.9226 106.439 96.0398C106.351 96.157 106.205 95.7468 105.882 95.3365C105.56 94.9262 105.648 95.864 105.853 96.2449C105.999 96.6552 106.117 97.0947 106.146 97.5636C105.618 98.9995 105.062 100.406 104.446 101.813C104.183 102.399 103.567 103.102 104.153 103.571C104.476 103.835 105.325 104.186 105.706 103.893C106.029 103.63 106.117 102.516 106.234 102.106C106.585 100.699 106.879 99.2633 107.142 97.8274C107.523 95.6588 108.197 96.8603 108.139 95.8054C108.08 94.7504 107.67 93.6369 107.172 94.2522Z" fill="#F7CA9F"/>
<path d="M96.1545 111.131C96.1545 111.131 92.4036 112.333 92.3157 114.091C92.2278 115.849 93.2827 116.728 94.2205 117.285C95.1582 117.842 96.682 116.904 99.2315 115.146C101.781 113.388 103.949 111.659 104.887 108.523C105.503 106.267 106.851 101.197 106.851 100.611C106.851 99.8493 107.407 99.4391 107.437 98.9702C107.466 98.5013 105.473 98.0031 105.004 98.3841C104.829 98.6185 104.975 98.8237 104.799 99.5563C104.682 100.26 101.84 108.934 96.1545 111.131Z" fill="#D8B4B4"/>
<path d="M98.7326 42.9992C98.2051 42.5889 97.2674 41.5926 97.4432 41.4167C97.6191 41.2409 98.4689 41.153 98.4689 41.153C98.4689 41.153 98.4103 40.86 97.5019 40.8013C96.5934 40.7427 96.2125 40.7427 96.2125 40.7427C95.2747 39.3654 94.3663 37.9881 93.4872 36.5815C93.0476 35.8782 92.6081 35.1749 92.2857 34.501C92.2271 34.3837 92.1685 34.2372 92.1099 34.0907L92.0806 33.6804C92.0513 33.3288 92.022 32.9185 92.022 32.5083C91.9927 31.7464 92.3443 30.1053 91.6703 29.6658C91.2015 29.3434 89.5604 28.9625 89.1795 29.6365C89.0329 29.9002 89.326 30.8379 89.3553 31.1603C89.4432 31.6878 89.5018 32.2152 89.619 32.7427C89.6776 33.153 89.7656 33.5925 89.8828 34.0321L89.9707 34.3837C90 34.5303 90.0586 34.6768 90.1172 34.8233C90.2344 35.0577 90.3516 35.2922 90.5275 35.5266C91.0549 36.2885 91.5824 36.9039 92.1392 37.5779C93.2234 38.8673 94.337 40.098 95.4799 41.3288C95.685 42.794 96.359 43.5852 97.8828 43.9955C99.4066 44.4058 99.2601 43.4094 98.7326 42.9992Z" fill="#E68E3A"/>
<path d="M88.7703 30.8385C88.7703 30.8385 90.6751 31.7762 92.6385 30.8385C92.6385 30.8385 92.4627 27.1755 92.492 25.0656C92.5213 22.9557 91.3491 22.1058 89.9132 22.311C88.4773 22.5161 88.0671 23.5711 88.2722 25.4465C88.4773 27.322 88.7703 30.8385 88.7703 30.8385Z" fill="#D8B4B4"/>
</svg>
