<svg xmlns="http://www.w3.org/2000/svg" viewBox="0 0 302 91.8"><defs><style>.cls-1{fill:#fff;}</style></defs><title>Asset 2</title><g id="Layer_2" data-name="Layer 2"><g id="Layer_1-2" data-name="Layer 1"><path class="cls-1" d="M46.33,84.77A38.87,38.87,0,1,1,85.7,46,39.09,39.09,0,0,1,46.33,84.77M46.5,0C20.87,0,.05,20.46,0,45.81s20.69,45.94,46.32,46S92.76,71.34,92.81,46,72.12.05,46.5,0"/><path class="cls-1" d="M79.2,43.49l-16.76,0a1,1,0,0,0-1.1,1.09v4.24a1,1,0,0,0,1.1,1l10.87,0C71.9,55,67.9,58,62.21,58c-6.39,0-11-5-11-12.06s4.61-12,11-12a11.76,11.76,0,0,1,9.07,3.86.94.94,0,0,0,1.5,0l3-3.26a1.06,1.06,0,0,0,0-1.48,18,18,0,0,0-13.46-5.45c-10.38,0-17.88,7.66-17.9,18.33S51.92,64.27,62.2,64.29c10.48,0,18.08-7.76,18.1-18.23V44.58a1,1,0,0,0-1.1-1.09"/><path class="cls-1" d="M17.53,52.26l-3.2,3.45a.94.94,0,0,0,0,1.38c4.18,4.94,8.77,7.13,14.75,7.14,8,0,13.48-4.12,13.5-10.34,0-5.23-2.78-8.4-8.57-10l-6.38-1.79c-4-1.09-5.58-2.48-5.58-4.45,0-2.47,2.6-4.14,6.69-4.13,3,0,5.49,1.29,7.78,3.76a.85.85,0,0,0,1.5,0l3.1-3.16a1.06,1.06,0,0,0,0-1.48,16,16,0,0,0-12.36-5.15c-7.69,0-13.19,4.21-13.2,10.24,0,4.54,3.38,8.29,9.07,9.88l6,1.69c3.79,1.1,5.28,2.38,5.28,4.55,0,2.47-2.4,4.05-6.39,4A12.37,12.37,0,0,1,19,52.36a1,1,0,0,0-1.5-.1"/><path class="cls-1" d="M276,56.71V34.63h6.21c6.91,0,11.81,4.59,11.81,11s-4.9,11.06-11.81,11.06Zm-7.75,7.06h13c12.18,0,20.82-7.53,20.82-18.12s-8.64-18.08-20.82-18.08h-13Z"/><polygon class="cls-1" points="262.05 34.58 262.05 27.57 234.18 27.57 234.18 63.77 262.05 63.77 262.05 56.77 241.98 56.77 241.98 48.81 260.16 48.81 260.16 41.8 241.98 41.8 241.98 34.58 262.05 34.58"/><rect class="cls-1" x="185.63" y="27.57" width="7.8" height="36.2"/><polygon class="cls-1" points="145.57 63.77 153.32 63.77 153.32 40.38 170.76 63.77 178.56 63.77 178.56 27.57 170.76 27.57 170.76 50.97 153.32 27.57 145.57 27.57 145.57 63.77"/><polygon class="cls-1" points="209.79 63.77 217.59 63.77 217.59 34.58 228.87 34.58 228.87 27.57 198.52 27.57 198.52 34.58 209.79 34.58 209.79 63.77"/><path class="cls-1" d="M122.11,64.41c9.59,0,16.39-6.75,16.39-16.29V27.57h-7.8V47.81c0,5.58-3.58,9.54-8.59,9.54s-8.64-4-8.64-9.54V27.57h-7.75V48.12C105.72,57.66,112.47,64.41,122.11,64.41Z"/></g></g></svg>