<svg width="42" height="40" viewBox="0 0 42 40" fill="currentColor" xmlns="http://www.w3.org/2000/svg" style="color: red">
<g clip-path="url(#clip0)">
<path d="M34.8506 10.2703C36.3371 11.0693 37.2809 12.5969 37.3281 14.2656C37.3517 15.2526 37.3753 16.4277 37.3045 17.7438L37.6113 17.8613C39.1922 18.4489 40.9382 17.7438 41.6697 16.2397C42.4248 14.6416 41.7641 12.7379 40.1596 11.9624C40.0888 11.9389 40.018 11.8919 39.9472 11.8684C38.2955 11.2338 36.5967 10.7168 34.8506 10.2703Z" fill="currentColor"/>
<path d="M7.14947 10.2703C5.66295 11.0693 4.71913 12.5969 4.67194 14.2656C4.64834 15.2526 4.62475 16.4277 4.69553 17.7438L4.36519 17.8613C2.7843 18.4489 1.03823 17.7438 0.306767 16.2397C-0.471885 14.6416 0.212385 12.7379 1.81688 11.9624C1.88767 11.9389 1.95845 11.8919 2.02924 11.8684C3.70452 11.2338 5.42699 10.7168 7.14947 10.2703Z" fill="currentColor"/>
<path d="M9.58 7.47355C11.1438 7.47355 12.4115 6.2109 12.4115 4.65334C12.4115 3.09578 11.1438 1.83313 9.58 1.83313C8.01622 1.83313 6.74854 3.09578 6.74854 4.65334C6.74854 6.2109 8.01622 7.47355 9.58 7.47355Z" fill="currentColor"/>
<path d="M32.373 7.40306C33.9367 7.40306 35.2044 6.14041 35.2044 4.58285C35.2044 3.02529 33.9367 1.76263 32.373 1.76263C30.8092 1.76263 29.5415 3.02529 29.5415 4.58285C29.5415 6.14041 30.8092 7.40306 32.373 7.40306Z" fill="currentColor"/>
<path d="M20.9765 5.64042C22.5403 5.64042 23.8079 4.37777 23.8079 2.82021C23.8079 1.26265 22.5403 0 20.9765 0C19.4127 0 18.145 1.26265 18.145 2.82021C18.145 4.37777 19.4127 5.64042 20.9765 5.64042Z" fill="currentColor"/>
<path d="M20.9761 14.7591V29.5417C21.4244 29.5417 21.7783 29.8942 21.7783 30.3408V40C22.8165 39.812 23.8547 39.53 24.8457 39.1304L25.7188 15.2056C24.1615 14.8766 22.5806 14.7356 20.9761 14.7591Z" fill="currentColor"/>
<path d="M36.2663 14.3361C36.2191 12.5029 35.0865 10.8578 33.3876 10.1528C27.2528 7.59108 21 7.47357 21 7.47357V13.1375C24.2326 13.0435 27.418 13.7015 30.3438 15.0411C30.7449 15.2527 30.8865 15.7227 30.6978 16.1222C30.509 16.4982 30.0371 16.6628 29.6596 16.4982C28.9045 16.1457 28.1258 15.8402 27.3236 15.6052L26.4978 38.3784C27.5596 37.8143 28.5506 37.1093 29.4472 36.2867L30.2022 27.4266C30.2494 26.98 30.627 26.6745 31.0517 26.698C31.5 26.745 31.8067 27.121 31.7831 27.5441L31.1933 34.3831C36.0067 28.2726 36.4079 19.0129 36.2663 14.3361Z" fill="currentColor"/>
<path d="M12.3171 16.4982C12.2227 16.5453 12.1047 16.5688 11.9867 16.5688C11.5384 16.5688 11.1845 16.2162 11.1845 15.7697C11.1845 15.4642 11.3733 15.1586 11.6564 15.0411C14.6294 13.8425 17.7912 13.1845 20.9766 13.1375V7.47357C20.9766 7.47357 14.7238 7.59108 8.58899 10.1528C6.89011 10.8578 5.75753 12.5029 5.71034 14.3361C5.56876 19.0129 5.96989 28.2726 10.7834 34.4066L10.1935 27.5676C10.1463 27.1445 10.453 26.745 10.8777 26.6745C11.3025 26.604 11.7036 26.933 11.7744 27.3561C11.7744 27.3796 11.7744 27.4031 11.7744 27.4266L12.5294 36.3102C13.4261 37.1328 14.4171 37.8143 15.4789 38.4019L14.653 15.7227C13.8744 15.9107 13.0721 16.1927 12.3171 16.4982Z" fill="currentColor"/>
<path d="M16.2573 15.3231L17.1304 39.1539C18.1214 39.53 19.1596 39.8355 20.1978 40.0235V30.3643C20.1978 29.9177 20.5517 29.5652 20.9764 29.5652V14.7591C19.3955 14.8061 17.8146 14.9941 16.2573 15.3231Z" fill="currentColor"/>
</g>
<defs>
<clipPath id="clip0">
<rect width="42" height="40" fill="currentColor"/>
</clipPath>
</defs>
</svg>
